G75*
G70*
%OFA0B0*%
%FSLAX24Y24*%
%IPPOS*%
%LPD*%
%AMOC8*
5,1,8,0,0,1.08239X$1,22.5*
%
%ADD10C,0.0100*%
%ADD11C,0.0000*%
%ADD12OC8,0.0610*%
%ADD13C,0.0560*%
%ADD14R,0.0945X0.0945*%
%ADD15C,0.0400*%
%ADD16C,0.0083*%
%ADD17C,0.1700*%
%ADD18C,0.0740*%
%ADD19R,0.0453X0.0394*%
%ADD20C,0.0160*%
%ADD21R,0.0356X0.0356*%
%ADD22C,0.0120*%
%ADD23C,0.0320*%
%ADD24C,0.0400*%
D10*
X001280Y000944D02*
X001280Y021156D01*
X001540Y021156D02*
X001543Y021182D01*
X001563Y021231D01*
X001599Y021267D01*
X001648Y021287D01*
X001674Y021290D01*
X001764Y021290D01*
X001735Y021273D01*
X001700Y021238D01*
X001675Y021194D01*
X001661Y021145D01*
X001661Y020936D01*
X002076Y020936D01*
X002076Y020836D01*
X001661Y020836D01*
X001661Y020626D01*
X001675Y020578D01*
X001700Y020534D01*
X001735Y020498D01*
X001777Y020475D01*
X001710Y020447D01*
X001540Y020447D01*
X001540Y020349D02*
X001628Y020349D01*
X001640Y020377D02*
X001601Y020284D01*
X001601Y019716D01*
X001640Y019623D01*
X001706Y019557D01*
X001640Y019491D01*
X001601Y019398D01*
X001601Y018830D01*
X001640Y018738D01*
X001710Y018667D01*
X001803Y018629D01*
X002450Y018629D01*
X002542Y018667D01*
X002613Y018738D01*
X002616Y018744D01*
X004944Y018744D01*
X004947Y018738D01*
X005018Y018667D01*
X005110Y018629D01*
X005144Y018629D01*
X005144Y016324D01*
X004616Y015796D01*
X004534Y015714D01*
X004490Y015608D01*
X004490Y009742D01*
X004534Y009636D01*
X006116Y008054D01*
X006222Y008010D01*
X007660Y008010D01*
X007990Y007680D01*
X007990Y007558D01*
X007951Y007542D01*
X007788Y007379D01*
X007780Y007359D01*
X007772Y007379D01*
X007609Y007542D01*
X007395Y007630D01*
X007165Y007630D01*
X006951Y007542D01*
X006788Y007379D01*
X006700Y007165D01*
X006700Y006935D01*
X006788Y006721D01*
X006951Y006558D01*
X007165Y006470D01*
X007395Y006470D01*
X007609Y006558D01*
X007772Y006721D01*
X007780Y006741D01*
X007788Y006721D01*
X007951Y006558D01*
X008165Y006470D01*
X008395Y006470D01*
X008609Y006558D01*
X008772Y006721D01*
X008780Y006741D01*
X008788Y006721D01*
X008951Y006558D01*
X009165Y006470D01*
X009395Y006470D01*
X009609Y006558D01*
X009772Y006721D01*
X009780Y006741D01*
X009788Y006721D01*
X009951Y006558D01*
X010165Y006470D01*
X010395Y006470D01*
X010609Y006558D01*
X010772Y006721D01*
X010780Y006741D01*
X010788Y006721D01*
X010951Y006558D01*
X011165Y006470D01*
X011395Y006470D01*
X011609Y006558D01*
X011772Y006721D01*
X011780Y006741D01*
X011788Y006721D01*
X011951Y006558D01*
X012165Y006470D01*
X012395Y006470D01*
X012609Y006558D01*
X012772Y006721D01*
X012780Y006741D01*
X012788Y006721D01*
X012951Y006558D01*
X013165Y006470D01*
X013395Y006470D01*
X013609Y006558D01*
X013772Y006721D01*
X013780Y006741D01*
X013788Y006721D01*
X013951Y006558D01*
X014165Y006470D01*
X014395Y006470D01*
X014609Y006558D01*
X014772Y006721D01*
X014780Y006741D01*
X014788Y006721D01*
X014951Y006558D01*
X015165Y006470D01*
X015395Y006470D01*
X015609Y006558D01*
X015772Y006721D01*
X015813Y006821D01*
X015835Y006777D01*
X015883Y006711D01*
X015941Y006653D01*
X016007Y006605D01*
X016080Y006568D01*
X016158Y006543D01*
X016230Y006531D01*
X016230Y007000D01*
X016330Y007000D01*
X016330Y007100D01*
X017230Y007100D01*
X017230Y007569D01*
X017158Y007557D01*
X017080Y007532D01*
X017007Y007495D01*
X016941Y007447D01*
X016883Y007389D01*
X016835Y007323D01*
X016798Y007250D01*
X016780Y007194D01*
X016762Y007250D01*
X016725Y007323D01*
X016677Y007389D01*
X016619Y007447D01*
X016553Y007495D01*
X016480Y007532D01*
X016402Y007557D01*
X016330Y007569D01*
X016330Y007100D01*
X016230Y007100D01*
X016230Y007569D01*
X016158Y007557D01*
X016080Y007532D01*
X016007Y007495D01*
X015941Y007447D01*
X015883Y007389D01*
X015835Y007323D01*
X015813Y007279D01*
X015772Y007379D01*
X015645Y007505D01*
X015900Y007760D01*
X020410Y007760D01*
X020990Y007180D01*
X020990Y002233D01*
X020865Y002108D01*
X020790Y001927D01*
X020790Y001173D01*
X020865Y000992D01*
X021002Y000855D01*
X021110Y000810D01*
X019450Y000810D01*
X019558Y000855D01*
X019695Y000992D01*
X019770Y001173D01*
X019770Y001927D01*
X019695Y002108D01*
X019650Y002153D01*
X019650Y004397D01*
X020490Y005236D01*
X020594Y005340D01*
X020650Y005476D01*
X020650Y006600D01*
X020772Y006721D01*
X020860Y006935D01*
X020860Y007165D01*
X020772Y007379D01*
X020609Y007542D01*
X020395Y007630D01*
X020165Y007630D01*
X019951Y007542D01*
X019788Y007379D01*
X019780Y007359D01*
X019772Y007379D01*
X019609Y007542D01*
X019395Y007630D01*
X019165Y007630D01*
X018951Y007542D01*
X018788Y007379D01*
X018780Y007359D01*
X018772Y007379D01*
X018609Y007542D01*
X018395Y007630D01*
X018165Y007630D01*
X017951Y007542D01*
X017788Y007379D01*
X017747Y007279D01*
X017725Y007323D01*
X017677Y007389D01*
X017619Y007447D01*
X017553Y007495D01*
X017480Y007532D01*
X017402Y007557D01*
X017330Y007569D01*
X017330Y007100D01*
X017230Y007100D01*
X017230Y007000D01*
X017330Y007000D01*
X017330Y006531D01*
X017402Y006543D01*
X017480Y006568D01*
X017553Y006605D01*
X017619Y006653D01*
X017677Y006711D01*
X017725Y006777D01*
X017747Y006821D01*
X017788Y006721D01*
X017951Y006558D01*
X018165Y006470D01*
X018395Y006470D01*
X018609Y006558D01*
X018772Y006721D01*
X018780Y006741D01*
X018788Y006721D01*
X018951Y006558D01*
X019165Y006470D01*
X019395Y006470D01*
X019609Y006558D01*
X019772Y006721D01*
X019780Y006741D01*
X019788Y006721D01*
X019910Y006600D01*
X019910Y005703D01*
X018966Y004760D01*
X018910Y004624D01*
X018910Y004443D01*
X018644Y004710D01*
X018594Y004760D01*
X017990Y005364D01*
X017854Y005420D01*
X012706Y005420D01*
X012570Y005364D01*
X012466Y005260D01*
X011070Y003864D01*
X010966Y003760D01*
X010910Y003624D01*
X010910Y002437D01*
X010805Y002332D01*
X010087Y002332D01*
X009964Y002209D01*
X009964Y001091D01*
X010087Y000968D01*
X011206Y000968D01*
X011329Y001091D01*
X011329Y001809D01*
X011594Y002074D01*
X011650Y002210D01*
X011650Y003397D01*
X012933Y004680D01*
X017627Y004680D01*
X018070Y004236D01*
X018070Y004236D01*
X018120Y004186D01*
X018910Y003397D01*
X018910Y002153D01*
X018865Y002108D01*
X018790Y001927D01*
X018790Y001173D01*
X018865Y000992D01*
X019002Y000855D01*
X019110Y000810D01*
X016450Y000810D01*
X016558Y000855D01*
X016695Y000992D01*
X016770Y001173D01*
X016770Y001927D01*
X016695Y002108D01*
X016558Y002245D01*
X016450Y002290D01*
X016444Y002296D01*
X015944Y002796D01*
X015838Y002840D01*
X013722Y002840D01*
X013616Y002796D01*
X013534Y002714D01*
X013110Y002290D01*
X013002Y002245D01*
X012865Y002108D01*
X012790Y001927D01*
X012790Y001173D01*
X012865Y000992D01*
X013002Y000855D01*
X013110Y000810D01*
X012450Y000810D01*
X012558Y000855D01*
X012695Y000992D01*
X012770Y001173D01*
X012770Y001927D01*
X012695Y002108D01*
X012558Y002245D01*
X012377Y002320D01*
X012183Y002320D01*
X012002Y002245D01*
X011865Y002108D01*
X011790Y001927D01*
X011790Y001173D01*
X011865Y000992D01*
X012002Y000855D01*
X012110Y000810D01*
X007188Y000810D01*
X007256Y000838D01*
X007492Y001074D01*
X007620Y001383D01*
X007620Y001717D01*
X007492Y002026D01*
X007256Y002262D01*
X006947Y002390D01*
X006613Y002390D01*
X006304Y002262D01*
X006068Y002026D01*
X005940Y001717D01*
X005940Y001383D01*
X006068Y001074D01*
X006304Y000838D01*
X006372Y000810D01*
X004958Y000810D01*
X004990Y000817D01*
X005096Y000854D01*
X005197Y000903D01*
X005292Y000963D01*
X005380Y001033D01*
X005459Y001112D01*
X005529Y001200D01*
X005589Y001295D01*
X005638Y001396D01*
X005675Y001502D01*
X005700Y001612D01*
X005713Y001723D01*
X005713Y001730D01*
X004763Y001730D01*
X004763Y001830D01*
X004663Y001830D01*
X004663Y002780D01*
X004656Y002780D01*
X004545Y002767D01*
X004435Y002742D01*
X004329Y002705D01*
X004228Y002656D01*
X004133Y002596D01*
X004045Y002526D01*
X003966Y002447D01*
X003896Y002359D01*
X003836Y002264D01*
X003787Y002163D01*
X003750Y002057D01*
X003725Y001947D01*
X003713Y001836D01*
X003713Y001830D01*
X004663Y001830D01*
X004663Y001730D01*
X003713Y001730D01*
X003713Y001723D01*
X003725Y001612D01*
X003750Y001502D01*
X003787Y001396D01*
X003836Y001295D01*
X003896Y001200D01*
X003966Y001112D01*
X004045Y001033D01*
X004133Y000963D01*
X004228Y000903D01*
X004329Y000854D01*
X004435Y000817D01*
X004467Y000810D01*
X001674Y000810D01*
X001648Y000813D01*
X001599Y000833D01*
X001563Y000869D01*
X001543Y000918D01*
X001540Y000944D01*
X004163Y000944D01*
X004035Y001043D02*
X001540Y001043D01*
X001540Y001141D02*
X003943Y001141D01*
X003871Y001240D02*
X001540Y001240D01*
X001540Y001338D02*
X003815Y001338D01*
X003773Y001437D02*
X001540Y001437D01*
X001540Y001535D02*
X003743Y001535D01*
X003723Y001634D02*
X001540Y001634D01*
X001540Y001732D02*
X004663Y001732D01*
X004663Y001831D02*
X004763Y001831D01*
X004763Y001830D02*
X004763Y002780D01*
X004769Y002780D01*
X004880Y002767D01*
X004990Y002742D01*
X005096Y002705D01*
X005197Y002656D01*
X005292Y002596D01*
X005380Y002526D01*
X005459Y002447D01*
X005529Y002359D01*
X005589Y002264D01*
X005638Y002163D01*
X005675Y002057D01*
X005700Y001947D01*
X005713Y001836D01*
X005713Y001830D01*
X004763Y001830D01*
X004763Y001732D02*
X005946Y001732D01*
X005940Y001634D02*
X005702Y001634D01*
X005682Y001535D02*
X005940Y001535D01*
X005940Y001437D02*
X005652Y001437D01*
X005610Y001338D02*
X005959Y001338D01*
X005999Y001240D02*
X005554Y001240D01*
X005482Y001141D02*
X006040Y001141D01*
X006100Y001043D02*
X005390Y001043D01*
X005262Y000944D02*
X006198Y000944D01*
X006297Y000846D02*
X005071Y000846D01*
X004354Y000846D02*
X001586Y000846D01*
X001540Y000944D02*
X001540Y021156D01*
X001540Y021137D02*
X001661Y021137D01*
X001280Y021156D02*
X001282Y021195D01*
X001288Y021233D01*
X001297Y021270D01*
X001310Y021307D01*
X001327Y021342D01*
X001346Y021375D01*
X001369Y021406D01*
X001395Y021435D01*
X001424Y021461D01*
X001455Y021484D01*
X001488Y021503D01*
X001523Y021520D01*
X001560Y021533D01*
X001597Y021542D01*
X001635Y021548D01*
X001674Y021550D01*
X026680Y021550D01*
X027280Y020950D01*
X027280Y016450D01*
X028280Y015450D01*
X028280Y002550D01*
X027280Y001550D01*
X027280Y000944D01*
X027278Y000905D01*
X027272Y000867D01*
X027263Y000830D01*
X027250Y000793D01*
X027233Y000758D01*
X027214Y000725D01*
X027191Y000694D01*
X027165Y000665D01*
X027136Y000639D01*
X027105Y000616D01*
X027072Y000597D01*
X027037Y000580D01*
X027000Y000567D01*
X026963Y000558D01*
X026925Y000552D01*
X026886Y000550D01*
X001674Y000550D01*
X001635Y000552D01*
X001597Y000558D01*
X001560Y000567D01*
X001523Y000580D01*
X001488Y000597D01*
X001455Y000616D01*
X001424Y000639D01*
X001395Y000665D01*
X001369Y000694D01*
X001346Y000725D01*
X001327Y000758D01*
X001310Y000793D01*
X001297Y000830D01*
X001288Y000867D01*
X001282Y000905D01*
X001280Y000944D01*
X001540Y001831D02*
X003713Y001831D01*
X003723Y001929D02*
X001540Y001929D01*
X001540Y002028D02*
X003743Y002028D01*
X003774Y002126D02*
X001540Y002126D01*
X001540Y002225D02*
X003817Y002225D01*
X003873Y002323D02*
X001540Y002323D01*
X001540Y002422D02*
X003945Y002422D01*
X004039Y002520D02*
X001540Y002520D01*
X001540Y002619D02*
X004168Y002619D01*
X004111Y002813D02*
X004199Y002883D01*
X004278Y002963D01*
X004348Y003050D01*
X004408Y003146D01*
X004457Y003247D01*
X004494Y003353D01*
X004519Y003462D01*
X004531Y003574D01*
X004531Y003580D01*
X003582Y003580D01*
X003582Y003680D01*
X004531Y003680D01*
X004531Y003686D01*
X004519Y003798D01*
X004494Y003907D01*
X004457Y004013D01*
X004408Y004114D01*
X004348Y004210D01*
X004278Y004297D01*
X004199Y004377D01*
X004111Y004447D01*
X004016Y004507D01*
X003915Y004555D01*
X003809Y004592D01*
X003699Y004617D01*
X003588Y004630D01*
X003581Y004630D01*
X003581Y003680D01*
X003481Y003680D01*
X003481Y003580D01*
X002531Y003580D01*
X002531Y003574D01*
X002544Y003462D01*
X002569Y003353D01*
X002606Y003247D01*
X002655Y003146D01*
X002715Y003050D01*
X002785Y002963D01*
X002864Y002883D01*
X002952Y002813D01*
X003047Y002753D01*
X003148Y002705D01*
X003254Y002668D01*
X003364Y002643D01*
X003475Y002630D01*
X003481Y002630D01*
X003481Y003580D01*
X003581Y003580D01*
X003581Y002630D01*
X003588Y002630D01*
X003699Y002643D01*
X003809Y002668D01*
X003915Y002705D01*
X004016Y002753D01*
X004111Y002813D01*
X004114Y002816D02*
X005209Y002816D01*
X005243Y002782D02*
X005485Y002642D01*
X005754Y002570D01*
X006033Y002570D01*
X006303Y002642D01*
X006545Y002782D01*
X006742Y002979D01*
X006838Y003146D01*
X008231Y001753D01*
X008231Y001091D01*
X008354Y000968D01*
X009473Y000968D01*
X009596Y001091D01*
X009596Y002209D01*
X009473Y002332D01*
X008811Y002332D01*
X007166Y003978D01*
X007015Y004040D01*
X006881Y004040D01*
X006742Y004281D01*
X006545Y004478D01*
X006303Y004618D01*
X006033Y004690D01*
X005754Y004690D01*
X005485Y004618D01*
X005243Y004478D01*
X005045Y004281D01*
X004906Y004039D01*
X004834Y003770D01*
X004834Y003490D01*
X004906Y003221D01*
X005045Y002979D01*
X005243Y002782D01*
X005355Y002717D02*
X005061Y002717D01*
X005111Y002914D02*
X004230Y002914D01*
X004318Y003013D02*
X005026Y003013D01*
X004969Y003111D02*
X004386Y003111D01*
X004439Y003210D02*
X004912Y003210D01*
X004883Y003308D02*
X004478Y003308D01*
X004506Y003407D02*
X004856Y003407D01*
X004834Y003505D02*
X004524Y003505D01*
X004530Y003702D02*
X004834Y003702D01*
X004834Y003604D02*
X003582Y003604D01*
X003581Y003702D02*
X003481Y003702D01*
X003481Y003680D02*
X003481Y004630D01*
X003475Y004630D01*
X003364Y004617D01*
X003254Y004592D01*
X003148Y004555D01*
X003047Y004507D01*
X002952Y004447D01*
X002864Y004377D01*
X002785Y004297D01*
X002715Y004210D01*
X002655Y004114D01*
X002606Y004013D01*
X002569Y003907D01*
X002544Y003798D01*
X002531Y003686D01*
X002531Y003680D01*
X003481Y003680D01*
X003481Y003604D02*
X001540Y003604D01*
X001540Y003702D02*
X002533Y003702D01*
X002545Y003801D02*
X001540Y003801D01*
X001540Y003899D02*
X002567Y003899D01*
X002601Y003998D02*
X001540Y003998D01*
X001540Y004096D02*
X002646Y004096D01*
X002705Y004195D02*
X001540Y004195D01*
X001540Y004293D02*
X002781Y004293D01*
X002883Y004392D02*
X001540Y004392D01*
X001540Y004490D02*
X003021Y004490D01*
X003243Y004589D02*
X001540Y004589D01*
X001540Y004687D02*
X005743Y004687D01*
X006044Y004687D02*
X007746Y004687D01*
X007814Y004626D02*
X007814Y004626D01*
X007559Y004856D01*
X007559Y004856D01*
X007419Y005169D01*
X007419Y005513D01*
X007559Y005826D01*
X007559Y005826D01*
X007814Y006056D01*
X007814Y006056D01*
X008141Y006162D01*
X008141Y006162D01*
X008482Y006126D01*
X008482Y006126D01*
X008779Y005954D01*
X008779Y005954D01*
X008779Y005954D01*
X008981Y005677D01*
X008981Y005677D01*
X009052Y005341D01*
X008981Y005005D01*
X008779Y004727D01*
X008779Y004727D01*
X008482Y004556D01*
X008482Y004556D01*
X008141Y004520D01*
X008141Y004520D01*
X007814Y004626D01*
X007929Y004589D02*
X006354Y004589D01*
X006524Y004490D02*
X011697Y004490D01*
X011795Y004589D02*
X008539Y004589D01*
X008709Y004687D02*
X011894Y004687D01*
X011992Y004786D02*
X008821Y004786D01*
X008779Y004727D02*
X008779Y004727D01*
X008893Y004884D02*
X012091Y004884D01*
X012189Y004983D02*
X008965Y004983D01*
X008981Y005005D02*
X008981Y005005D01*
X008997Y005081D02*
X012288Y005081D01*
X012386Y005180D02*
X009018Y005180D01*
X009039Y005278D02*
X012485Y005278D01*
X012601Y005377D02*
X009045Y005377D01*
X009024Y005475D02*
X019682Y005475D01*
X019780Y005574D02*
X009003Y005574D01*
X008982Y005672D02*
X019879Y005672D01*
X019910Y005771D02*
X008913Y005771D01*
X008841Y005869D02*
X019910Y005869D01*
X019910Y005968D02*
X008757Y005968D01*
X008586Y006066D02*
X019910Y006066D01*
X019910Y006165D02*
X001540Y006165D01*
X001540Y006263D02*
X019910Y006263D01*
X019910Y006362D02*
X001540Y006362D01*
X001540Y006460D02*
X019910Y006460D01*
X019910Y006559D02*
X019609Y006559D01*
X019707Y006657D02*
X019853Y006657D01*
X020650Y006559D02*
X020990Y006559D01*
X020990Y006657D02*
X020707Y006657D01*
X020786Y006756D02*
X020990Y006756D01*
X020990Y006854D02*
X020827Y006854D01*
X020860Y006953D02*
X020990Y006953D01*
X020990Y007051D02*
X020860Y007051D01*
X020860Y007150D02*
X020990Y007150D01*
X020922Y007248D02*
X020826Y007248D01*
X020823Y007347D02*
X020785Y007347D01*
X020725Y007445D02*
X020705Y007445D01*
X020626Y007544D02*
X020604Y007544D01*
X020528Y007642D02*
X015782Y007642D01*
X015684Y007544D02*
X016116Y007544D01*
X016230Y007544D02*
X016330Y007544D01*
X016330Y007445D02*
X016230Y007445D01*
X016230Y007347D02*
X016330Y007347D01*
X016330Y007248D02*
X016230Y007248D01*
X016230Y007150D02*
X016330Y007150D01*
X016330Y007051D02*
X017230Y007051D01*
X017230Y007000D02*
X016761Y007000D01*
X016330Y007000D01*
X016330Y006531D01*
X016402Y006543D01*
X016480Y006568D01*
X016553Y006605D01*
X016619Y006653D01*
X016677Y006711D01*
X016725Y006777D01*
X016762Y006850D01*
X016780Y006906D01*
X016798Y006850D01*
X016835Y006777D01*
X016883Y006711D01*
X016941Y006653D01*
X017007Y006605D01*
X017080Y006568D01*
X017158Y006543D01*
X017230Y006531D01*
X017230Y007000D01*
X017230Y006953D02*
X017330Y006953D01*
X017330Y006854D02*
X017230Y006854D01*
X017230Y006756D02*
X017330Y006756D01*
X017330Y006657D02*
X017230Y006657D01*
X017230Y006559D02*
X017330Y006559D01*
X017450Y006559D02*
X017951Y006559D01*
X017853Y006657D02*
X017622Y006657D01*
X017709Y006756D02*
X017774Y006756D01*
X017330Y007150D02*
X017230Y007150D01*
X017230Y007248D02*
X017330Y007248D01*
X017330Y007347D02*
X017230Y007347D01*
X017230Y007445D02*
X017330Y007445D01*
X017330Y007544D02*
X017230Y007544D01*
X017116Y007544D02*
X016444Y007544D01*
X016620Y007445D02*
X016940Y007445D01*
X016853Y007347D02*
X016707Y007347D01*
X016762Y007248D02*
X016798Y007248D01*
X016797Y006854D02*
X016763Y006854D01*
X016709Y006756D02*
X016851Y006756D01*
X016938Y006657D02*
X016622Y006657D01*
X016450Y006559D02*
X017110Y006559D01*
X016330Y006559D02*
X016230Y006559D01*
X016230Y006657D02*
X016330Y006657D01*
X016330Y006756D02*
X016230Y006756D01*
X016230Y006854D02*
X016330Y006854D01*
X016330Y006953D02*
X016230Y006953D01*
X016110Y006559D02*
X015609Y006559D01*
X015707Y006657D02*
X015938Y006657D01*
X015851Y006756D02*
X015786Y006756D01*
X015785Y007347D02*
X015853Y007347D01*
X015940Y007445D02*
X015705Y007445D01*
X015881Y007741D02*
X020429Y007741D01*
X019956Y007544D02*
X019604Y007544D01*
X019705Y007445D02*
X019855Y007445D01*
X018956Y007544D02*
X018604Y007544D01*
X018705Y007445D02*
X018855Y007445D01*
X017956Y007544D02*
X017444Y007544D01*
X017620Y007445D02*
X017855Y007445D01*
X017775Y007347D02*
X017707Y007347D01*
X018609Y006559D02*
X018951Y006559D01*
X018853Y006657D02*
X018707Y006657D01*
X017959Y005377D02*
X019583Y005377D01*
X019485Y005278D02*
X018075Y005278D01*
X018174Y005180D02*
X019386Y005180D01*
X019288Y005081D02*
X018272Y005081D01*
X018371Y004983D02*
X019189Y004983D01*
X019091Y004884D02*
X018469Y004884D01*
X018568Y004786D02*
X018992Y004786D01*
X018936Y004687D02*
X018666Y004687D01*
X018594Y004760D02*
X018594Y004760D01*
X018765Y004589D02*
X018910Y004589D01*
X018910Y004490D02*
X018863Y004490D01*
X018309Y003998D02*
X012251Y003998D01*
X012349Y004096D02*
X018211Y004096D01*
X018112Y004195D02*
X012448Y004195D01*
X012546Y004293D02*
X018014Y004293D01*
X017915Y004392D02*
X012645Y004392D01*
X012743Y004490D02*
X017817Y004490D01*
X017718Y004589D02*
X012842Y004589D01*
X012152Y003899D02*
X018408Y003899D01*
X018506Y003801D02*
X012054Y003801D01*
X011955Y003702D02*
X018605Y003702D01*
X018703Y003604D02*
X011857Y003604D01*
X011758Y003505D02*
X018802Y003505D01*
X018900Y003407D02*
X011660Y003407D01*
X011650Y003308D02*
X018910Y003308D01*
X018910Y003210D02*
X011650Y003210D01*
X011650Y003111D02*
X018910Y003111D01*
X018910Y003013D02*
X011650Y003013D01*
X011650Y002914D02*
X018910Y002914D01*
X018910Y002816D02*
X015897Y002816D01*
X016023Y002717D02*
X018910Y002717D01*
X018910Y002619D02*
X016122Y002619D01*
X016220Y002520D02*
X018910Y002520D01*
X018910Y002422D02*
X016319Y002422D01*
X016417Y002323D02*
X018910Y002323D01*
X018910Y002225D02*
X018453Y002225D01*
X018445Y002228D02*
X018381Y002249D01*
X018314Y002260D01*
X018314Y002260D01*
X018314Y001584D01*
X018710Y001584D01*
X018710Y001864D01*
X018699Y001931D01*
X018678Y001995D01*
X018648Y002055D01*
X018608Y002110D01*
X018560Y002158D01*
X018505Y002198D01*
X018445Y002228D01*
X018314Y002225D02*
X018246Y002225D01*
X018246Y002260D02*
X018179Y002249D01*
X018115Y002228D01*
X018055Y002198D01*
X018000Y002158D01*
X017952Y002110D01*
X017912Y002055D01*
X017882Y001995D01*
X017861Y001931D01*
X017850Y001864D01*
X017850Y001584D01*
X018246Y001584D01*
X018246Y001516D01*
X018314Y001516D01*
X018314Y001584D01*
X018246Y001584D01*
X018246Y002260D01*
X018246Y002260D01*
X018246Y002126D02*
X018314Y002126D01*
X018314Y002028D02*
X018246Y002028D01*
X018246Y001929D02*
X018314Y001929D01*
X018314Y001831D02*
X018246Y001831D01*
X018246Y001732D02*
X018314Y001732D01*
X018314Y001634D02*
X018246Y001634D01*
X018246Y001535D02*
X017314Y001535D01*
X017314Y001516D02*
X017314Y001584D01*
X017710Y001584D01*
X017710Y001864D01*
X017699Y001931D01*
X017678Y001995D01*
X017648Y002055D01*
X017608Y002110D01*
X017560Y002158D01*
X017505Y002198D01*
X017445Y002228D01*
X017381Y002249D01*
X017314Y002260D01*
X017314Y002260D01*
X017314Y001584D01*
X017246Y001584D01*
X017246Y001516D01*
X017314Y001516D01*
X017710Y001516D01*
X017710Y001236D01*
X017699Y001169D01*
X017678Y001105D01*
X017648Y001045D01*
X017608Y000990D01*
X017560Y000942D01*
X017505Y000902D01*
X017445Y000872D01*
X017381Y000851D01*
X017314Y000840D01*
X017314Y000840D01*
X017314Y001516D01*
X017246Y001516D02*
X017246Y000840D01*
X017246Y000840D01*
X017179Y000851D01*
X017115Y000872D01*
X017055Y000902D01*
X017000Y000942D01*
X016952Y000990D01*
X016912Y001045D01*
X016882Y001105D01*
X016861Y001169D01*
X016850Y001236D01*
X016850Y001516D01*
X017246Y001516D01*
X017246Y001535D02*
X016770Y001535D01*
X016850Y001584D02*
X017246Y001584D01*
X017246Y002260D01*
X017179Y002249D01*
X017115Y002228D01*
X017055Y002198D01*
X017000Y002158D01*
X016952Y002110D01*
X016912Y002055D01*
X016882Y001995D01*
X016861Y001931D01*
X016850Y001864D01*
X016850Y001584D01*
X016850Y001634D02*
X016770Y001634D01*
X016770Y001732D02*
X016850Y001732D01*
X016850Y001831D02*
X016770Y001831D01*
X016769Y001929D02*
X016860Y001929D01*
X016898Y002028D02*
X016729Y002028D01*
X016677Y002126D02*
X016968Y002126D01*
X017107Y002225D02*
X016578Y002225D01*
X017246Y002225D02*
X017314Y002225D01*
X017246Y002260D02*
X017246Y002260D01*
X017246Y002126D02*
X017314Y002126D01*
X017314Y002028D02*
X017246Y002028D01*
X017246Y001929D02*
X017314Y001929D01*
X017314Y001831D02*
X017246Y001831D01*
X017246Y001732D02*
X017314Y001732D01*
X017314Y001634D02*
X017246Y001634D01*
X017246Y001437D02*
X017314Y001437D01*
X017314Y001338D02*
X017246Y001338D01*
X017246Y001240D02*
X017314Y001240D01*
X017314Y001141D02*
X017246Y001141D01*
X017246Y001043D02*
X017314Y001043D01*
X017314Y000944D02*
X017246Y000944D01*
X017246Y000846D02*
X017314Y000846D01*
X017349Y000846D02*
X018211Y000846D01*
X018179Y000851D02*
X018246Y000840D01*
X018246Y000840D01*
X018246Y001516D01*
X017850Y001516D01*
X017850Y001236D01*
X017861Y001169D01*
X017882Y001105D01*
X017912Y001045D01*
X017952Y000990D01*
X018000Y000942D01*
X018055Y000902D01*
X018115Y000872D01*
X018179Y000851D01*
X018246Y000846D02*
X018314Y000846D01*
X018314Y000840D02*
X018381Y000851D01*
X018445Y000872D01*
X018505Y000902D01*
X018560Y000942D01*
X018608Y000990D01*
X018648Y001045D01*
X018678Y001105D01*
X018699Y001169D01*
X018710Y001236D01*
X018710Y001516D01*
X018314Y001516D01*
X018314Y000840D01*
X018314Y000840D01*
X018349Y000846D02*
X019024Y000846D01*
X018913Y000944D02*
X018562Y000944D01*
X018646Y001043D02*
X018844Y001043D01*
X018803Y001141D02*
X018690Y001141D01*
X018710Y001240D02*
X018790Y001240D01*
X018790Y001338D02*
X018710Y001338D01*
X018710Y001437D02*
X018790Y001437D01*
X018790Y001535D02*
X018314Y001535D01*
X018314Y001437D02*
X018246Y001437D01*
X018246Y001338D02*
X018314Y001338D01*
X018314Y001240D02*
X018246Y001240D01*
X018246Y001141D02*
X018314Y001141D01*
X018314Y001043D02*
X018246Y001043D01*
X018246Y000944D02*
X018314Y000944D01*
X017998Y000944D02*
X017562Y000944D01*
X017646Y001043D02*
X017914Y001043D01*
X017870Y001141D02*
X017690Y001141D01*
X017710Y001240D02*
X017850Y001240D01*
X017850Y001338D02*
X017710Y001338D01*
X017710Y001437D02*
X017850Y001437D01*
X017850Y001634D02*
X017710Y001634D01*
X017710Y001732D02*
X017850Y001732D01*
X017850Y001831D02*
X017710Y001831D01*
X017700Y001929D02*
X017860Y001929D01*
X017898Y002028D02*
X017662Y002028D01*
X017592Y002126D02*
X017968Y002126D01*
X018107Y002225D02*
X017453Y002225D01*
X016850Y001437D02*
X016770Y001437D01*
X016770Y001338D02*
X016850Y001338D01*
X016850Y001240D02*
X016770Y001240D01*
X016757Y001141D02*
X016870Y001141D01*
X016914Y001043D02*
X016716Y001043D01*
X016647Y000944D02*
X016998Y000944D01*
X017211Y000846D02*
X016536Y000846D01*
X018710Y001634D02*
X018790Y001634D01*
X018790Y001732D02*
X018710Y001732D01*
X018710Y001831D02*
X018790Y001831D01*
X018791Y001929D02*
X018700Y001929D01*
X018662Y002028D02*
X018831Y002028D01*
X018883Y002126D02*
X018592Y002126D01*
X019650Y002225D02*
X020982Y002225D01*
X020990Y002323D02*
X019650Y002323D01*
X019650Y002422D02*
X020990Y002422D01*
X020990Y002520D02*
X019650Y002520D01*
X019650Y002619D02*
X020990Y002619D01*
X020990Y002717D02*
X019650Y002717D01*
X019650Y002816D02*
X020990Y002816D01*
X020990Y002914D02*
X019650Y002914D01*
X019650Y003013D02*
X020990Y003013D01*
X020990Y003111D02*
X019650Y003111D01*
X019650Y003210D02*
X020990Y003210D01*
X020990Y003308D02*
X019650Y003308D01*
X019650Y003407D02*
X020990Y003407D01*
X020990Y003505D02*
X019650Y003505D01*
X019650Y003604D02*
X020990Y003604D01*
X020990Y003702D02*
X019650Y003702D01*
X019650Y003801D02*
X020990Y003801D01*
X020990Y003899D02*
X019650Y003899D01*
X019650Y003998D02*
X020990Y003998D01*
X020990Y004096D02*
X019650Y004096D01*
X019650Y004195D02*
X020990Y004195D01*
X020990Y004293D02*
X019650Y004293D01*
X019650Y004392D02*
X020990Y004392D01*
X020990Y004490D02*
X019743Y004490D01*
X019842Y004589D02*
X020990Y004589D01*
X020990Y004687D02*
X019940Y004687D01*
X020039Y004786D02*
X020990Y004786D01*
X020990Y004884D02*
X020137Y004884D01*
X020236Y004983D02*
X020990Y004983D01*
X020990Y005081D02*
X020334Y005081D01*
X020433Y005180D02*
X020990Y005180D01*
X020990Y005278D02*
X020531Y005278D01*
X020609Y005377D02*
X020990Y005377D01*
X020990Y005475D02*
X020649Y005475D01*
X020650Y005574D02*
X020990Y005574D01*
X020990Y005672D02*
X020650Y005672D01*
X020650Y005771D02*
X020990Y005771D01*
X020990Y005869D02*
X020650Y005869D01*
X020650Y005968D02*
X020990Y005968D01*
X020990Y006066D02*
X020650Y006066D01*
X020650Y006165D02*
X020990Y006165D01*
X020990Y006263D02*
X020650Y006263D01*
X020650Y006362D02*
X020990Y006362D01*
X020990Y006460D02*
X020650Y006460D01*
X021570Y006460D02*
X021990Y006460D01*
X021990Y006362D02*
X021570Y006362D01*
X021570Y006263D02*
X021990Y006263D01*
X021990Y006165D02*
X021570Y006165D01*
X021570Y006066D02*
X021990Y006066D01*
X021990Y005968D02*
X021570Y005968D01*
X021570Y005869D02*
X021990Y005869D01*
X021990Y005771D02*
X021570Y005771D01*
X021570Y005672D02*
X021990Y005672D01*
X021990Y005574D02*
X021570Y005574D01*
X021570Y005475D02*
X021990Y005475D01*
X021990Y005377D02*
X021570Y005377D01*
X021570Y005278D02*
X021990Y005278D01*
X021990Y005180D02*
X021570Y005180D01*
X021570Y005081D02*
X021990Y005081D01*
X021990Y004983D02*
X021570Y004983D01*
X021570Y004884D02*
X021990Y004884D01*
X021990Y004786D02*
X021570Y004786D01*
X021570Y004687D02*
X021990Y004687D01*
X021990Y004589D02*
X021570Y004589D01*
X021570Y004490D02*
X021990Y004490D01*
X021990Y004392D02*
X021570Y004392D01*
X021570Y004293D02*
X021990Y004293D01*
X021990Y004195D02*
X021570Y004195D01*
X021570Y004096D02*
X021990Y004096D01*
X021990Y003998D02*
X021570Y003998D01*
X021570Y003899D02*
X021990Y003899D01*
X021990Y003801D02*
X021570Y003801D01*
X021570Y003702D02*
X021990Y003702D01*
X021990Y003604D02*
X021570Y003604D01*
X021570Y003505D02*
X021990Y003505D01*
X021990Y003407D02*
X021570Y003407D01*
X021570Y003308D02*
X021990Y003308D01*
X021990Y003210D02*
X021570Y003210D01*
X021570Y003111D02*
X021990Y003111D01*
X021990Y003013D02*
X021570Y003013D01*
X021570Y002914D02*
X021990Y002914D01*
X021990Y002816D02*
X021570Y002816D01*
X021570Y002717D02*
X021990Y002717D01*
X021990Y002619D02*
X021570Y002619D01*
X021570Y002520D02*
X021990Y002520D01*
X021990Y002422D02*
X021570Y002422D01*
X021570Y002323D02*
X021990Y002323D01*
X021990Y002233D02*
X021865Y002108D01*
X021790Y001927D01*
X021790Y001173D01*
X021865Y000992D01*
X022002Y000855D01*
X022110Y000810D01*
X021450Y000810D01*
X021558Y000855D01*
X021695Y000992D01*
X021770Y001173D01*
X021770Y001927D01*
X021695Y002108D01*
X021570Y002233D01*
X021570Y007100D01*
X021990Y006680D01*
X021990Y002233D01*
X021982Y002225D02*
X021578Y002225D01*
X021677Y002126D02*
X021883Y002126D01*
X021831Y002028D02*
X021729Y002028D01*
X021769Y001929D02*
X021791Y001929D01*
X021790Y001831D02*
X021770Y001831D01*
X021770Y001732D02*
X021790Y001732D01*
X021790Y001634D02*
X021770Y001634D01*
X021770Y001535D02*
X021790Y001535D01*
X021790Y001437D02*
X021770Y001437D01*
X021770Y001338D02*
X021790Y001338D01*
X021790Y001240D02*
X021770Y001240D01*
X021757Y001141D02*
X021803Y001141D01*
X021844Y001043D02*
X021716Y001043D01*
X021647Y000944D02*
X021913Y000944D01*
X022024Y000846D02*
X021536Y000846D01*
X021024Y000846D02*
X019536Y000846D01*
X019647Y000944D02*
X020913Y000944D01*
X020844Y001043D02*
X019716Y001043D01*
X019757Y001141D02*
X020803Y001141D01*
X020790Y001240D02*
X019770Y001240D01*
X019770Y001338D02*
X020790Y001338D01*
X020790Y001437D02*
X019770Y001437D01*
X019770Y001535D02*
X020790Y001535D01*
X020790Y001634D02*
X019770Y001634D01*
X019770Y001732D02*
X020790Y001732D01*
X020790Y001831D02*
X019770Y001831D01*
X019769Y001929D02*
X020791Y001929D01*
X020831Y002028D02*
X019729Y002028D01*
X019677Y002126D02*
X020883Y002126D01*
X021570Y006559D02*
X021990Y006559D01*
X021990Y006657D02*
X021570Y006657D01*
X021570Y006756D02*
X021914Y006756D01*
X021816Y006854D02*
X021570Y006854D01*
X021570Y006953D02*
X021717Y006953D01*
X021619Y007051D02*
X021570Y007051D01*
X024530Y009711D02*
X024642Y009711D01*
X024642Y009809D02*
X024431Y009809D01*
X024333Y009908D02*
X024642Y009908D01*
X024642Y010006D02*
X024234Y010006D01*
X024136Y010105D02*
X024681Y010105D01*
X024642Y010065D02*
X024642Y009598D01*
X023480Y010760D01*
X025710Y010760D01*
X025815Y010655D01*
X025815Y010337D01*
X026117Y010035D01*
X026543Y010035D01*
X026845Y010337D01*
X026845Y010763D01*
X026558Y011050D01*
X026830Y011322D01*
X027117Y011035D01*
X027543Y011035D01*
X027845Y011337D01*
X027845Y011763D01*
X027558Y012050D01*
X027845Y012337D01*
X027845Y012763D01*
X027620Y012988D01*
X027620Y013038D01*
X027576Y013144D01*
X027006Y013714D01*
X026937Y013783D01*
X027113Y013710D01*
X027447Y013710D01*
X027756Y013838D01*
X027992Y014074D01*
X028020Y014142D01*
X028020Y008720D01*
X027026Y009714D01*
X026944Y009796D01*
X026838Y009840D01*
X026643Y009840D01*
X026545Y009938D01*
X026015Y009938D01*
X025892Y009815D01*
X025892Y009348D01*
X025418Y009822D01*
X025418Y010065D01*
X025295Y010188D01*
X024765Y010188D01*
X024642Y010065D01*
X024628Y009612D02*
X024642Y009612D01*
X024037Y010203D02*
X025948Y010203D01*
X025850Y010302D02*
X023939Y010302D01*
X023840Y010400D02*
X025815Y010400D01*
X025815Y010499D02*
X023742Y010499D01*
X023643Y010597D02*
X025815Y010597D01*
X025774Y010696D02*
X023545Y010696D01*
X025160Y011760D02*
X025580Y011340D01*
X011472Y011340D01*
X011366Y011296D01*
X008280Y008210D01*
X007944Y008546D01*
X007838Y008590D01*
X006400Y008590D01*
X005070Y009920D01*
X005070Y012912D01*
X005545Y012912D01*
X005668Y013035D01*
X005668Y013502D01*
X005990Y013180D01*
X005990Y012913D01*
X005892Y012815D01*
X005892Y012285D01*
X006015Y012162D01*
X006545Y012162D01*
X006668Y012285D01*
X006668Y012815D01*
X006570Y012913D01*
X006570Y013358D01*
X006526Y013464D01*
X006444Y013546D01*
X006070Y013920D01*
X006070Y014340D01*
X006116Y014294D01*
X006133Y014287D01*
X006740Y013680D01*
X006740Y011663D01*
X006642Y011565D01*
X006642Y011035D01*
X006765Y010912D01*
X007295Y010912D01*
X007418Y011035D01*
X007418Y011565D01*
X007320Y011663D01*
X007320Y013850D01*
X009366Y011804D01*
X009472Y011760D01*
X025160Y011760D01*
X025239Y011681D02*
X007320Y011681D01*
X007320Y011779D02*
X009426Y011779D01*
X009292Y011878D02*
X007320Y011878D01*
X007320Y011976D02*
X009194Y011976D01*
X009095Y012075D02*
X007320Y012075D01*
X007320Y012173D02*
X008997Y012173D01*
X008898Y012272D02*
X007320Y012272D01*
X007320Y012370D02*
X008800Y012370D01*
X008701Y012469D02*
X007320Y012469D01*
X007320Y012567D02*
X008603Y012567D01*
X008504Y012666D02*
X007320Y012666D01*
X007320Y012764D02*
X008406Y012764D01*
X008307Y012863D02*
X007320Y012863D01*
X007320Y012961D02*
X008209Y012961D01*
X008110Y013060D02*
X007320Y013060D01*
X007320Y013158D02*
X008012Y013158D01*
X007913Y013257D02*
X007320Y013257D01*
X007320Y013355D02*
X007815Y013355D01*
X007716Y013454D02*
X007320Y013454D01*
X007320Y013552D02*
X007618Y013552D01*
X007519Y013651D02*
X007320Y013651D01*
X007320Y013749D02*
X007421Y013749D01*
X007322Y013848D02*
X007320Y013848D01*
X006740Y013651D02*
X006340Y013651D01*
X006241Y013749D02*
X006671Y013749D01*
X006572Y013848D02*
X006143Y013848D01*
X006070Y013946D02*
X006474Y013946D01*
X006375Y014045D02*
X006070Y014045D01*
X006070Y014143D02*
X006277Y014143D01*
X006178Y014242D02*
X006070Y014242D01*
X006438Y013552D02*
X006740Y013552D01*
X006740Y013454D02*
X006530Y013454D01*
X006570Y013355D02*
X006740Y013355D01*
X006740Y013257D02*
X006570Y013257D01*
X006570Y013158D02*
X006740Y013158D01*
X006740Y013060D02*
X006570Y013060D01*
X006570Y012961D02*
X006740Y012961D01*
X006740Y012863D02*
X006621Y012863D01*
X006668Y012764D02*
X006740Y012764D01*
X006740Y012666D02*
X006668Y012666D01*
X006668Y012567D02*
X006740Y012567D01*
X006740Y012469D02*
X006668Y012469D01*
X006668Y012370D02*
X006740Y012370D01*
X006740Y012272D02*
X006655Y012272D01*
X006740Y012173D02*
X006556Y012173D01*
X006740Y012075D02*
X005070Y012075D01*
X005070Y012173D02*
X006004Y012173D01*
X005905Y012272D02*
X005070Y012272D01*
X005070Y012370D02*
X005892Y012370D01*
X005892Y012469D02*
X005070Y012469D01*
X005070Y012567D02*
X005892Y012567D01*
X005892Y012666D02*
X005070Y012666D01*
X005070Y012764D02*
X005892Y012764D01*
X005939Y012863D02*
X005070Y012863D01*
X005594Y012961D02*
X005990Y012961D01*
X005990Y013060D02*
X005668Y013060D01*
X005668Y013158D02*
X005990Y013158D01*
X005913Y013257D02*
X005668Y013257D01*
X005668Y013355D02*
X005815Y013355D01*
X005716Y013454D02*
X005668Y013454D01*
X004490Y013454D02*
X001540Y013454D01*
X001540Y013552D02*
X004490Y013552D01*
X004490Y013651D02*
X001540Y013651D01*
X001540Y013749D02*
X004490Y013749D01*
X004490Y013848D02*
X001540Y013848D01*
X001540Y013946D02*
X004490Y013946D01*
X004490Y014045D02*
X001540Y014045D01*
X001540Y014143D02*
X004490Y014143D01*
X004490Y014242D02*
X001540Y014242D01*
X001540Y014340D02*
X004490Y014340D01*
X004490Y014439D02*
X001540Y014439D01*
X001540Y014537D02*
X004490Y014537D01*
X004490Y014636D02*
X001540Y014636D01*
X001540Y014734D02*
X004490Y014734D01*
X004490Y014833D02*
X001540Y014833D01*
X001540Y014931D02*
X004490Y014931D01*
X004490Y015030D02*
X001540Y015030D01*
X001540Y015128D02*
X004490Y015128D01*
X004490Y015227D02*
X001540Y015227D01*
X001540Y015325D02*
X004490Y015325D01*
X004490Y015424D02*
X001540Y015424D01*
X001540Y015522D02*
X004490Y015522D01*
X004495Y015621D02*
X001540Y015621D01*
X001540Y015719D02*
X004539Y015719D01*
X004637Y015818D02*
X001540Y015818D01*
X001540Y015916D02*
X004736Y015916D01*
X004834Y016015D02*
X001540Y016015D01*
X001540Y016113D02*
X004933Y016113D01*
X005031Y016212D02*
X001540Y016212D01*
X001540Y016310D02*
X005130Y016310D01*
X005144Y016409D02*
X001540Y016409D01*
X001540Y016507D02*
X005144Y016507D01*
X005144Y016606D02*
X001540Y016606D01*
X001540Y016704D02*
X005144Y016704D01*
X005144Y016803D02*
X001540Y016803D01*
X001540Y016901D02*
X005144Y016901D01*
X005144Y017000D02*
X001540Y017000D01*
X001540Y017098D02*
X005144Y017098D01*
X005144Y017197D02*
X001540Y017197D01*
X001540Y017295D02*
X005144Y017295D01*
X005144Y017394D02*
X001540Y017394D01*
X001540Y017492D02*
X005144Y017492D01*
X005144Y017591D02*
X001540Y017591D01*
X001540Y017689D02*
X005144Y017689D01*
X005144Y017788D02*
X001540Y017788D01*
X001540Y017886D02*
X005144Y017886D01*
X005144Y017985D02*
X001540Y017985D01*
X001540Y018083D02*
X005144Y018083D01*
X005144Y018182D02*
X001540Y018182D01*
X001540Y018280D02*
X005144Y018280D01*
X005144Y018379D02*
X001540Y018379D01*
X001540Y018477D02*
X005144Y018477D01*
X005144Y018576D02*
X001540Y018576D01*
X001540Y018674D02*
X001703Y018674D01*
X001625Y018773D02*
X001540Y018773D01*
X001540Y018871D02*
X001601Y018871D01*
X001601Y018970D02*
X001540Y018970D01*
X001540Y019068D02*
X001601Y019068D01*
X001601Y019167D02*
X001540Y019167D01*
X001540Y019265D02*
X001601Y019265D01*
X001601Y019364D02*
X001540Y019364D01*
X001540Y019462D02*
X001628Y019462D01*
X001703Y019561D02*
X001540Y019561D01*
X001540Y019659D02*
X001625Y019659D01*
X001601Y019758D02*
X001540Y019758D01*
X001540Y019856D02*
X001601Y019856D01*
X001601Y019955D02*
X001540Y019955D01*
X001540Y020053D02*
X001601Y020053D01*
X001601Y020152D02*
X001540Y020152D01*
X001540Y020250D02*
X001601Y020250D01*
X001640Y020377D02*
X001710Y020447D01*
X001693Y020546D02*
X001540Y020546D01*
X001540Y020644D02*
X001661Y020644D01*
X001661Y020743D02*
X001540Y020743D01*
X001540Y020841D02*
X002076Y020841D01*
X002176Y020841D02*
X003285Y020841D01*
X003367Y020915D02*
X003112Y020685D01*
X002972Y020372D01*
X002972Y020028D01*
X003112Y019715D01*
X003112Y019715D01*
X003367Y019485D01*
X003367Y019485D01*
X003370Y019484D01*
X002616Y019484D01*
X002613Y019491D01*
X002547Y019557D01*
X002613Y019623D01*
X002651Y019716D01*
X002651Y020284D01*
X002613Y020377D01*
X002542Y020447D01*
X002476Y020475D01*
X002518Y020498D01*
X002553Y020534D01*
X002578Y020578D01*
X002591Y020626D01*
X002591Y020836D01*
X002176Y020836D01*
X002176Y020936D01*
X002591Y020936D01*
X002591Y021145D01*
X002578Y021194D01*
X002553Y021238D01*
X002518Y021273D01*
X002488Y021290D01*
X005072Y021290D01*
X005042Y021273D01*
X005007Y021238D01*
X004982Y021194D01*
X004969Y021145D01*
X004969Y020936D01*
X005384Y020936D01*
X005384Y020836D01*
X005484Y020836D01*
X005484Y020936D01*
X005899Y020936D01*
X005899Y021145D01*
X005885Y021194D01*
X005860Y021238D01*
X005825Y021273D01*
X005796Y021290D01*
X006872Y021290D01*
X006804Y021262D01*
X006568Y021026D01*
X006440Y020717D01*
X006440Y020383D01*
X006568Y020074D01*
X006804Y019838D01*
X007113Y019710D01*
X007447Y019710D01*
X007756Y019838D01*
X007992Y020074D01*
X008120Y020383D01*
X008120Y020717D01*
X007992Y021026D01*
X007756Y021262D01*
X007688Y021290D01*
X008510Y021290D01*
X008402Y021245D01*
X008265Y021108D01*
X008190Y020927D01*
X008190Y020173D01*
X008265Y019992D01*
X008390Y019867D01*
X008390Y019070D01*
X005724Y016404D01*
X005724Y018629D01*
X005757Y018629D01*
X005850Y018667D01*
X005920Y018738D01*
X005959Y018830D01*
X005959Y019398D01*
X005920Y019491D01*
X005850Y019561D01*
X008390Y019561D01*
X008390Y019659D02*
X004385Y019659D01*
X004332Y019586D02*
X004534Y019864D01*
X004606Y020200D01*
X004534Y020536D01*
X004332Y020814D01*
X004035Y020985D01*
X003694Y021021D01*
X003694Y021021D01*
X003367Y020915D01*
X003367Y020915D01*
X003443Y020940D02*
X002591Y020940D01*
X002591Y021038D02*
X004969Y021038D01*
X004969Y020940D02*
X004114Y020940D01*
X004035Y020985D02*
X004035Y020985D01*
X004285Y020841D02*
X005384Y020841D01*
X005384Y020836D02*
X004969Y020836D01*
X004969Y020626D01*
X004982Y020578D01*
X005007Y020534D01*
X005042Y020498D01*
X005086Y020473D01*
X005135Y020460D01*
X005384Y020460D01*
X005384Y020836D01*
X005384Y020743D02*
X005484Y020743D01*
X005484Y020836D02*
X005484Y020460D01*
X005732Y020460D01*
X005781Y020473D01*
X005825Y020498D01*
X005860Y020534D01*
X005885Y020578D01*
X005899Y020626D01*
X005899Y020836D01*
X005484Y020836D01*
X005484Y020841D02*
X006491Y020841D01*
X006451Y020743D02*
X005899Y020743D01*
X005899Y020644D02*
X006440Y020644D01*
X006440Y020546D02*
X005867Y020546D01*
X005484Y020546D02*
X005384Y020546D01*
X005384Y020644D02*
X005484Y020644D01*
X005899Y020940D02*
X006532Y020940D01*
X006580Y021038D02*
X005899Y021038D01*
X005899Y021137D02*
X006679Y021137D01*
X006777Y021235D02*
X005862Y021235D01*
X005005Y021235D02*
X002555Y021235D01*
X002591Y021137D02*
X004969Y021137D01*
X004969Y020743D02*
X004384Y020743D01*
X004332Y020814D02*
X004332Y020814D01*
X004332Y020814D01*
X004456Y020644D02*
X004969Y020644D01*
X005000Y020546D02*
X004527Y020546D01*
X004534Y020536D02*
X004534Y020536D01*
X004553Y020447D02*
X006440Y020447D01*
X006454Y020349D02*
X004574Y020349D01*
X004595Y020250D02*
X006495Y020250D01*
X006536Y020152D02*
X004595Y020152D01*
X004606Y020200D02*
X004606Y020200D01*
X004574Y020053D02*
X006589Y020053D01*
X006688Y019955D02*
X004553Y019955D01*
X004528Y019856D02*
X006786Y019856D01*
X006998Y019758D02*
X004457Y019758D01*
X004332Y019586D02*
X004332Y019586D01*
X004155Y019484D01*
X004944Y019484D01*
X004947Y019491D01*
X005018Y019561D01*
X005110Y019600D01*
X005757Y019600D01*
X005850Y019561D01*
X005932Y019462D02*
X008390Y019462D01*
X008390Y019364D02*
X005959Y019364D01*
X005959Y019265D02*
X008390Y019265D01*
X008390Y019167D02*
X005959Y019167D01*
X005959Y019068D02*
X008388Y019068D01*
X008289Y018970D02*
X005959Y018970D01*
X005959Y018871D02*
X008191Y018871D01*
X008092Y018773D02*
X005935Y018773D01*
X005857Y018674D02*
X007994Y018674D01*
X007895Y018576D02*
X005724Y018576D01*
X005724Y018477D02*
X007797Y018477D01*
X007698Y018379D02*
X005724Y018379D01*
X005724Y018280D02*
X007600Y018280D01*
X007501Y018182D02*
X005724Y018182D01*
X005724Y018083D02*
X007403Y018083D01*
X007304Y017985D02*
X005724Y017985D01*
X005724Y017886D02*
X007206Y017886D01*
X007107Y017788D02*
X005724Y017788D01*
X005724Y017689D02*
X007009Y017689D01*
X006910Y017591D02*
X005724Y017591D01*
X005724Y017492D02*
X006812Y017492D01*
X006713Y017394D02*
X005724Y017394D01*
X005724Y017295D02*
X006615Y017295D01*
X006516Y017197D02*
X005724Y017197D01*
X005724Y017098D02*
X006418Y017098D01*
X006319Y017000D02*
X005724Y017000D01*
X005724Y016901D02*
X006221Y016901D01*
X006122Y016803D02*
X005724Y016803D01*
X005724Y016704D02*
X006024Y016704D01*
X005925Y016606D02*
X005724Y016606D01*
X005724Y016507D02*
X005827Y016507D01*
X005728Y016409D02*
X005724Y016409D01*
X005010Y018674D02*
X002550Y018674D01*
X002550Y019561D02*
X003283Y019561D01*
X003174Y019659D02*
X002628Y019659D01*
X002651Y019758D02*
X003093Y019758D01*
X003112Y019715D02*
X003112Y019715D01*
X003049Y019856D02*
X002651Y019856D01*
X002651Y019955D02*
X003005Y019955D01*
X002972Y020053D02*
X002651Y020053D01*
X002651Y020152D02*
X002972Y020152D01*
X002972Y020250D02*
X002651Y020250D01*
X002625Y020349D02*
X002972Y020349D01*
X003006Y020447D02*
X002543Y020447D01*
X002560Y020546D02*
X003050Y020546D01*
X003094Y020644D02*
X002591Y020644D01*
X002591Y020743D02*
X003176Y020743D01*
X003112Y020685D02*
X003112Y020685D01*
X001661Y020940D02*
X001540Y020940D01*
X001540Y021038D02*
X001661Y021038D01*
X001698Y021235D02*
X001567Y021235D01*
X004287Y019561D02*
X005017Y019561D01*
X007562Y019758D02*
X008390Y019758D01*
X008390Y019856D02*
X007774Y019856D01*
X007872Y019955D02*
X008302Y019955D01*
X008239Y020053D02*
X007971Y020053D01*
X008024Y020152D02*
X008199Y020152D01*
X008190Y020250D02*
X008065Y020250D01*
X008106Y020349D02*
X008190Y020349D01*
X008190Y020447D02*
X008120Y020447D01*
X008120Y020546D02*
X008190Y020546D01*
X008190Y020644D02*
X008120Y020644D01*
X008109Y020743D02*
X008190Y020743D01*
X008190Y020841D02*
X008069Y020841D01*
X008028Y020940D02*
X008195Y020940D01*
X008236Y021038D02*
X007980Y021038D01*
X007881Y021137D02*
X008294Y021137D01*
X008392Y021235D02*
X007783Y021235D01*
X010850Y021290D02*
X012510Y021290D01*
X012402Y021245D01*
X012265Y021108D01*
X012190Y020927D01*
X012190Y020173D01*
X012265Y019992D01*
X012390Y019867D01*
X012390Y019570D01*
X011660Y018840D01*
X010948Y018840D01*
X010970Y018892D01*
X010970Y019867D01*
X011095Y019992D01*
X011170Y020173D01*
X011170Y020927D01*
X011095Y021108D01*
X010958Y021245D01*
X010850Y021290D01*
X010968Y021235D02*
X011535Y021235D01*
X011515Y021228D02*
X011455Y021198D01*
X011400Y021158D01*
X011352Y021110D01*
X011312Y021055D01*
X011282Y020995D01*
X011261Y020931D01*
X011250Y020864D01*
X011250Y020584D01*
X011646Y020584D01*
X011646Y020516D01*
X011250Y020516D01*
X011250Y020236D01*
X011261Y020169D01*
X011282Y020105D01*
X011312Y020045D01*
X011352Y019990D01*
X011400Y019942D01*
X011455Y019902D01*
X011515Y019872D01*
X011579Y019851D01*
X011646Y019840D01*
X011646Y019840D01*
X011646Y020516D01*
X011714Y020516D01*
X011714Y020584D01*
X011646Y020584D01*
X011646Y021260D01*
X011579Y021249D01*
X011515Y021228D01*
X011646Y021235D02*
X011714Y021235D01*
X011714Y021260D02*
X011714Y021260D01*
X011781Y021249D01*
X011845Y021228D01*
X011905Y021198D01*
X011960Y021158D01*
X012008Y021110D01*
X012048Y021055D01*
X012078Y020995D01*
X012099Y020931D01*
X012110Y020864D01*
X012110Y020584D01*
X011714Y020584D01*
X011714Y021260D01*
X011646Y021260D02*
X011646Y021260D01*
X011646Y021137D02*
X011714Y021137D01*
X011714Y021038D02*
X011646Y021038D01*
X011646Y020940D02*
X011714Y020940D01*
X011714Y020841D02*
X011646Y020841D01*
X011646Y020743D02*
X011714Y020743D01*
X011714Y020644D02*
X011646Y020644D01*
X011646Y020546D02*
X011170Y020546D01*
X011170Y020644D02*
X011250Y020644D01*
X011250Y020743D02*
X011170Y020743D01*
X011170Y020841D02*
X011250Y020841D01*
X011263Y020940D02*
X011165Y020940D01*
X011124Y021038D02*
X011303Y021038D01*
X011378Y021137D02*
X011066Y021137D01*
X011170Y020447D02*
X011250Y020447D01*
X011250Y020349D02*
X011170Y020349D01*
X011170Y020250D02*
X011250Y020250D01*
X011266Y020152D02*
X011161Y020152D01*
X011121Y020053D02*
X011308Y020053D01*
X011387Y019955D02*
X011058Y019955D01*
X010970Y019856D02*
X011563Y019856D01*
X011646Y019856D02*
X011714Y019856D01*
X011714Y019840D02*
X011781Y019851D01*
X011845Y019872D01*
X011905Y019902D01*
X011960Y019942D01*
X012008Y019990D01*
X012048Y020045D01*
X012078Y020105D01*
X012099Y020169D01*
X012110Y020236D01*
X012110Y020516D01*
X011714Y020516D01*
X011714Y019840D01*
X011714Y019840D01*
X011797Y019856D02*
X012390Y019856D01*
X012390Y019758D02*
X010970Y019758D01*
X010970Y019659D02*
X012390Y019659D01*
X012380Y019561D02*
X010970Y019561D01*
X010970Y019462D02*
X012282Y019462D01*
X012183Y019364D02*
X010970Y019364D01*
X010970Y019265D02*
X012085Y019265D01*
X011986Y019167D02*
X010970Y019167D01*
X010970Y019068D02*
X011888Y019068D01*
X011789Y018970D02*
X010970Y018970D01*
X010961Y018871D02*
X011691Y018871D01*
X011646Y019955D02*
X011714Y019955D01*
X011714Y020053D02*
X011646Y020053D01*
X011646Y020152D02*
X011714Y020152D01*
X011714Y020250D02*
X011646Y020250D01*
X011646Y020349D02*
X011714Y020349D01*
X011714Y020447D02*
X011646Y020447D01*
X011714Y020546D02*
X012190Y020546D01*
X012190Y020644D02*
X012110Y020644D01*
X012110Y020743D02*
X012190Y020743D01*
X012190Y020841D02*
X012110Y020841D01*
X012097Y020940D02*
X012195Y020940D01*
X012236Y021038D02*
X012057Y021038D01*
X011982Y021137D02*
X012294Y021137D01*
X012392Y021235D02*
X011825Y021235D01*
X012110Y020447D02*
X012190Y020447D01*
X012190Y020349D02*
X012110Y020349D01*
X012110Y020250D02*
X012190Y020250D01*
X012199Y020152D02*
X012094Y020152D01*
X012052Y020053D02*
X012239Y020053D01*
X012302Y019955D02*
X011973Y019955D01*
X011780Y014741D02*
X011788Y014721D01*
X011951Y014558D01*
X012165Y014470D01*
X012395Y014470D01*
X012609Y014558D01*
X012772Y014721D01*
X012780Y014741D01*
X012788Y014721D01*
X012951Y014558D01*
X013165Y014470D01*
X013395Y014470D01*
X013609Y014558D01*
X013772Y014721D01*
X013780Y014741D01*
X013788Y014721D01*
X013951Y014558D01*
X014165Y014470D01*
X014395Y014470D01*
X014609Y014558D01*
X014772Y014721D01*
X014780Y014741D01*
X014788Y014721D01*
X014951Y014558D01*
X015165Y014470D01*
X015395Y014470D01*
X015609Y014558D01*
X015772Y014721D01*
X015780Y014741D01*
X015788Y014721D01*
X015951Y014558D01*
X016165Y014470D01*
X016395Y014470D01*
X016609Y014558D01*
X016772Y014721D01*
X016780Y014741D01*
X016788Y014721D01*
X016951Y014558D01*
X017165Y014470D01*
X017395Y014470D01*
X017609Y014558D01*
X017772Y014721D01*
X017780Y014741D01*
X017788Y014721D01*
X017951Y014558D01*
X018165Y014470D01*
X018395Y014470D01*
X018609Y014558D01*
X018772Y014721D01*
X018780Y014741D01*
X018788Y014721D01*
X018951Y014558D01*
X019165Y014470D01*
X019395Y014470D01*
X019609Y014558D01*
X019772Y014721D01*
X019780Y014741D01*
X019788Y014721D01*
X019951Y014558D01*
X020165Y014470D01*
X020395Y014470D01*
X020609Y014558D01*
X020772Y014721D01*
X020788Y014760D01*
X024838Y014760D01*
X024944Y014804D01*
X025026Y014886D01*
X026444Y016304D01*
X026444Y016304D01*
X026526Y016386D01*
X026570Y016492D01*
X026570Y019867D01*
X026695Y019992D01*
X026770Y020173D01*
X026770Y020927D01*
X026695Y021108D01*
X026558Y021245D01*
X026450Y021290D01*
X026572Y021290D01*
X027020Y020842D01*
X027020Y016398D01*
X027060Y016303D01*
X027133Y016230D01*
X028020Y015342D01*
X028020Y014958D01*
X027992Y015026D01*
X027756Y015262D01*
X027447Y015390D01*
X027113Y015390D01*
X026804Y015262D01*
X026568Y015026D01*
X026440Y014717D01*
X026440Y014383D01*
X026568Y014074D01*
X026802Y013840D01*
X023143Y013840D01*
X023045Y013938D01*
X022515Y013938D01*
X022392Y013815D01*
X022392Y013285D01*
X022515Y013162D01*
X023045Y013162D01*
X023143Y013260D01*
X026640Y013260D01*
X026976Y012924D01*
X026830Y012778D01*
X026543Y013065D01*
X026117Y013065D01*
X025892Y012840D01*
X011150Y012840D01*
X009570Y014420D01*
X009570Y014542D01*
X009609Y014558D01*
X009772Y014721D01*
X009780Y014741D01*
X009788Y014721D01*
X009951Y014558D01*
X010165Y014470D01*
X010395Y014470D01*
X010609Y014558D01*
X010772Y014721D01*
X010780Y014741D01*
X010788Y014721D01*
X010951Y014558D01*
X011165Y014470D01*
X011395Y014470D01*
X011609Y014558D01*
X011772Y014721D01*
X011780Y014741D01*
X011777Y014734D02*
X011783Y014734D01*
X011874Y014636D02*
X011686Y014636D01*
X011557Y014537D02*
X012003Y014537D01*
X012557Y014537D02*
X013003Y014537D01*
X012874Y014636D02*
X012686Y014636D01*
X012777Y014734D02*
X012783Y014734D01*
X013557Y014537D02*
X014003Y014537D01*
X013874Y014636D02*
X013686Y014636D01*
X013777Y014734D02*
X013783Y014734D01*
X014557Y014537D02*
X015003Y014537D01*
X014874Y014636D02*
X014686Y014636D01*
X014777Y014734D02*
X014783Y014734D01*
X015557Y014537D02*
X016003Y014537D01*
X015874Y014636D02*
X015686Y014636D01*
X015777Y014734D02*
X015783Y014734D01*
X016557Y014537D02*
X017003Y014537D01*
X016874Y014636D02*
X016686Y014636D01*
X016777Y014734D02*
X016783Y014734D01*
X017557Y014537D02*
X018003Y014537D01*
X017874Y014636D02*
X017686Y014636D01*
X017777Y014734D02*
X017783Y014734D01*
X018557Y014537D02*
X019003Y014537D01*
X018874Y014636D02*
X018686Y014636D01*
X018777Y014734D02*
X018783Y014734D01*
X019557Y014537D02*
X020003Y014537D01*
X019874Y014636D02*
X019686Y014636D01*
X019777Y014734D02*
X019783Y014734D01*
X020557Y014537D02*
X026440Y014537D01*
X026440Y014439D02*
X009570Y014439D01*
X009570Y014537D02*
X010003Y014537D01*
X009874Y014636D02*
X009686Y014636D01*
X009777Y014734D02*
X009783Y014734D01*
X009650Y014340D02*
X026458Y014340D01*
X026499Y014242D02*
X009749Y014242D01*
X009847Y014143D02*
X026539Y014143D01*
X026598Y014045D02*
X009946Y014045D01*
X010044Y013946D02*
X026696Y013946D01*
X026795Y013848D02*
X023136Y013848D01*
X023140Y013257D02*
X026643Y013257D01*
X026742Y013158D02*
X010832Y013158D01*
X010734Y013257D02*
X022420Y013257D01*
X022392Y013355D02*
X010635Y013355D01*
X010537Y013454D02*
X022392Y013454D01*
X022392Y013552D02*
X010438Y013552D01*
X010340Y013651D02*
X022392Y013651D01*
X022392Y013749D02*
X010241Y013749D01*
X010143Y013848D02*
X022424Y013848D01*
X020777Y014734D02*
X026447Y014734D01*
X026440Y014636D02*
X020686Y014636D01*
X024973Y014833D02*
X026488Y014833D01*
X026529Y014931D02*
X025071Y014931D01*
X025026Y014886D02*
X025026Y014886D01*
X025170Y015030D02*
X026572Y015030D01*
X026670Y015128D02*
X025268Y015128D01*
X025367Y015227D02*
X026769Y015227D01*
X026956Y015325D02*
X025465Y015325D01*
X025564Y015424D02*
X027939Y015424D01*
X028020Y015325D02*
X027604Y015325D01*
X027791Y015227D02*
X028020Y015227D01*
X028020Y015128D02*
X027890Y015128D01*
X027988Y015030D02*
X028020Y015030D01*
X027840Y015522D02*
X025662Y015522D01*
X025761Y015621D02*
X027742Y015621D01*
X027643Y015719D02*
X025859Y015719D01*
X025958Y015818D02*
X027545Y015818D01*
X027446Y015916D02*
X026056Y015916D01*
X026155Y016015D02*
X027348Y016015D01*
X027249Y016113D02*
X026253Y016113D01*
X026352Y016212D02*
X027151Y016212D01*
X027133Y016230D02*
X027133Y016230D01*
X027057Y016310D02*
X026450Y016310D01*
X026535Y016409D02*
X027020Y016409D01*
X027020Y016507D02*
X026570Y016507D01*
X026570Y016606D02*
X027020Y016606D01*
X027020Y016704D02*
X026570Y016704D01*
X026570Y016803D02*
X027020Y016803D01*
X027020Y016901D02*
X026570Y016901D01*
X026570Y017000D02*
X027020Y017000D01*
X027020Y017098D02*
X026570Y017098D01*
X026570Y017197D02*
X027020Y017197D01*
X027020Y017295D02*
X026570Y017295D01*
X026570Y017394D02*
X027020Y017394D01*
X027020Y017492D02*
X026570Y017492D01*
X026570Y017591D02*
X027020Y017591D01*
X027020Y017689D02*
X026570Y017689D01*
X026570Y017788D02*
X027020Y017788D01*
X027020Y017886D02*
X026570Y017886D01*
X026570Y017985D02*
X027020Y017985D01*
X027020Y018083D02*
X026570Y018083D01*
X026570Y018182D02*
X027020Y018182D01*
X027020Y018280D02*
X026570Y018280D01*
X026570Y018379D02*
X027020Y018379D01*
X027020Y018477D02*
X026570Y018477D01*
X026570Y018576D02*
X027020Y018576D01*
X027020Y018674D02*
X026570Y018674D01*
X026570Y018773D02*
X027020Y018773D01*
X027020Y018871D02*
X026570Y018871D01*
X026570Y018970D02*
X027020Y018970D01*
X027020Y019068D02*
X026570Y019068D01*
X026570Y019167D02*
X027020Y019167D01*
X027020Y019265D02*
X026570Y019265D01*
X026570Y019364D02*
X027020Y019364D01*
X027020Y019462D02*
X026570Y019462D01*
X026570Y019561D02*
X027020Y019561D01*
X027020Y019659D02*
X026570Y019659D01*
X026570Y019758D02*
X027020Y019758D01*
X027020Y019856D02*
X026570Y019856D01*
X026658Y019955D02*
X027020Y019955D01*
X027020Y020053D02*
X026721Y020053D01*
X026761Y020152D02*
X027020Y020152D01*
X027020Y020250D02*
X026770Y020250D01*
X026770Y020349D02*
X027020Y020349D01*
X027020Y020447D02*
X026770Y020447D01*
X026770Y020546D02*
X027020Y020546D01*
X027020Y020644D02*
X026770Y020644D01*
X026770Y020743D02*
X027020Y020743D01*
X027020Y020841D02*
X026770Y020841D01*
X026765Y020940D02*
X026923Y020940D01*
X026824Y021038D02*
X026724Y021038D01*
X026726Y021137D02*
X026666Y021137D01*
X026627Y021235D02*
X026568Y021235D01*
X027962Y014045D02*
X028020Y014045D01*
X028020Y013946D02*
X027864Y013946D01*
X027765Y013848D02*
X028020Y013848D01*
X028020Y013749D02*
X027541Y013749D01*
X027267Y013454D02*
X028020Y013454D01*
X028020Y013552D02*
X027168Y013552D01*
X027070Y013651D02*
X028020Y013651D01*
X028020Y013355D02*
X027365Y013355D01*
X027464Y013257D02*
X028020Y013257D01*
X028020Y013158D02*
X027562Y013158D01*
X027611Y013060D02*
X028020Y013060D01*
X028020Y012961D02*
X027647Y012961D01*
X027746Y012863D02*
X028020Y012863D01*
X028020Y012764D02*
X027844Y012764D01*
X027845Y012666D02*
X028020Y012666D01*
X028020Y012567D02*
X027845Y012567D01*
X027845Y012469D02*
X028020Y012469D01*
X028020Y012370D02*
X027845Y012370D01*
X027780Y012272D02*
X028020Y012272D01*
X028020Y012173D02*
X027682Y012173D01*
X027583Y012075D02*
X028020Y012075D01*
X028020Y011976D02*
X027632Y011976D01*
X027731Y011878D02*
X028020Y011878D01*
X028020Y011779D02*
X027829Y011779D01*
X027845Y011681D02*
X028020Y011681D01*
X028020Y011582D02*
X027845Y011582D01*
X027845Y011484D02*
X028020Y011484D01*
X028020Y011385D02*
X027845Y011385D01*
X027795Y011287D02*
X028020Y011287D01*
X028020Y011188D02*
X027697Y011188D01*
X027598Y011090D02*
X028020Y011090D01*
X028020Y010991D02*
X027533Y010991D01*
X027519Y011005D02*
X027374Y011005D01*
X027374Y010594D01*
X027286Y010594D01*
X027286Y011005D01*
X027141Y011005D01*
X026875Y010739D01*
X026875Y010594D01*
X027286Y010594D01*
X027286Y010506D01*
X026875Y010506D01*
X026875Y010361D01*
X027141Y010095D01*
X027286Y010095D01*
X027286Y010506D01*
X027374Y010506D01*
X027374Y010594D01*
X027785Y010594D01*
X027785Y010739D01*
X027519Y011005D01*
X027374Y010991D02*
X027286Y010991D01*
X027286Y010893D02*
X027374Y010893D01*
X027374Y010794D02*
X027286Y010794D01*
X027286Y010696D02*
X027374Y010696D01*
X027374Y010597D02*
X027286Y010597D01*
X027286Y010499D02*
X027374Y010499D01*
X027374Y010506D02*
X027374Y010095D01*
X027519Y010095D01*
X027785Y010361D01*
X027785Y010506D01*
X027374Y010506D01*
X027374Y010400D02*
X027286Y010400D01*
X027286Y010302D02*
X027374Y010302D01*
X027374Y010203D02*
X027286Y010203D01*
X027286Y010105D02*
X027374Y010105D01*
X027528Y010105D02*
X028020Y010105D01*
X028020Y010203D02*
X027627Y010203D01*
X027725Y010302D02*
X028020Y010302D01*
X028020Y010400D02*
X027785Y010400D01*
X027785Y010499D02*
X028020Y010499D01*
X028020Y010597D02*
X027785Y010597D01*
X027785Y010696D02*
X028020Y010696D01*
X028020Y010794D02*
X027730Y010794D01*
X027631Y010893D02*
X028020Y010893D01*
X027127Y010991D02*
X026617Y010991D01*
X026598Y011090D02*
X027062Y011090D01*
X026963Y011188D02*
X026697Y011188D01*
X026795Y011287D02*
X026865Y011287D01*
X026716Y010893D02*
X027029Y010893D01*
X026930Y010794D02*
X026814Y010794D01*
X026845Y010696D02*
X026875Y010696D01*
X026875Y010597D02*
X026845Y010597D01*
X026845Y010499D02*
X026875Y010499D01*
X026875Y010400D02*
X026845Y010400D01*
X026810Y010302D02*
X026935Y010302D01*
X027033Y010203D02*
X026712Y010203D01*
X026613Y010105D02*
X027132Y010105D01*
X026912Y009809D02*
X028020Y009809D01*
X028020Y009711D02*
X027030Y009711D01*
X027128Y009612D02*
X028020Y009612D01*
X028020Y009514D02*
X027227Y009514D01*
X027325Y009415D02*
X028020Y009415D01*
X028020Y009317D02*
X027424Y009317D01*
X027522Y009218D02*
X028020Y009218D01*
X028020Y009120D02*
X027621Y009120D01*
X027719Y009021D02*
X028020Y009021D01*
X028020Y008923D02*
X027818Y008923D01*
X027916Y008824D02*
X028020Y008824D01*
X028015Y008726D02*
X028020Y008726D01*
X028020Y009908D02*
X026576Y009908D01*
X026047Y010105D02*
X025379Y010105D01*
X025418Y010006D02*
X028020Y010006D01*
X025984Y009908D02*
X025418Y009908D01*
X025431Y009809D02*
X025892Y009809D01*
X025892Y009711D02*
X025530Y009711D01*
X025628Y009612D02*
X025892Y009612D01*
X025892Y009514D02*
X025727Y009514D01*
X025825Y009415D02*
X025892Y009415D01*
X025535Y011385D02*
X007418Y011385D01*
X007418Y011287D02*
X011356Y011287D01*
X011258Y011188D02*
X007418Y011188D01*
X007418Y011090D02*
X011159Y011090D01*
X011061Y010991D02*
X007374Y010991D01*
X007418Y011484D02*
X025436Y011484D01*
X025338Y011582D02*
X007401Y011582D01*
X006740Y011681D02*
X005070Y011681D01*
X005070Y011779D02*
X006740Y011779D01*
X006740Y011878D02*
X005070Y011878D01*
X005070Y011976D02*
X006740Y011976D01*
X006659Y011582D02*
X005070Y011582D01*
X005070Y011484D02*
X006642Y011484D01*
X006642Y011385D02*
X005070Y011385D01*
X005070Y011287D02*
X006642Y011287D01*
X006642Y011188D02*
X005070Y011188D01*
X005070Y011090D02*
X006642Y011090D01*
X006686Y010991D02*
X005070Y010991D01*
X005070Y010893D02*
X010962Y010893D01*
X010864Y010794D02*
X005070Y010794D01*
X005070Y010696D02*
X010765Y010696D01*
X010667Y010597D02*
X005070Y010597D01*
X005070Y010499D02*
X010568Y010499D01*
X010470Y010400D02*
X005070Y010400D01*
X005070Y010302D02*
X010371Y010302D01*
X010273Y010203D02*
X005070Y010203D01*
X005070Y010105D02*
X010174Y010105D01*
X010076Y010006D02*
X005070Y010006D01*
X005083Y009908D02*
X009977Y009908D01*
X009879Y009809D02*
X005181Y009809D01*
X005280Y009711D02*
X009780Y009711D01*
X009682Y009612D02*
X005378Y009612D01*
X005477Y009514D02*
X009583Y009514D01*
X009485Y009415D02*
X005575Y009415D01*
X005674Y009317D02*
X009386Y009317D01*
X009288Y009218D02*
X005772Y009218D01*
X005871Y009120D02*
X009189Y009120D01*
X009091Y009021D02*
X005969Y009021D01*
X006068Y008923D02*
X008992Y008923D01*
X008894Y008824D02*
X006166Y008824D01*
X006265Y008726D02*
X008795Y008726D01*
X008697Y008627D02*
X006363Y008627D01*
X005937Y008233D02*
X001540Y008233D01*
X001540Y008135D02*
X006035Y008135D01*
X006159Y008036D02*
X001540Y008036D01*
X001540Y007938D02*
X007732Y007938D01*
X007831Y007839D02*
X001540Y007839D01*
X001540Y007741D02*
X007929Y007741D01*
X007990Y007642D02*
X001540Y007642D01*
X001540Y007544D02*
X006956Y007544D01*
X006855Y007445D02*
X001540Y007445D01*
X001540Y007347D02*
X006775Y007347D01*
X006734Y007248D02*
X001540Y007248D01*
X001540Y007150D02*
X006700Y007150D01*
X006700Y007051D02*
X001540Y007051D01*
X001540Y006953D02*
X006700Y006953D01*
X006733Y006854D02*
X001540Y006854D01*
X001540Y006756D02*
X006774Y006756D01*
X006853Y006657D02*
X001540Y006657D01*
X001540Y006559D02*
X006951Y006559D01*
X007609Y006559D02*
X007951Y006559D01*
X007853Y006657D02*
X007707Y006657D01*
X007845Y006066D02*
X001540Y006066D01*
X001540Y005968D02*
X007716Y005968D01*
X007607Y005869D02*
X001540Y005869D01*
X001540Y005771D02*
X007534Y005771D01*
X007490Y005672D02*
X001540Y005672D01*
X001540Y005574D02*
X007446Y005574D01*
X007419Y005475D02*
X001540Y005475D01*
X001540Y005377D02*
X007419Y005377D01*
X007419Y005278D02*
X001540Y005278D01*
X001540Y005180D02*
X007419Y005180D01*
X007459Y005081D02*
X001540Y005081D01*
X001540Y004983D02*
X007503Y004983D01*
X007546Y004884D02*
X001540Y004884D01*
X001540Y004786D02*
X007637Y004786D01*
X007118Y003998D02*
X011204Y003998D01*
X011303Y004096D02*
X006849Y004096D01*
X006792Y004195D02*
X011401Y004195D01*
X011500Y004293D02*
X006730Y004293D01*
X006631Y004392D02*
X011598Y004392D01*
X011106Y003899D02*
X007245Y003899D01*
X007343Y003801D02*
X011007Y003801D01*
X010942Y003702D02*
X007442Y003702D01*
X007540Y003604D02*
X010910Y003604D01*
X010910Y003505D02*
X007639Y003505D01*
X007737Y003407D02*
X010910Y003407D01*
X010910Y003308D02*
X007836Y003308D01*
X007934Y003210D02*
X010910Y003210D01*
X010910Y003111D02*
X008033Y003111D01*
X008131Y003013D02*
X010910Y003013D01*
X010910Y002914D02*
X008230Y002914D01*
X008328Y002816D02*
X010910Y002816D01*
X010910Y002717D02*
X008427Y002717D01*
X008525Y002619D02*
X010910Y002619D01*
X010910Y002520D02*
X008624Y002520D01*
X008722Y002422D02*
X010894Y002422D01*
X011448Y001929D02*
X011791Y001929D01*
X011790Y001831D02*
X011350Y001831D01*
X011329Y001732D02*
X011790Y001732D01*
X011790Y001634D02*
X011329Y001634D01*
X011329Y001535D02*
X011790Y001535D01*
X011790Y001437D02*
X011329Y001437D01*
X011329Y001338D02*
X011790Y001338D01*
X011790Y001240D02*
X011329Y001240D01*
X011329Y001141D02*
X011803Y001141D01*
X011844Y001043D02*
X011281Y001043D01*
X011913Y000944D02*
X007362Y000944D01*
X007460Y001043D02*
X008279Y001043D01*
X008231Y001141D02*
X007520Y001141D01*
X007561Y001240D02*
X008231Y001240D01*
X008231Y001338D02*
X007601Y001338D01*
X007620Y001437D02*
X008231Y001437D01*
X008231Y001535D02*
X007620Y001535D01*
X007620Y001634D02*
X008231Y001634D01*
X008231Y001732D02*
X007614Y001732D01*
X007573Y001831D02*
X008154Y001831D01*
X008055Y001929D02*
X007532Y001929D01*
X007490Y002028D02*
X007957Y002028D01*
X007858Y002126D02*
X007392Y002126D01*
X007293Y002225D02*
X007760Y002225D01*
X007661Y002323D02*
X007109Y002323D01*
X007366Y002619D02*
X006214Y002619D01*
X006432Y002717D02*
X007267Y002717D01*
X007169Y002816D02*
X006578Y002816D01*
X006677Y002914D02*
X007070Y002914D01*
X006972Y003013D02*
X006761Y003013D01*
X006818Y003111D02*
X006873Y003111D01*
X007464Y002520D02*
X005386Y002520D01*
X005480Y002422D02*
X007563Y002422D01*
X006451Y002323D02*
X005552Y002323D01*
X005608Y002225D02*
X006267Y002225D01*
X006168Y002126D02*
X005651Y002126D01*
X005682Y002028D02*
X006070Y002028D01*
X006028Y001929D02*
X005702Y001929D01*
X005713Y001831D02*
X005987Y001831D01*
X005573Y002619D02*
X005257Y002619D01*
X004763Y002619D02*
X004663Y002619D01*
X004663Y002717D02*
X004763Y002717D01*
X004763Y002520D02*
X004663Y002520D01*
X004663Y002422D02*
X004763Y002422D01*
X004763Y002323D02*
X004663Y002323D01*
X004663Y002225D02*
X004763Y002225D01*
X004763Y002126D02*
X004663Y002126D01*
X004663Y002028D02*
X004763Y002028D01*
X004763Y001929D02*
X004663Y001929D01*
X004364Y002717D02*
X003940Y002717D01*
X003581Y002717D02*
X003481Y002717D01*
X003481Y002816D02*
X003581Y002816D01*
X003581Y002914D02*
X003481Y002914D01*
X003481Y003013D02*
X003581Y003013D01*
X003581Y003111D02*
X003481Y003111D01*
X003481Y003210D02*
X003581Y003210D01*
X003581Y003308D02*
X003481Y003308D01*
X003481Y003407D02*
X003581Y003407D01*
X003581Y003505D02*
X003481Y003505D01*
X003481Y003801D02*
X003581Y003801D01*
X003581Y003899D02*
X003481Y003899D01*
X003481Y003998D02*
X003581Y003998D01*
X003581Y004096D02*
X003481Y004096D01*
X003481Y004195D02*
X003581Y004195D01*
X003581Y004293D02*
X003481Y004293D01*
X003481Y004392D02*
X003581Y004392D01*
X003581Y004490D02*
X003481Y004490D01*
X003481Y004589D02*
X003581Y004589D01*
X003820Y004589D02*
X005434Y004589D01*
X005263Y004490D02*
X004042Y004490D01*
X004180Y004392D02*
X005156Y004392D01*
X005058Y004293D02*
X004282Y004293D01*
X004358Y004195D02*
X004996Y004195D01*
X004939Y004096D02*
X004417Y004096D01*
X004462Y003998D02*
X004895Y003998D01*
X004868Y003899D02*
X004496Y003899D01*
X004518Y003801D02*
X004842Y003801D01*
X003123Y002717D02*
X001540Y002717D01*
X001540Y002816D02*
X002949Y002816D01*
X002833Y002914D02*
X001540Y002914D01*
X001540Y003013D02*
X002745Y003013D01*
X002677Y003111D02*
X001540Y003111D01*
X001540Y003210D02*
X002624Y003210D01*
X002585Y003308D02*
X001540Y003308D01*
X001540Y003407D02*
X002557Y003407D01*
X002539Y003505D02*
X001540Y003505D01*
X007263Y000846D02*
X012024Y000846D01*
X012536Y000846D02*
X013024Y000846D01*
X012913Y000944D02*
X012647Y000944D01*
X012716Y001043D02*
X012844Y001043D01*
X012803Y001141D02*
X012757Y001141D01*
X012770Y001240D02*
X012790Y001240D01*
X012790Y001338D02*
X012770Y001338D01*
X012770Y001437D02*
X012790Y001437D01*
X012790Y001535D02*
X012770Y001535D01*
X012770Y001634D02*
X012790Y001634D01*
X012790Y001732D02*
X012770Y001732D01*
X012770Y001831D02*
X012790Y001831D01*
X012791Y001929D02*
X012769Y001929D01*
X012729Y002028D02*
X012831Y002028D01*
X012883Y002126D02*
X012677Y002126D01*
X012578Y002225D02*
X012982Y002225D01*
X013143Y002323D02*
X011650Y002323D01*
X011650Y002225D02*
X011982Y002225D01*
X011883Y002126D02*
X011615Y002126D01*
X011547Y002028D02*
X011831Y002028D01*
X011650Y002422D02*
X013241Y002422D01*
X013340Y002520D02*
X011650Y002520D01*
X011650Y002619D02*
X013438Y002619D01*
X013537Y002717D02*
X011650Y002717D01*
X011650Y002816D02*
X013663Y002816D01*
X010077Y002323D02*
X009483Y002323D01*
X009581Y002225D02*
X009979Y002225D01*
X009964Y002126D02*
X009596Y002126D01*
X009596Y002028D02*
X009964Y002028D01*
X009964Y001929D02*
X009596Y001929D01*
X009596Y001831D02*
X009964Y001831D01*
X009964Y001732D02*
X009596Y001732D01*
X009596Y001634D02*
X009964Y001634D01*
X009964Y001535D02*
X009596Y001535D01*
X009596Y001437D02*
X009964Y001437D01*
X009964Y001338D02*
X009596Y001338D01*
X009596Y001240D02*
X009964Y001240D01*
X009964Y001141D02*
X009596Y001141D01*
X009548Y001043D02*
X010012Y001043D01*
X009951Y006559D02*
X009609Y006559D01*
X009707Y006657D02*
X009853Y006657D01*
X010609Y006559D02*
X010951Y006559D01*
X010853Y006657D02*
X010707Y006657D01*
X011609Y006559D02*
X011951Y006559D01*
X011853Y006657D02*
X011707Y006657D01*
X012609Y006559D02*
X012951Y006559D01*
X012853Y006657D02*
X012707Y006657D01*
X013609Y006559D02*
X013951Y006559D01*
X013853Y006657D02*
X013707Y006657D01*
X014609Y006559D02*
X014951Y006559D01*
X014853Y006657D02*
X014707Y006657D01*
X008951Y006559D02*
X008609Y006559D01*
X008707Y006657D02*
X008853Y006657D01*
X007956Y007544D02*
X007604Y007544D01*
X007705Y007445D02*
X007855Y007445D01*
X008257Y008233D02*
X008303Y008233D01*
X008401Y008332D02*
X008159Y008332D01*
X008060Y008430D02*
X008500Y008430D01*
X008598Y008529D02*
X007962Y008529D01*
X005838Y008332D02*
X001540Y008332D01*
X001540Y008430D02*
X005740Y008430D01*
X005641Y008529D02*
X001540Y008529D01*
X001540Y008627D02*
X005543Y008627D01*
X005444Y008726D02*
X001540Y008726D01*
X001540Y008824D02*
X005346Y008824D01*
X005247Y008923D02*
X001540Y008923D01*
X001540Y009021D02*
X005149Y009021D01*
X005050Y009120D02*
X001540Y009120D01*
X001540Y009218D02*
X004952Y009218D01*
X004853Y009317D02*
X001540Y009317D01*
X001540Y009415D02*
X004755Y009415D01*
X004656Y009514D02*
X001540Y009514D01*
X001540Y009612D02*
X004558Y009612D01*
X004503Y009711D02*
X001540Y009711D01*
X001540Y009809D02*
X004490Y009809D01*
X004490Y009908D02*
X001540Y009908D01*
X001540Y010006D02*
X004490Y010006D01*
X004490Y010105D02*
X001540Y010105D01*
X001540Y010203D02*
X004490Y010203D01*
X004490Y010302D02*
X001540Y010302D01*
X001540Y010400D02*
X004490Y010400D01*
X004490Y010499D02*
X001540Y010499D01*
X001540Y010597D02*
X004490Y010597D01*
X004490Y010696D02*
X001540Y010696D01*
X001540Y010794D02*
X004490Y010794D01*
X004490Y010893D02*
X001540Y010893D01*
X001540Y010991D02*
X004490Y010991D01*
X004490Y011090D02*
X001540Y011090D01*
X001540Y011188D02*
X004490Y011188D01*
X004490Y011287D02*
X001540Y011287D01*
X001540Y011385D02*
X004490Y011385D01*
X004490Y011484D02*
X001540Y011484D01*
X001540Y011582D02*
X004490Y011582D01*
X004490Y011681D02*
X001540Y011681D01*
X001540Y011779D02*
X004490Y011779D01*
X004490Y011878D02*
X001540Y011878D01*
X001540Y011976D02*
X004490Y011976D01*
X004490Y012075D02*
X001540Y012075D01*
X001540Y012173D02*
X004490Y012173D01*
X004490Y012272D02*
X001540Y012272D01*
X001540Y012370D02*
X004490Y012370D01*
X004490Y012469D02*
X001540Y012469D01*
X001540Y012567D02*
X004490Y012567D01*
X004490Y012666D02*
X001540Y012666D01*
X001540Y012764D02*
X004490Y012764D01*
X004490Y012863D02*
X001540Y012863D01*
X001540Y012961D02*
X004490Y012961D01*
X004490Y013060D02*
X001540Y013060D01*
X001540Y013158D02*
X004490Y013158D01*
X004490Y013257D02*
X001540Y013257D01*
X001540Y013355D02*
X004490Y013355D01*
X010557Y014537D02*
X011003Y014537D01*
X010874Y014636D02*
X010686Y014636D01*
X010777Y014734D02*
X010783Y014734D01*
X010931Y013060D02*
X026111Y013060D01*
X026013Y012961D02*
X011029Y012961D01*
X011128Y012863D02*
X025914Y012863D01*
X026549Y013060D02*
X026840Y013060D01*
X026939Y012961D02*
X026647Y012961D01*
X026746Y012863D02*
X026914Y012863D01*
X026971Y013749D02*
X027019Y013749D01*
D11*
X026650Y014550D02*
X026652Y014600D01*
X026658Y014650D01*
X026668Y014699D01*
X026682Y014747D01*
X026699Y014794D01*
X026720Y014839D01*
X026745Y014883D01*
X026773Y014924D01*
X026805Y014963D01*
X026839Y015000D01*
X026876Y015034D01*
X026916Y015064D01*
X026958Y015091D01*
X027002Y015115D01*
X027048Y015136D01*
X027095Y015152D01*
X027143Y015165D01*
X027193Y015174D01*
X027242Y015179D01*
X027293Y015180D01*
X027343Y015177D01*
X027392Y015170D01*
X027441Y015159D01*
X027489Y015144D01*
X027535Y015126D01*
X027580Y015104D01*
X027623Y015078D01*
X027664Y015049D01*
X027703Y015017D01*
X027739Y014982D01*
X027771Y014944D01*
X027801Y014904D01*
X027828Y014861D01*
X027851Y014817D01*
X027870Y014771D01*
X027886Y014723D01*
X027898Y014674D01*
X027906Y014625D01*
X027910Y014575D01*
X027910Y014525D01*
X027906Y014475D01*
X027898Y014426D01*
X027886Y014377D01*
X027870Y014329D01*
X027851Y014283D01*
X027828Y014239D01*
X027801Y014196D01*
X027771Y014156D01*
X027739Y014118D01*
X027703Y014083D01*
X027664Y014051D01*
X027623Y014022D01*
X027580Y013996D01*
X027535Y013974D01*
X027489Y013956D01*
X027441Y013941D01*
X027392Y013930D01*
X027343Y013923D01*
X027293Y013920D01*
X027242Y013921D01*
X027193Y013926D01*
X027143Y013935D01*
X027095Y013948D01*
X027048Y013964D01*
X027002Y013985D01*
X026958Y014009D01*
X026916Y014036D01*
X026876Y014066D01*
X026839Y014100D01*
X026805Y014137D01*
X026773Y014176D01*
X026745Y014217D01*
X026720Y014261D01*
X026699Y014306D01*
X026682Y014353D01*
X026668Y014401D01*
X026658Y014450D01*
X026652Y014500D01*
X026650Y014550D01*
X025613Y007441D02*
X025615Y007466D01*
X025621Y007491D01*
X025630Y007515D01*
X025643Y007537D01*
X025660Y007557D01*
X025679Y007574D01*
X025700Y007588D01*
X025724Y007598D01*
X025748Y007605D01*
X025774Y007608D01*
X025799Y007607D01*
X025824Y007602D01*
X025848Y007593D01*
X025871Y007581D01*
X025891Y007566D01*
X025909Y007547D01*
X025924Y007526D01*
X025935Y007503D01*
X025943Y007479D01*
X025947Y007454D01*
X025947Y007428D01*
X025943Y007403D01*
X025935Y007379D01*
X025924Y007356D01*
X025909Y007335D01*
X025891Y007316D01*
X025871Y007301D01*
X025848Y007289D01*
X025824Y007280D01*
X025799Y007275D01*
X025774Y007274D01*
X025748Y007277D01*
X025724Y007284D01*
X025700Y007294D01*
X025679Y007308D01*
X025660Y007325D01*
X025643Y007345D01*
X025630Y007367D01*
X025621Y007391D01*
X025615Y007416D01*
X025613Y007441D01*
X025613Y006259D02*
X025615Y006284D01*
X025621Y006309D01*
X025630Y006333D01*
X025643Y006355D01*
X025660Y006375D01*
X025679Y006392D01*
X025700Y006406D01*
X025724Y006416D01*
X025748Y006423D01*
X025774Y006426D01*
X025799Y006425D01*
X025824Y006420D01*
X025848Y006411D01*
X025871Y006399D01*
X025891Y006384D01*
X025909Y006365D01*
X025924Y006344D01*
X025935Y006321D01*
X025943Y006297D01*
X025947Y006272D01*
X025947Y006246D01*
X025943Y006221D01*
X025935Y006197D01*
X025924Y006174D01*
X025909Y006153D01*
X025891Y006134D01*
X025871Y006119D01*
X025848Y006107D01*
X025824Y006098D01*
X025799Y006093D01*
X025774Y006092D01*
X025748Y006095D01*
X025724Y006102D01*
X025700Y006112D01*
X025679Y006126D01*
X025660Y006143D01*
X025643Y006163D01*
X025630Y006185D01*
X025621Y006209D01*
X025615Y006234D01*
X025613Y006259D01*
X026650Y003550D02*
X026652Y003600D01*
X026658Y003650D01*
X026668Y003699D01*
X026682Y003747D01*
X026699Y003794D01*
X026720Y003839D01*
X026745Y003883D01*
X026773Y003924D01*
X026805Y003963D01*
X026839Y004000D01*
X026876Y004034D01*
X026916Y004064D01*
X026958Y004091D01*
X027002Y004115D01*
X027048Y004136D01*
X027095Y004152D01*
X027143Y004165D01*
X027193Y004174D01*
X027242Y004179D01*
X027293Y004180D01*
X027343Y004177D01*
X027392Y004170D01*
X027441Y004159D01*
X027489Y004144D01*
X027535Y004126D01*
X027580Y004104D01*
X027623Y004078D01*
X027664Y004049D01*
X027703Y004017D01*
X027739Y003982D01*
X027771Y003944D01*
X027801Y003904D01*
X027828Y003861D01*
X027851Y003817D01*
X027870Y003771D01*
X027886Y003723D01*
X027898Y003674D01*
X027906Y003625D01*
X027910Y003575D01*
X027910Y003525D01*
X027906Y003475D01*
X027898Y003426D01*
X027886Y003377D01*
X027870Y003329D01*
X027851Y003283D01*
X027828Y003239D01*
X027801Y003196D01*
X027771Y003156D01*
X027739Y003118D01*
X027703Y003083D01*
X027664Y003051D01*
X027623Y003022D01*
X027580Y002996D01*
X027535Y002974D01*
X027489Y002956D01*
X027441Y002941D01*
X027392Y002930D01*
X027343Y002923D01*
X027293Y002920D01*
X027242Y002921D01*
X027193Y002926D01*
X027143Y002935D01*
X027095Y002948D01*
X027048Y002964D01*
X027002Y002985D01*
X026958Y003009D01*
X026916Y003036D01*
X026876Y003066D01*
X026839Y003100D01*
X026805Y003137D01*
X026773Y003176D01*
X026745Y003217D01*
X026720Y003261D01*
X026699Y003306D01*
X026682Y003353D01*
X026668Y003401D01*
X026658Y003450D01*
X026652Y003500D01*
X026650Y003550D01*
X006150Y001550D02*
X006152Y001600D01*
X006158Y001650D01*
X006168Y001699D01*
X006182Y001747D01*
X006199Y001794D01*
X006220Y001839D01*
X006245Y001883D01*
X006273Y001924D01*
X006305Y001963D01*
X006339Y002000D01*
X006376Y002034D01*
X006416Y002064D01*
X006458Y002091D01*
X006502Y002115D01*
X006548Y002136D01*
X006595Y002152D01*
X006643Y002165D01*
X006693Y002174D01*
X006742Y002179D01*
X006793Y002180D01*
X006843Y002177D01*
X006892Y002170D01*
X006941Y002159D01*
X006989Y002144D01*
X007035Y002126D01*
X007080Y002104D01*
X007123Y002078D01*
X007164Y002049D01*
X007203Y002017D01*
X007239Y001982D01*
X007271Y001944D01*
X007301Y001904D01*
X007328Y001861D01*
X007351Y001817D01*
X007370Y001771D01*
X007386Y001723D01*
X007398Y001674D01*
X007406Y001625D01*
X007410Y001575D01*
X007410Y001525D01*
X007406Y001475D01*
X007398Y001426D01*
X007386Y001377D01*
X007370Y001329D01*
X007351Y001283D01*
X007328Y001239D01*
X007301Y001196D01*
X007271Y001156D01*
X007239Y001118D01*
X007203Y001083D01*
X007164Y001051D01*
X007123Y001022D01*
X007080Y000996D01*
X007035Y000974D01*
X006989Y000956D01*
X006941Y000941D01*
X006892Y000930D01*
X006843Y000923D01*
X006793Y000920D01*
X006742Y000921D01*
X006693Y000926D01*
X006643Y000935D01*
X006595Y000948D01*
X006548Y000964D01*
X006502Y000985D01*
X006458Y001009D01*
X006416Y001036D01*
X006376Y001066D01*
X006339Y001100D01*
X006305Y001137D01*
X006273Y001176D01*
X006245Y001217D01*
X006220Y001261D01*
X006199Y001306D01*
X006182Y001353D01*
X006168Y001401D01*
X006158Y001450D01*
X006152Y001500D01*
X006150Y001550D01*
X006650Y020550D02*
X006652Y020600D01*
X006658Y020650D01*
X006668Y020699D01*
X006682Y020747D01*
X006699Y020794D01*
X006720Y020839D01*
X006745Y020883D01*
X006773Y020924D01*
X006805Y020963D01*
X006839Y021000D01*
X006876Y021034D01*
X006916Y021064D01*
X006958Y021091D01*
X007002Y021115D01*
X007048Y021136D01*
X007095Y021152D01*
X007143Y021165D01*
X007193Y021174D01*
X007242Y021179D01*
X007293Y021180D01*
X007343Y021177D01*
X007392Y021170D01*
X007441Y021159D01*
X007489Y021144D01*
X007535Y021126D01*
X007580Y021104D01*
X007623Y021078D01*
X007664Y021049D01*
X007703Y021017D01*
X007739Y020982D01*
X007771Y020944D01*
X007801Y020904D01*
X007828Y020861D01*
X007851Y020817D01*
X007870Y020771D01*
X007886Y020723D01*
X007898Y020674D01*
X007906Y020625D01*
X007910Y020575D01*
X007910Y020525D01*
X007906Y020475D01*
X007898Y020426D01*
X007886Y020377D01*
X007870Y020329D01*
X007851Y020283D01*
X007828Y020239D01*
X007801Y020196D01*
X007771Y020156D01*
X007739Y020118D01*
X007703Y020083D01*
X007664Y020051D01*
X007623Y020022D01*
X007580Y019996D01*
X007535Y019974D01*
X007489Y019956D01*
X007441Y019941D01*
X007392Y019930D01*
X007343Y019923D01*
X007293Y019920D01*
X007242Y019921D01*
X007193Y019926D01*
X007143Y019935D01*
X007095Y019948D01*
X007048Y019964D01*
X007002Y019985D01*
X006958Y020009D01*
X006916Y020036D01*
X006876Y020066D01*
X006839Y020100D01*
X006805Y020137D01*
X006773Y020176D01*
X006745Y020217D01*
X006720Y020261D01*
X006699Y020306D01*
X006682Y020353D01*
X006668Y020401D01*
X006658Y020450D01*
X006652Y020500D01*
X006650Y020550D01*
D12*
X026330Y012550D03*
X026330Y011550D03*
X027330Y011550D03*
X027330Y012550D03*
X027330Y010550D03*
X026330Y010550D03*
D13*
X026280Y001830D02*
X026280Y001270D01*
X025280Y001270D02*
X025280Y001830D01*
X024280Y001830D02*
X024280Y001270D01*
X023280Y001270D02*
X023280Y001830D01*
X022280Y001830D02*
X022280Y001270D01*
X021280Y001270D02*
X021280Y001830D01*
X019280Y001830D02*
X019280Y001270D01*
X018280Y001270D02*
X018280Y001830D01*
X017280Y001830D02*
X017280Y001270D01*
X016280Y001270D02*
X016280Y001830D01*
X015280Y001830D02*
X015280Y001270D01*
X014280Y001270D02*
X014280Y001830D01*
X013280Y001830D02*
X013280Y001270D01*
X012280Y001270D02*
X012280Y001830D01*
X012680Y020270D02*
X012680Y020830D01*
X011680Y020830D02*
X011680Y020270D01*
X010680Y020270D02*
X010680Y020830D01*
X009680Y020830D02*
X009680Y020270D01*
X008680Y020270D02*
X008680Y020830D01*
X013680Y020830D02*
X013680Y020270D01*
X014680Y020270D02*
X014680Y020830D01*
X015680Y020830D02*
X015680Y020270D01*
X016680Y020270D02*
X016680Y020830D01*
X017680Y020830D02*
X017680Y020270D01*
X019280Y020270D02*
X019280Y020830D01*
X020280Y020830D02*
X020280Y020270D01*
X021280Y020270D02*
X021280Y020830D01*
X022280Y020830D02*
X022280Y020270D01*
X023280Y020270D02*
X023280Y020830D01*
X024280Y020830D02*
X024280Y020270D01*
X025280Y020270D02*
X025280Y020830D01*
X026280Y020830D02*
X026280Y020270D01*
D14*
X010646Y001650D03*
X008914Y001650D03*
D15*
X008227Y005341D03*
X003780Y020200D03*
D16*
X002400Y019766D02*
X001852Y019766D01*
X001852Y020234D01*
X002400Y020234D01*
X002400Y019766D01*
X002400Y019848D02*
X001852Y019848D01*
X001852Y019930D02*
X002400Y019930D01*
X002400Y020012D02*
X001852Y020012D01*
X001852Y020094D02*
X002400Y020094D01*
X002400Y020176D02*
X001852Y020176D01*
X001852Y020652D02*
X002400Y020652D01*
X001852Y020652D02*
X001852Y021120D01*
X002400Y021120D01*
X002400Y020652D01*
X002400Y020734D02*
X001852Y020734D01*
X001852Y020816D02*
X002400Y020816D01*
X002400Y020898D02*
X001852Y020898D01*
X001852Y020980D02*
X002400Y020980D01*
X002400Y021062D02*
X001852Y021062D01*
X001852Y018880D02*
X002400Y018880D01*
X001852Y018880D02*
X001852Y019348D01*
X002400Y019348D01*
X002400Y018880D01*
X002400Y018962D02*
X001852Y018962D01*
X001852Y019044D02*
X002400Y019044D01*
X002400Y019126D02*
X001852Y019126D01*
X001852Y019208D02*
X002400Y019208D01*
X002400Y019290D02*
X001852Y019290D01*
X005160Y018880D02*
X005708Y018880D01*
X005160Y018880D02*
X005160Y019348D01*
X005708Y019348D01*
X005708Y018880D01*
X005708Y018962D02*
X005160Y018962D01*
X005160Y019044D02*
X005708Y019044D01*
X005708Y019126D02*
X005160Y019126D01*
X005160Y019208D02*
X005708Y019208D01*
X005708Y019290D02*
X005160Y019290D01*
X005160Y020652D02*
X005708Y020652D01*
X005160Y020652D02*
X005160Y021120D01*
X005708Y021120D01*
X005708Y020652D01*
X005708Y020734D02*
X005160Y020734D01*
X005160Y020816D02*
X005708Y020816D01*
X005708Y020898D02*
X005160Y020898D01*
X005160Y020980D02*
X005708Y020980D01*
X005708Y021062D02*
X005160Y021062D01*
D17*
X005894Y003630D03*
X004713Y001780D03*
X003531Y003630D03*
D18*
X007280Y007050D03*
X008280Y007050D03*
X009280Y007050D03*
X010280Y007050D03*
X011280Y007050D03*
X012280Y007050D03*
X013280Y007050D03*
X014280Y007050D03*
X015280Y007050D03*
X016280Y007050D03*
X017280Y007050D03*
X018280Y007050D03*
X019280Y007050D03*
X020280Y007050D03*
X020280Y015050D03*
X019280Y015050D03*
X018280Y015050D03*
X017280Y015050D03*
X016280Y015050D03*
X015280Y015050D03*
X014280Y015050D03*
X013280Y015050D03*
X012280Y015050D03*
X011280Y015050D03*
X010280Y015050D03*
X009280Y015050D03*
X008280Y015050D03*
X007280Y015050D03*
D19*
X024668Y007834D03*
X024668Y006850D03*
X024668Y005866D03*
X026892Y005866D03*
X026892Y006850D03*
X026892Y007834D03*
D20*
X026246Y007834D01*
X025280Y008800D01*
X025030Y008800D01*
X023280Y010550D01*
X013780Y010550D01*
X010280Y007050D01*
X011280Y007050D02*
X014280Y010050D01*
X021184Y010050D01*
X023399Y007834D01*
X024668Y007834D01*
X025430Y007910D02*
X024290Y009050D01*
X023530Y009050D01*
X025030Y009800D02*
X026080Y008750D01*
X026980Y008750D01*
X027580Y008150D01*
X027580Y007550D01*
X027380Y007350D01*
X026580Y007350D01*
X026080Y006850D01*
X025580Y006850D01*
X024668Y005938D01*
X024668Y005866D01*
X023780Y006050D02*
X024580Y006850D01*
X024668Y006850D01*
X023780Y006050D02*
X023780Y004300D01*
X025280Y002800D01*
X025280Y001550D01*
X024280Y001550D02*
X024280Y002800D01*
X023280Y003800D01*
X023280Y007300D01*
X021030Y009550D01*
X014780Y009550D01*
X012280Y007050D01*
X013280Y007050D02*
X013280Y007300D01*
X015030Y009050D01*
X020780Y009050D01*
X022780Y007050D01*
X022780Y002800D01*
X023280Y002300D01*
X023280Y001550D01*
X022280Y001550D02*
X022280Y006800D01*
X020530Y008550D01*
X015530Y008550D01*
X014280Y007300D01*
X014280Y007050D01*
X015280Y007050D02*
X015280Y007550D01*
X015780Y008050D01*
X020530Y008050D01*
X021280Y007300D01*
X021280Y001550D01*
X017280Y001550D02*
X017280Y002550D01*
X016280Y003550D01*
X014780Y004000D01*
X013260Y003550D01*
X012520Y002810D01*
X013280Y002050D02*
X013780Y002550D01*
X015780Y002550D01*
X016280Y002050D01*
X016280Y001550D01*
X013280Y001550D02*
X013280Y002050D01*
X008280Y007050D02*
X008280Y007800D01*
X011530Y011050D01*
X025830Y011050D01*
X026330Y010550D01*
X026280Y009550D02*
X026780Y009550D01*
X027940Y008390D01*
X027940Y006110D01*
X027696Y005866D01*
X026892Y005866D01*
X026280Y006300D02*
X026530Y006550D01*
X026892Y006850D01*
X026280Y006300D02*
X026280Y001550D01*
X026330Y011550D02*
X025780Y011550D01*
X025280Y012050D01*
X009530Y012050D01*
X007280Y014300D01*
X007280Y015050D01*
X010780Y018550D01*
X011780Y018550D01*
X012680Y019450D01*
X012680Y020550D01*
X013680Y020550D02*
X013680Y019450D01*
X009280Y015050D01*
X009280Y014300D01*
X011030Y012550D01*
X026330Y012550D01*
X027330Y012550D02*
X027330Y012980D01*
X026760Y013550D01*
X022780Y013550D01*
X024780Y015050D02*
X026280Y016550D01*
X026280Y020550D01*
X025280Y020550D02*
X025280Y017050D01*
X024280Y016050D01*
X019780Y016050D01*
X019280Y015550D01*
X019280Y015050D01*
X018280Y015050D02*
X018280Y015550D01*
X019780Y017050D01*
X023780Y017050D01*
X024280Y017550D01*
X024280Y020550D01*
X023280Y020550D02*
X023280Y018050D01*
X022905Y017675D01*
X022780Y017550D01*
X019780Y017550D01*
X017280Y015050D01*
X017280Y016050D02*
X016280Y015050D01*
X015280Y015050D02*
X016780Y016550D01*
X017780Y016550D01*
X019780Y018550D01*
X020780Y018550D01*
X021280Y019050D01*
X021280Y020550D01*
X020280Y020550D02*
X020280Y019550D01*
X017780Y017050D01*
X016780Y017050D01*
X015780Y016050D01*
X015280Y016050D01*
X014280Y015050D01*
X013280Y015050D02*
X014780Y016550D01*
X015780Y016550D01*
X016780Y017550D01*
X017780Y017550D01*
X019280Y019050D01*
X019280Y020550D01*
X017680Y020550D02*
X017680Y020450D01*
X012280Y015050D01*
X011280Y015050D02*
X011280Y015150D01*
X016680Y020550D01*
X015680Y020550D02*
X015680Y020450D01*
X010280Y015050D01*
X008280Y015050D02*
X010780Y017550D01*
X009680Y018450D02*
X007780Y016550D01*
X006780Y016550D01*
X005780Y015550D01*
X005780Y013800D01*
X006280Y013300D01*
X006280Y012550D01*
X005280Y013300D02*
X005280Y015550D01*
X008680Y018950D01*
X008680Y020550D01*
X009680Y020550D02*
X009680Y018450D01*
X010680Y018950D02*
X007780Y016050D01*
X006780Y016050D01*
X006280Y015550D01*
X006280Y014540D01*
X006290Y014540D01*
X007030Y013800D01*
X007030Y011300D01*
X004780Y009800D02*
X006280Y008300D01*
X007780Y008300D01*
X008280Y007800D01*
X004780Y009800D02*
X004780Y015550D01*
X005434Y016204D01*
X005434Y019114D01*
X010680Y018950D02*
X010680Y020550D01*
X017280Y016050D02*
X017780Y016050D01*
X019780Y018050D01*
X021780Y018050D01*
X022280Y018550D01*
X022280Y020550D01*
X020280Y015050D02*
X024780Y015050D01*
D21*
X024480Y014450D03*
X025680Y014450D03*
X022780Y013550D03*
X021780Y013800D03*
X020530Y013800D03*
X019280Y013800D03*
X015780Y014150D03*
X014780Y014150D03*
X013780Y014150D03*
X012780Y014150D03*
X011780Y014150D03*
X010780Y014150D03*
X008530Y011800D03*
X008530Y011050D03*
X009530Y011050D03*
X010530Y011300D03*
X007780Y009050D03*
X006280Y009800D03*
X005530Y011300D03*
X007030Y011300D03*
X006280Y012550D03*
X005280Y013300D03*
X003530Y014550D03*
X002030Y014550D03*
X002030Y017550D03*
X003530Y017550D03*
X006180Y017550D03*
X006880Y018850D03*
X005720Y020240D03*
X010780Y017550D03*
X003530Y011050D03*
X002030Y011050D03*
X004780Y008050D03*
X003780Y007050D03*
X002030Y007050D03*
X006530Y006050D03*
X008280Y004050D03*
X010030Y005800D03*
X010780Y004800D03*
X012530Y005800D03*
X013480Y004250D03*
X014780Y004000D03*
X015580Y004350D03*
X014780Y003300D03*
X012520Y002810D03*
X015030Y005800D03*
X020280Y004300D03*
X021780Y005450D03*
X021780Y006550D03*
X023530Y009050D03*
X025030Y009800D03*
X026280Y009550D03*
X025430Y007910D03*
X020280Y002800D03*
X023780Y017050D03*
X022905Y017675D03*
D22*
X018280Y001550D02*
X017280Y001550D01*
D23*
X019280Y001550D02*
X019280Y003550D01*
X018330Y004500D01*
X018280Y004550D01*
X017780Y005050D01*
X012780Y005050D01*
X011280Y003550D01*
X011280Y002284D01*
X010646Y001650D01*
X016280Y007050D02*
X017280Y007050D01*
X020280Y007050D02*
X020280Y005550D01*
X019280Y004550D01*
X019280Y001550D01*
X003531Y002961D02*
X003531Y003630D01*
X002126Y019114D02*
X005434Y019114D01*
X005720Y020240D02*
X005720Y020599D01*
X005434Y020886D01*
X002126Y020886D01*
D24*
X005894Y003630D02*
X006934Y003630D01*
X008914Y001650D01*
M02*
