G75*
G70*
%OFA0B0*%
%FSLAX24Y24*%
%IPPOS*%
%LPD*%
%AMOC8*
5,1,8,0,0,1.08239X$1,22.5*
%
%ADD10C,0.0100*%
%ADD11C,0.0000*%
%ADD12C,0.1300*%
%ADD13OC8,0.0650*%
%ADD14C,0.0600*%
%ADD15R,0.0985X0.0985*%
%ADD16C,0.0860*%
%ADD17C,0.0440*%
%ADD18C,0.0089*%
%ADD19C,0.1740*%
%ADD20C,0.0780*%
%ADD21R,0.0493X0.0434*%
%ADD22C,0.0375*%
D10*
X001280Y000944D02*
X001280Y021156D01*
X001282Y021195D01*
X001288Y021233D01*
X001297Y021270D01*
X001310Y021307D01*
X001327Y021342D01*
X001346Y021375D01*
X001369Y021406D01*
X001395Y021435D01*
X001424Y021461D01*
X001455Y021484D01*
X001488Y021503D01*
X001523Y021520D01*
X001560Y021533D01*
X001597Y021542D01*
X001635Y021548D01*
X001674Y021550D01*
X026680Y021550D01*
X027280Y020950D01*
X027280Y016450D01*
X028280Y015450D01*
X028280Y002550D01*
X027280Y001550D01*
X027280Y000944D01*
X027278Y000905D01*
X027272Y000867D01*
X027263Y000830D01*
X027250Y000793D01*
X027233Y000758D01*
X027214Y000725D01*
X027191Y000694D01*
X027165Y000665D01*
X027136Y000639D01*
X027105Y000616D01*
X027072Y000597D01*
X027037Y000580D01*
X027000Y000567D01*
X026963Y000558D01*
X026925Y000552D01*
X026886Y000550D01*
X001674Y000550D01*
X001635Y000552D01*
X001597Y000558D01*
X001560Y000567D01*
X001523Y000580D01*
X001488Y000597D01*
X001455Y000616D01*
X001424Y000639D01*
X001395Y000665D01*
X001369Y000694D01*
X001346Y000725D01*
X001327Y000758D01*
X001310Y000793D01*
X001297Y000830D01*
X001288Y000867D01*
X001282Y000905D01*
X001280Y000944D01*
D11*
X006150Y001550D02*
X006152Y001600D01*
X006158Y001650D01*
X006168Y001699D01*
X006182Y001747D01*
X006199Y001794D01*
X006220Y001839D01*
X006245Y001883D01*
X006273Y001924D01*
X006305Y001963D01*
X006339Y002000D01*
X006376Y002034D01*
X006416Y002064D01*
X006458Y002091D01*
X006502Y002115D01*
X006548Y002136D01*
X006595Y002152D01*
X006643Y002165D01*
X006693Y002174D01*
X006742Y002179D01*
X006793Y002180D01*
X006843Y002177D01*
X006892Y002170D01*
X006941Y002159D01*
X006989Y002144D01*
X007035Y002126D01*
X007080Y002104D01*
X007123Y002078D01*
X007164Y002049D01*
X007203Y002017D01*
X007239Y001982D01*
X007271Y001944D01*
X007301Y001904D01*
X007328Y001861D01*
X007351Y001817D01*
X007370Y001771D01*
X007386Y001723D01*
X007398Y001674D01*
X007406Y001625D01*
X007410Y001575D01*
X007410Y001525D01*
X007406Y001475D01*
X007398Y001426D01*
X007386Y001377D01*
X007370Y001329D01*
X007351Y001283D01*
X007328Y001239D01*
X007301Y001196D01*
X007271Y001156D01*
X007239Y001118D01*
X007203Y001083D01*
X007164Y001051D01*
X007123Y001022D01*
X007080Y000996D01*
X007035Y000974D01*
X006989Y000956D01*
X006941Y000941D01*
X006892Y000930D01*
X006843Y000923D01*
X006793Y000920D01*
X006742Y000921D01*
X006693Y000926D01*
X006643Y000935D01*
X006595Y000948D01*
X006548Y000964D01*
X006502Y000985D01*
X006458Y001009D01*
X006416Y001036D01*
X006376Y001066D01*
X006339Y001100D01*
X006305Y001137D01*
X006273Y001176D01*
X006245Y001217D01*
X006220Y001261D01*
X006199Y001306D01*
X006182Y001353D01*
X006168Y001401D01*
X006158Y001450D01*
X006152Y001500D01*
X006150Y001550D01*
X025613Y006259D02*
X025615Y006284D01*
X025621Y006309D01*
X025630Y006333D01*
X025643Y006355D01*
X025660Y006375D01*
X025679Y006392D01*
X025700Y006406D01*
X025724Y006416D01*
X025748Y006423D01*
X025774Y006426D01*
X025799Y006425D01*
X025824Y006420D01*
X025848Y006411D01*
X025871Y006399D01*
X025891Y006384D01*
X025909Y006365D01*
X025924Y006344D01*
X025935Y006321D01*
X025943Y006297D01*
X025947Y006272D01*
X025947Y006246D01*
X025943Y006221D01*
X025935Y006197D01*
X025924Y006174D01*
X025909Y006153D01*
X025891Y006134D01*
X025871Y006119D01*
X025848Y006107D01*
X025824Y006098D01*
X025799Y006093D01*
X025774Y006092D01*
X025748Y006095D01*
X025724Y006102D01*
X025700Y006112D01*
X025679Y006126D01*
X025660Y006143D01*
X025643Y006163D01*
X025630Y006185D01*
X025621Y006209D01*
X025615Y006234D01*
X025613Y006259D01*
X025613Y007441D02*
X025615Y007466D01*
X025621Y007491D01*
X025630Y007515D01*
X025643Y007537D01*
X025660Y007557D01*
X025679Y007574D01*
X025700Y007588D01*
X025724Y007598D01*
X025748Y007605D01*
X025774Y007608D01*
X025799Y007607D01*
X025824Y007602D01*
X025848Y007593D01*
X025871Y007581D01*
X025891Y007566D01*
X025909Y007547D01*
X025924Y007526D01*
X025935Y007503D01*
X025943Y007479D01*
X025947Y007454D01*
X025947Y007428D01*
X025943Y007403D01*
X025935Y007379D01*
X025924Y007356D01*
X025909Y007335D01*
X025891Y007316D01*
X025871Y007301D01*
X025848Y007289D01*
X025824Y007280D01*
X025799Y007275D01*
X025774Y007274D01*
X025748Y007277D01*
X025724Y007284D01*
X025700Y007294D01*
X025679Y007308D01*
X025660Y007325D01*
X025643Y007345D01*
X025630Y007367D01*
X025621Y007391D01*
X025615Y007416D01*
X025613Y007441D01*
X026650Y003550D02*
X026652Y003600D01*
X026658Y003650D01*
X026668Y003699D01*
X026682Y003747D01*
X026699Y003794D01*
X026720Y003839D01*
X026745Y003883D01*
X026773Y003924D01*
X026805Y003963D01*
X026839Y004000D01*
X026876Y004034D01*
X026916Y004064D01*
X026958Y004091D01*
X027002Y004115D01*
X027048Y004136D01*
X027095Y004152D01*
X027143Y004165D01*
X027193Y004174D01*
X027242Y004179D01*
X027293Y004180D01*
X027343Y004177D01*
X027392Y004170D01*
X027441Y004159D01*
X027489Y004144D01*
X027535Y004126D01*
X027580Y004104D01*
X027623Y004078D01*
X027664Y004049D01*
X027703Y004017D01*
X027739Y003982D01*
X027771Y003944D01*
X027801Y003904D01*
X027828Y003861D01*
X027851Y003817D01*
X027870Y003771D01*
X027886Y003723D01*
X027898Y003674D01*
X027906Y003625D01*
X027910Y003575D01*
X027910Y003525D01*
X027906Y003475D01*
X027898Y003426D01*
X027886Y003377D01*
X027870Y003329D01*
X027851Y003283D01*
X027828Y003239D01*
X027801Y003196D01*
X027771Y003156D01*
X027739Y003118D01*
X027703Y003083D01*
X027664Y003051D01*
X027623Y003022D01*
X027580Y002996D01*
X027535Y002974D01*
X027489Y002956D01*
X027441Y002941D01*
X027392Y002930D01*
X027343Y002923D01*
X027293Y002920D01*
X027242Y002921D01*
X027193Y002926D01*
X027143Y002935D01*
X027095Y002948D01*
X027048Y002964D01*
X027002Y002985D01*
X026958Y003009D01*
X026916Y003036D01*
X026876Y003066D01*
X026839Y003100D01*
X026805Y003137D01*
X026773Y003176D01*
X026745Y003217D01*
X026720Y003261D01*
X026699Y003306D01*
X026682Y003353D01*
X026668Y003401D01*
X026658Y003450D01*
X026652Y003500D01*
X026650Y003550D01*
X026650Y014550D02*
X026652Y014600D01*
X026658Y014650D01*
X026668Y014699D01*
X026682Y014747D01*
X026699Y014794D01*
X026720Y014839D01*
X026745Y014883D01*
X026773Y014924D01*
X026805Y014963D01*
X026839Y015000D01*
X026876Y015034D01*
X026916Y015064D01*
X026958Y015091D01*
X027002Y015115D01*
X027048Y015136D01*
X027095Y015152D01*
X027143Y015165D01*
X027193Y015174D01*
X027242Y015179D01*
X027293Y015180D01*
X027343Y015177D01*
X027392Y015170D01*
X027441Y015159D01*
X027489Y015144D01*
X027535Y015126D01*
X027580Y015104D01*
X027623Y015078D01*
X027664Y015049D01*
X027703Y015017D01*
X027739Y014982D01*
X027771Y014944D01*
X027801Y014904D01*
X027828Y014861D01*
X027851Y014817D01*
X027870Y014771D01*
X027886Y014723D01*
X027898Y014674D01*
X027906Y014625D01*
X027910Y014575D01*
X027910Y014525D01*
X027906Y014475D01*
X027898Y014426D01*
X027886Y014377D01*
X027870Y014329D01*
X027851Y014283D01*
X027828Y014239D01*
X027801Y014196D01*
X027771Y014156D01*
X027739Y014118D01*
X027703Y014083D01*
X027664Y014051D01*
X027623Y014022D01*
X027580Y013996D01*
X027535Y013974D01*
X027489Y013956D01*
X027441Y013941D01*
X027392Y013930D01*
X027343Y013923D01*
X027293Y013920D01*
X027242Y013921D01*
X027193Y013926D01*
X027143Y013935D01*
X027095Y013948D01*
X027048Y013964D01*
X027002Y013985D01*
X026958Y014009D01*
X026916Y014036D01*
X026876Y014066D01*
X026839Y014100D01*
X026805Y014137D01*
X026773Y014176D01*
X026745Y014217D01*
X026720Y014261D01*
X026699Y014306D01*
X026682Y014353D01*
X026668Y014401D01*
X026658Y014450D01*
X026652Y014500D01*
X026650Y014550D01*
X006650Y020550D02*
X006652Y020600D01*
X006658Y020650D01*
X006668Y020699D01*
X006682Y020747D01*
X006699Y020794D01*
X006720Y020839D01*
X006745Y020883D01*
X006773Y020924D01*
X006805Y020963D01*
X006839Y021000D01*
X006876Y021034D01*
X006916Y021064D01*
X006958Y021091D01*
X007002Y021115D01*
X007048Y021136D01*
X007095Y021152D01*
X007143Y021165D01*
X007193Y021174D01*
X007242Y021179D01*
X007293Y021180D01*
X007343Y021177D01*
X007392Y021170D01*
X007441Y021159D01*
X007489Y021144D01*
X007535Y021126D01*
X007580Y021104D01*
X007623Y021078D01*
X007664Y021049D01*
X007703Y021017D01*
X007739Y020982D01*
X007771Y020944D01*
X007801Y020904D01*
X007828Y020861D01*
X007851Y020817D01*
X007870Y020771D01*
X007886Y020723D01*
X007898Y020674D01*
X007906Y020625D01*
X007910Y020575D01*
X007910Y020525D01*
X007906Y020475D01*
X007898Y020426D01*
X007886Y020377D01*
X007870Y020329D01*
X007851Y020283D01*
X007828Y020239D01*
X007801Y020196D01*
X007771Y020156D01*
X007739Y020118D01*
X007703Y020083D01*
X007664Y020051D01*
X007623Y020022D01*
X007580Y019996D01*
X007535Y019974D01*
X007489Y019956D01*
X007441Y019941D01*
X007392Y019930D01*
X007343Y019923D01*
X007293Y019920D01*
X007242Y019921D01*
X007193Y019926D01*
X007143Y019935D01*
X007095Y019948D01*
X007048Y019964D01*
X007002Y019985D01*
X006958Y020009D01*
X006916Y020036D01*
X006876Y020066D01*
X006839Y020100D01*
X006805Y020137D01*
X006773Y020176D01*
X006745Y020217D01*
X006720Y020261D01*
X006699Y020306D01*
X006682Y020353D01*
X006668Y020401D01*
X006658Y020450D01*
X006652Y020500D01*
X006650Y020550D01*
D12*
X007280Y020550D03*
X027280Y014550D03*
X027280Y003550D03*
X006780Y001550D03*
D13*
X026330Y010550D03*
X027330Y010550D03*
X027330Y011550D03*
X027330Y012550D03*
X026330Y012550D03*
X026330Y011550D03*
D14*
X026280Y020270D02*
X026280Y020830D01*
X025280Y020830D02*
X025280Y020270D01*
X024280Y020270D02*
X024280Y020830D01*
X023280Y020830D02*
X023280Y020270D01*
X022280Y020270D02*
X022280Y020830D01*
X021280Y020830D02*
X021280Y020270D01*
X020280Y020270D02*
X020280Y020830D01*
X019280Y020830D02*
X019280Y020270D01*
X017680Y020270D02*
X017680Y020830D01*
X016680Y020830D02*
X016680Y020270D01*
X015680Y020270D02*
X015680Y020830D01*
X014680Y020830D02*
X014680Y020270D01*
X013680Y020270D02*
X013680Y020830D01*
X012680Y020830D02*
X012680Y020270D01*
X011680Y020270D02*
X011680Y020830D01*
X010680Y020830D02*
X010680Y020270D01*
X009680Y020270D02*
X009680Y020830D01*
X008680Y020830D02*
X008680Y020270D01*
X012280Y001830D02*
X012280Y001270D01*
X013280Y001270D02*
X013280Y001830D01*
X014280Y001830D02*
X014280Y001270D01*
X015280Y001270D02*
X015280Y001830D01*
X016280Y001830D02*
X016280Y001270D01*
X017280Y001270D02*
X017280Y001830D01*
X018280Y001830D02*
X018280Y001270D01*
X019280Y001270D02*
X019280Y001830D01*
X021280Y001830D02*
X021280Y001270D01*
X022280Y001270D02*
X022280Y001830D01*
X023280Y001830D02*
X023280Y001270D01*
X024280Y001270D02*
X024280Y001830D01*
X025280Y001830D02*
X025280Y001270D01*
X026280Y001270D02*
X026280Y001830D01*
D15*
X010646Y001650D03*
X008914Y001650D03*
D16*
X008030Y005341D02*
X008032Y005368D01*
X008038Y005395D01*
X008047Y005421D01*
X008060Y005445D01*
X008076Y005468D01*
X008095Y005487D01*
X008117Y005504D01*
X008141Y005518D01*
X008166Y005528D01*
X008193Y005535D01*
X008220Y005538D01*
X008248Y005537D01*
X008275Y005532D01*
X008301Y005524D01*
X008325Y005512D01*
X008348Y005496D01*
X008369Y005478D01*
X008386Y005457D01*
X008401Y005433D01*
X008412Y005408D01*
X008420Y005382D01*
X008424Y005355D01*
X008424Y005327D01*
X008420Y005300D01*
X008412Y005274D01*
X008401Y005249D01*
X008386Y005225D01*
X008369Y005204D01*
X008348Y005186D01*
X008326Y005170D01*
X008301Y005158D01*
X008275Y005150D01*
X008248Y005145D01*
X008220Y005144D01*
X008193Y005147D01*
X008166Y005154D01*
X008141Y005164D01*
X008117Y005178D01*
X008095Y005195D01*
X008076Y005214D01*
X008060Y005237D01*
X008047Y005261D01*
X008038Y005287D01*
X008032Y005314D01*
X008030Y005341D01*
X003583Y020200D02*
X003585Y020227D01*
X003591Y020254D01*
X003600Y020280D01*
X003613Y020304D01*
X003629Y020327D01*
X003648Y020346D01*
X003670Y020363D01*
X003694Y020377D01*
X003719Y020387D01*
X003746Y020394D01*
X003773Y020397D01*
X003801Y020396D01*
X003828Y020391D01*
X003854Y020383D01*
X003878Y020371D01*
X003901Y020355D01*
X003922Y020337D01*
X003939Y020316D01*
X003954Y020292D01*
X003965Y020267D01*
X003973Y020241D01*
X003977Y020214D01*
X003977Y020186D01*
X003973Y020159D01*
X003965Y020133D01*
X003954Y020108D01*
X003939Y020084D01*
X003922Y020063D01*
X003901Y020045D01*
X003879Y020029D01*
X003854Y020017D01*
X003828Y020009D01*
X003801Y020004D01*
X003773Y020003D01*
X003746Y020006D01*
X003719Y020013D01*
X003694Y020023D01*
X003670Y020037D01*
X003648Y020054D01*
X003629Y020073D01*
X003613Y020096D01*
X003600Y020120D01*
X003591Y020146D01*
X003585Y020173D01*
X003583Y020200D01*
D17*
X003780Y020200D03*
X008227Y005341D03*
D18*
X005725Y018863D02*
X005143Y018863D01*
X005143Y019365D01*
X005725Y019365D01*
X005725Y018863D01*
X005725Y018951D02*
X005143Y018951D01*
X005143Y019039D02*
X005725Y019039D01*
X005725Y019127D02*
X005143Y019127D01*
X005143Y019215D02*
X005725Y019215D01*
X005725Y019303D02*
X005143Y019303D01*
X005143Y020635D02*
X005725Y020635D01*
X005143Y020635D02*
X005143Y021137D01*
X005725Y021137D01*
X005725Y020635D01*
X005725Y020723D02*
X005143Y020723D01*
X005143Y020811D02*
X005725Y020811D01*
X005725Y020899D02*
X005143Y020899D01*
X005143Y020987D02*
X005725Y020987D01*
X005725Y021075D02*
X005143Y021075D01*
X002417Y020635D02*
X001835Y020635D01*
X001835Y021137D01*
X002417Y021137D01*
X002417Y020635D01*
X002417Y020723D02*
X001835Y020723D01*
X001835Y020811D02*
X002417Y020811D01*
X002417Y020899D02*
X001835Y020899D01*
X001835Y020987D02*
X002417Y020987D01*
X002417Y021075D02*
X001835Y021075D01*
X001835Y019749D02*
X002417Y019749D01*
X001835Y019749D02*
X001835Y020251D01*
X002417Y020251D01*
X002417Y019749D01*
X002417Y019837D02*
X001835Y019837D01*
X001835Y019925D02*
X002417Y019925D01*
X002417Y020013D02*
X001835Y020013D01*
X001835Y020101D02*
X002417Y020101D01*
X002417Y020189D02*
X001835Y020189D01*
X001835Y018863D02*
X002417Y018863D01*
X001835Y018863D02*
X001835Y019365D01*
X002417Y019365D01*
X002417Y018863D01*
X002417Y018951D02*
X001835Y018951D01*
X001835Y019039D02*
X002417Y019039D01*
X002417Y019127D02*
X001835Y019127D01*
X001835Y019215D02*
X002417Y019215D01*
X002417Y019303D02*
X001835Y019303D01*
D19*
X003531Y003630D03*
X004713Y001780D03*
X005894Y003630D03*
D20*
X007280Y007050D03*
X008280Y007050D03*
X009280Y007050D03*
X010280Y007050D03*
X011280Y007050D03*
X012280Y007050D03*
X013280Y007050D03*
X014280Y007050D03*
X015280Y007050D03*
X016280Y007050D03*
X017280Y007050D03*
X018280Y007050D03*
X019280Y007050D03*
X020280Y007050D03*
X020280Y015050D03*
X019280Y015050D03*
X018280Y015050D03*
X017280Y015050D03*
X016280Y015050D03*
X015280Y015050D03*
X014280Y015050D03*
X013280Y015050D03*
X012280Y015050D03*
X011280Y015050D03*
X010280Y015050D03*
X009280Y015050D03*
X008280Y015050D03*
X007280Y015050D03*
D21*
X024668Y007834D03*
X024668Y006850D03*
X024668Y005866D03*
X026892Y005866D03*
X026892Y006850D03*
X026892Y007834D03*
D22*
X025780Y007441D03*
X025780Y006259D03*
M02*
