%
M48
M72
T01C0.0236
T02C0.0335
T03C0.0374
T04C0.0400
T05C0.1180
T06C0.1260
%
T01
X2030Y17550
X3530Y17550
X6180Y17550
X6880Y18850
X5720Y20240
X10780Y17550
X10780Y14150
X11780Y14150
X12780Y14150
X13780Y14150
X14780Y14150
X15780Y14150
X19280Y13800
X20530Y13800
X21780Y13800
X22780Y13550
X24480Y14450
X25680Y14450
X23780Y17050
X22905Y17675
X25030Y9800
X26280Y9550
X25430Y7910
X23530Y9050
X21780Y6550
X21780Y5450
X20280Y4300
X20280Y2800
X15580Y4350
X14780Y4000
X14780Y3300
X13480Y4250
X12520Y2810
X10780Y4800
X10030Y5800
X8280Y4050
X6530Y6050
X4780Y8050
X3780Y7050
X2030Y7050
X6280Y9800
X7780Y9050
X8530Y11050
X9530Y11050
X10530Y11300
X8530Y11800
X7030Y11300
X5530Y11300
X6280Y12550
X5280Y13300
X3530Y14550
X2030Y14550
X2030Y11050
X3530Y11050
X12530Y5800
X15030Y5800
T02
X8680Y20550
X9680Y20550
X10680Y20550
X11680Y20550
X12680Y20550
X13680Y20550
X14680Y20550
X15680Y20550
X16680Y20550
X17680Y20550
X19280Y20550
X20280Y20550
X21280Y20550
X22280Y20550
X23280Y20550
X24280Y20550
X25280Y20550
X26280Y20550
X25780Y7441
X25780Y6259
X26280Y1550
X25280Y1550
X24280Y1550
X23280Y1550
X22280Y1550
X21280Y1550
X19280Y1550
X18280Y1550
X17280Y1550
X16280Y1550
X15280Y1550
X14280Y1550
X13280Y1550
X12280Y1550
T03
X26330Y10550
X27330Y10550
X27330Y11550
X27330Y12550
X26330Y12550
X26330Y11550
T04
X7280Y15050
X8280Y15050
X9280Y15050
X10280Y15050
X11280Y15050
X12280Y15050
X13280Y15050
X14280Y15050
X15280Y15050
X16280Y15050
X17280Y15050
X18280Y15050
X19280Y15050
X20280Y15050
X20280Y7050
X19280Y7050
X18280Y7050
X17280Y7050
X16280Y7050
X15280Y7050
X14280Y7050
X13280Y7050
X12280Y7050
X11280Y7050
X10280Y7050
X9280Y7050
X8280Y7050
X7280Y7050
T05
X4713Y1780
X5894Y3630
X3531Y3630
T06
X7280Y20550
X27280Y3550
X27280Y14550
X6780Y1550
M30
