G75*
G70*
%OFA0B0*%
%FSLAX24Y24*%
%IPPOS*%
%LPD*%
%AMOC8*
5,1,8,0,0,1.08239X$1,22.5*
%
%ADD10C,0.0100*%
%ADD11C,0.0120*%
%ADD12C,0.0070*%
%ADD13C,0.0050*%
%ADD14C,0.0060*%
%ADD15C,0.0080*%
%ADD16C,0.0000*%
%ADD17C,0.0160*%
%ADD18C,0.0040*%
%ADD19R,0.0310X0.0005*%
%ADD20R,0.0315X0.0005*%
%ADD21R,0.0320X0.0005*%
%ADD22R,0.0085X0.0005*%
%ADD23R,0.0080X0.0005*%
%ADD24R,0.0175X0.0005*%
%ADD25R,0.0160X0.0005*%
%ADD26R,0.0240X0.0005*%
%ADD27R,0.0235X0.0005*%
%ADD28R,0.0215X0.0005*%
%ADD29R,0.0325X0.0005*%
%ADD30R,0.0290X0.0005*%
%ADD31R,0.0275X0.0005*%
%ADD32R,0.0255X0.0005*%
%ADD33R,0.0340X0.0005*%
%ADD34R,0.0005X0.0005*%
%ADD35R,0.0370X0.0005*%
%ADD36R,0.0345X0.0005*%
%ADD37R,0.0300X0.0005*%
%ADD38R,0.0375X0.0005*%
%ADD39R,0.0295X0.0005*%
%ADD40R,0.0415X0.0005*%
%ADD41R,0.0110X0.0005*%
%ADD42R,0.0380X0.0005*%
%ADD43R,0.0385X0.0005*%
%ADD44R,0.0350X0.0005*%
%ADD45R,0.0445X0.0005*%
%ADD46R,0.0105X0.0005*%
%ADD47R,0.0405X0.0005*%
%ADD48R,0.0475X0.0005*%
%ADD49R,0.0435X0.0005*%
%ADD50R,0.0400X0.0005*%
%ADD51R,0.0500X0.0005*%
%ADD52R,0.0460X0.0005*%
%ADD53R,0.0465X0.0005*%
%ADD54R,0.0420X0.0005*%
%ADD55R,0.0525X0.0005*%
%ADD56R,0.0485X0.0005*%
%ADD57R,0.0440X0.0005*%
%ADD58R,0.0550X0.0005*%
%ADD59R,0.0505X0.0005*%
%ADD60R,0.0570X0.0005*%
%ADD61R,0.0480X0.0005*%
%ADD62R,0.0590X0.0005*%
%ADD63R,0.0545X0.0005*%
%ADD64R,0.0495X0.0005*%
%ADD65R,0.0605X0.0005*%
%ADD66R,0.0565X0.0005*%
%ADD67R,0.0510X0.0005*%
%ADD68R,0.0625X0.0005*%
%ADD69R,0.0580X0.0005*%
%ADD70R,0.0645X0.0005*%
%ADD71R,0.0600X0.0005*%
%ADD72R,0.0540X0.0005*%
%ADD73R,0.0665X0.0005*%
%ADD74R,0.0615X0.0005*%
%ADD75R,0.0680X0.0005*%
%ADD76R,0.0635X0.0005*%
%ADD77R,0.0560X0.0005*%
%ADD78R,0.0695X0.0005*%
%ADD79R,0.0715X0.0005*%
%ADD80R,0.0725X0.0005*%
%ADD81R,0.0675X0.0005*%
%ADD82R,0.0740X0.0005*%
%ADD83R,0.0690X0.0005*%
%ADD84R,0.0755X0.0005*%
%ADD85R,0.0285X0.0005*%
%ADD86R,0.0280X0.0005*%
%ADD87R,0.0765X0.0005*%
%ADD88R,0.0260X0.0005*%
%ADD89R,0.0200X0.0005*%
%ADD90R,0.0205X0.0005*%
%ADD91R,0.0330X0.0005*%
%ADD92R,0.0780X0.0005*%
%ADD93R,0.0250X0.0005*%
%ADD94R,0.0190X0.0005*%
%ADD95R,0.0335X0.0005*%
%ADD96R,0.0795X0.0005*%
%ADD97R,0.0230X0.0005*%
%ADD98R,0.0180X0.0005*%
%ADD99R,0.0805X0.0005*%
%ADD100R,0.0225X0.0005*%
%ADD101R,0.0220X0.0005*%
%ADD102R,0.0170X0.0005*%
%ADD103R,0.0815X0.0005*%
%ADD104R,0.0210X0.0005*%
%ADD105R,0.0165X0.0005*%
%ADD106R,0.0830X0.0005*%
%ADD107R,0.0355X0.0005*%
%ADD108R,0.0840X0.0005*%
%ADD109R,0.0195X0.0005*%
%ADD110R,0.0155X0.0005*%
%ADD111R,0.0850X0.0005*%
%ADD112R,0.0150X0.0005*%
%ADD113R,0.0365X0.0005*%
%ADD114R,0.0860X0.0005*%
%ADD115R,0.0145X0.0005*%
%ADD116R,0.0870X0.0005*%
%ADD117R,0.0880X0.0005*%
%ADD118R,0.0140X0.0005*%
%ADD119R,0.0890X0.0005*%
%ADD120R,0.0185X0.0005*%
%ADD121R,0.0135X0.0005*%
%ADD122R,0.0900X0.0005*%
%ADD123R,0.0130X0.0005*%
%ADD124R,0.0910X0.0005*%
%ADD125R,0.0920X0.0005*%
%ADD126R,0.0390X0.0005*%
%ADD127R,0.0925X0.0005*%
%ADD128R,0.0125X0.0005*%
%ADD129R,0.0395X0.0005*%
%ADD130R,0.0935X0.0005*%
%ADD131R,0.0945X0.0005*%
%ADD132R,0.0950X0.0005*%
%ADD133R,0.0120X0.0005*%
%ADD134R,0.0960X0.0005*%
%ADD135R,0.0965X0.0005*%
%ADD136R,0.0975X0.0005*%
%ADD137R,0.0115X0.0005*%
%ADD138R,0.0985X0.0005*%
%ADD139R,0.0425X0.0005*%
%ADD140R,0.0995X0.0005*%
%ADD141R,0.1005X0.0005*%
%ADD142R,0.0410X0.0005*%
%ADD143R,0.0455X0.0005*%
%ADD144R,0.0360X0.0005*%
%ADD145R,0.0100X0.0005*%
%ADD146R,0.0515X0.0005*%
%ADD147R,0.0095X0.0005*%
%ADD148R,0.0535X0.0005*%
%ADD149R,0.0305X0.0005*%
%ADD150R,0.0070X0.0005*%
%ADD151R,0.0055X0.0005*%
%ADD152R,0.0040X0.0005*%
%ADD153R,0.0035X0.0005*%
%ADD154R,0.0555X0.0005*%
%ADD155R,0.0020X0.0005*%
%ADD156R,0.0575X0.0005*%
%ADD157R,0.0585X0.0005*%
%ADD158R,0.0595X0.0005*%
%ADD159R,0.1160X0.0005*%
%ADD160R,0.1165X0.0005*%
%ADD161R,0.0655X0.0005*%
%ADD162R,0.0650X0.0005*%
%ADD163R,0.0640X0.0005*%
%ADD164R,0.0245X0.0005*%
%ADD165R,0.0630X0.0005*%
%ADD166R,0.0620X0.0005*%
%ADD167R,0.1170X0.0005*%
%ADD168R,0.0610X0.0005*%
%ADD169R,0.1175X0.0005*%
%ADD170R,0.0530X0.0005*%
%ADD171R,0.0520X0.0005*%
%ADD172R,0.1155X0.0005*%
%ADD173R,0.0660X0.0005*%
%ADD174R,0.0670X0.0005*%
%ADD175R,0.0745X0.0005*%
%ADD176R,0.0750X0.0005*%
%ADD177R,0.0430X0.0005*%
%ADD178R,0.0970X0.0005*%
%ADD179R,0.0955X0.0005*%
%ADD180R,0.0940X0.0005*%
%ADD181R,0.0930X0.0005*%
%ADD182R,0.0915X0.0005*%
%ADD183R,0.0820X0.0005*%
%ADD184R,0.0810X0.0005*%
%ADD185R,0.0800X0.0005*%
%ADD186R,0.0790X0.0005*%
%ADD187R,0.0730X0.0005*%
%ADD188R,0.0710X0.0005*%
%ADD189R,0.0700X0.0005*%
%ADD190R,0.0685X0.0005*%
%ADD191R,0.0490X0.0005*%
%ADD192R,0.0450X0.0005*%
%ADD193R,0.0470X0.0005*%
%ADD194R,0.0090X0.0005*%
%ADD195R,0.0010X0.0005*%
%ADD196R,0.0015X0.0005*%
%ADD197R,0.0025X0.0005*%
%ADD198R,0.0050X0.0005*%
%ADD199R,0.0060X0.0005*%
%ADD200R,0.0065X0.0005*%
%ADD201R,0.0075X0.0005*%
%ADD202R,0.0270X0.0005*%
%ADD203R,0.0030X0.0005*%
%ADD204R,0.0770X0.0005*%
%ADD205R,0.0845X0.0005*%
%ADD206R,0.1660X0.0005*%
%ADD207R,0.1665X0.0005*%
%ADD208R,0.1670X0.0005*%
%ADD209R,0.1675X0.0005*%
%ADD210R,0.1680X0.0005*%
%ADD211R,0.1685X0.0005*%
%ADD212R,0.1690X0.0005*%
%ADD213R,0.1695X0.0005*%
%ADD214R,0.1700X0.0005*%
%ADD215R,0.1705X0.0005*%
%ADD216R,0.1710X0.0005*%
%ADD217R,0.1715X0.0005*%
%ADD218R,0.1720X0.0005*%
%ADD219R,0.1725X0.0005*%
%ADD220R,0.1730X0.0005*%
%ADD221R,0.1740X0.0005*%
%ADD222R,0.1745X0.0005*%
%ADD223R,0.1750X0.0005*%
%ADD224R,0.1755X0.0005*%
%ADD225R,0.1760X0.0005*%
%ADD226R,0.1765X0.0005*%
%ADD227R,0.1775X0.0005*%
%ADD228R,0.1780X0.0005*%
%ADD229R,0.1785X0.0005*%
%ADD230R,0.1790X0.0005*%
%ADD231R,0.1795X0.0005*%
%ADD232R,0.1800X0.0005*%
%ADD233R,0.1805X0.0005*%
%ADD234R,0.1810X0.0005*%
%ADD235R,0.1815X0.0005*%
%ADD236R,0.1825X0.0005*%
%ADD237R,0.1835X0.0005*%
%ADD238R,0.1840X0.0005*%
%ADD239R,0.1845X0.0005*%
%ADD240R,0.1850X0.0005*%
%ADD241R,0.1855X0.0005*%
%ADD242R,0.1865X0.0005*%
%ADD243R,0.1870X0.0005*%
%ADD244R,0.1880X0.0005*%
%ADD245R,0.1885X0.0005*%
%ADD246R,0.1895X0.0005*%
%ADD247R,0.1900X0.0005*%
%ADD248R,0.1905X0.0005*%
%ADD249R,0.1915X0.0005*%
%ADD250R,0.1925X0.0005*%
%ADD251R,0.1935X0.0005*%
%ADD252R,0.1940X0.0005*%
%ADD253R,0.1950X0.0005*%
%ADD254R,0.1960X0.0005*%
%ADD255R,0.1970X0.0005*%
%ADD256R,0.1980X0.0005*%
%ADD257R,0.1990X0.0005*%
%ADD258R,0.2005X0.0005*%
%ADD259R,0.2015X0.0005*%
%ADD260R,0.2025X0.0005*%
%ADD261R,0.2040X0.0005*%
%ADD262R,0.2050X0.0005*%
%ADD263R,0.2065X0.0005*%
%ADD264R,0.2080X0.0005*%
%ADD265R,0.2095X0.0005*%
%ADD266R,0.2115X0.0005*%
%ADD267R,0.2125X0.0005*%
%ADD268R,0.2145X0.0005*%
%ADD269R,0.2165X0.0005*%
%ADD270R,0.2185X0.0005*%
%ADD271R,0.2210X0.0005*%
%ADD272R,0.2230X0.0005*%
%ADD273R,0.2260X0.0005*%
%ADD274R,0.2285X0.0005*%
%ADD275R,0.2320X0.0005*%
%ADD276R,0.2355X0.0005*%
%ADD277R,0.2410X0.0005*%
%ADD278R,0.2480X0.0005*%
%ADD279R,0.3125X0.0005*%
%ADD280R,0.3115X0.0005*%
%ADD281R,0.3100X0.0005*%
%ADD282R,0.3090X0.0005*%
%ADD283R,0.3075X0.0005*%
%ADD284R,0.3070X0.0005*%
%ADD285R,0.3055X0.0005*%
%ADD286R,0.3040X0.0005*%
%ADD287R,0.3035X0.0005*%
%ADD288R,0.3020X0.0005*%
%ADD289R,0.3010X0.0005*%
%ADD290R,0.2995X0.0005*%
%ADD291R,0.2990X0.0005*%
%ADD292R,0.2975X0.0005*%
%ADD293R,0.2960X0.0005*%
%ADD294R,0.2950X0.0005*%
%ADD295R,0.2940X0.0005*%
%ADD296R,0.2930X0.0005*%
%ADD297R,0.2915X0.0005*%
%ADD298R,0.2905X0.0005*%
%ADD299R,0.2895X0.0005*%
%ADD300R,0.2880X0.0005*%
%ADD301R,0.2870X0.0005*%
%ADD302R,0.2860X0.0005*%
%ADD303R,0.2850X0.0005*%
%ADD304R,0.2835X0.0005*%
%ADD305R,0.2825X0.0005*%
%ADD306R,0.2815X0.0005*%
%ADD307R,0.2800X0.0005*%
%ADD308R,0.2790X0.0005*%
%ADD309R,0.2775X0.0005*%
%ADD310R,0.2770X0.0005*%
%ADD311R,0.2755X0.0005*%
%ADD312R,0.2740X0.0005*%
%ADD313R,0.2730X0.0005*%
%ADD314R,0.2720X0.0005*%
%ADD315R,0.2710X0.0005*%
%ADD316R,0.2695X0.0005*%
%ADD317R,0.2690X0.0005*%
%ADD318R,0.2675X0.0005*%
%ADD319R,0.2660X0.0005*%
%ADD320R,0.2650X0.0005*%
%ADD321R,0.2640X0.0005*%
%ADD322R,0.2630X0.0005*%
%ADD323R,0.2615X0.0005*%
%ADD324R,0.2600X0.0005*%
%ADD325R,0.2595X0.0005*%
%ADD326R,0.2580X0.0005*%
%ADD327R,0.2570X0.0005*%
%ADD328R,0.2560X0.0005*%
%ADD329R,0.2550X0.0005*%
%ADD330R,0.2535X0.0005*%
%ADD331R,0.2525X0.0005*%
%ADD332R,0.2515X0.0005*%
%ADD333R,0.2500X0.0005*%
%ADD334R,0.2490X0.0005*%
%ADD335R,0.2475X0.0005*%
%ADD336R,0.2470X0.0005*%
%ADD337R,0.2455X0.0005*%
%ADD338R,0.2440X0.0005*%
%ADD339R,0.2430X0.0005*%
%ADD340R,0.2420X0.0005*%
%ADD341R,0.2395X0.0005*%
%ADD342R,0.2390X0.0005*%
%ADD343R,0.2375X0.0005*%
%ADD344R,0.2360X0.0005*%
%ADD345R,0.2350X0.0005*%
%ADD346R,0.2340X0.0005*%
%ADD347R,0.2330X0.0005*%
%ADD348R,0.2315X0.0005*%
%ADD349R,0.2305X0.0005*%
%ADD350R,0.2295X0.0005*%
%ADD351R,0.2280X0.0005*%
%ADD352R,0.2270X0.0005*%
%ADD353R,0.2255X0.0005*%
%ADD354R,0.2250X0.0005*%
%ADD355R,0.2235X0.0005*%
%ADD356R,0.2220X0.0005*%
%ADD357R,0.2200X0.0005*%
%ADD358R,0.2190X0.0005*%
%ADD359R,0.2175X0.0005*%
%ADD360R,0.2170X0.0005*%
%ADD361R,0.2155X0.0005*%
%ADD362R,0.2140X0.0005*%
%ADD363R,0.2130X0.0005*%
%ADD364R,0.2120X0.0005*%
%ADD365R,0.2110X0.0005*%
%ADD366R,0.2085X0.0005*%
%ADD367R,0.2075X0.0005*%
%ADD368R,0.2060X0.0005*%
%ADD369R,0.2035X0.0005*%
%ADD370R,0.2030X0.0005*%
%ADD371R,0.1995X0.0005*%
%ADD372R,0.1955X0.0005*%
%ADD373R,0.1920X0.0005*%
%ADD374R,0.1910X0.0005*%
%ADD375R,0.1890X0.0005*%
%ADD376R,0.1875X0.0005*%
%ADD377R,0.1830X0.0005*%
%ADD378R,0.1820X0.0005*%
%ADD379R,0.1735X0.0005*%
%ADD380R,0.1655X0.0005*%
%ADD381R,0.1650X0.0005*%
%ADD382R,0.1635X0.0005*%
%ADD383R,0.1620X0.0005*%
%ADD384R,0.1610X0.0005*%
%ADD385R,0.1600X0.0005*%
%ADD386R,0.1590X0.0005*%
%ADD387R,0.1575X0.0005*%
%ADD388R,0.1565X0.0005*%
%ADD389R,0.1555X0.0005*%
%ADD390R,0.1540X0.0005*%
%ADD391R,0.1530X0.0005*%
%ADD392R,0.1520X0.0005*%
%ADD393R,0.1510X0.0005*%
%ADD394R,0.1495X0.0005*%
%ADD395R,0.1485X0.0005*%
%ADD396R,0.1475X0.0005*%
%ADD397R,0.1460X0.0005*%
%ADD398R,0.1450X0.0005*%
%ADD399R,0.1435X0.0005*%
%ADD400R,0.1430X0.0005*%
%ADD401R,0.1415X0.0005*%
%ADD402R,0.1400X0.0005*%
%ADD403R,0.1395X0.0005*%
%ADD404R,0.1380X0.0005*%
%ADD405R,0.1370X0.0005*%
%ADD406R,0.1355X0.0005*%
%ADD407R,0.1350X0.0005*%
%ADD408R,0.1335X0.0005*%
%ADD409R,0.1320X0.0005*%
%ADD410R,0.1310X0.0005*%
%ADD411R,0.1300X0.0005*%
%ADD412R,0.1290X0.0005*%
%ADD413R,0.1275X0.0005*%
%ADD414R,0.1265X0.0005*%
%ADD415R,0.1255X0.0005*%
%ADD416R,0.1240X0.0005*%
%ADD417R,0.1230X0.0005*%
%ADD418R,0.1220X0.0005*%
%ADD419R,0.1210X0.0005*%
%ADD420R,0.1195X0.0005*%
%ADD421R,0.1185X0.0005*%
%ADD422R,0.1150X0.0005*%
%ADD423R,0.1135X0.0005*%
%ADD424R,0.1130X0.0005*%
%ADD425R,0.1115X0.0005*%
%ADD426R,0.1100X0.0005*%
%ADD427R,0.1090X0.0005*%
%ADD428R,0.1080X0.0005*%
%ADD429R,0.1070X0.0005*%
%ADD430R,0.1055X0.0005*%
%ADD431R,0.1050X0.0005*%
%ADD432R,0.1035X0.0005*%
%ADD433R,0.1020X0.0005*%
%ADD434R,0.1010X0.0005*%
%ADD435R,0.0990X0.0005*%
%ADD436R,0.0895X0.0005*%
%ADD437R,0.0875X0.0005*%
%ADD438R,0.0835X0.0005*%
%ADD439R,0.0735X0.0005*%
%ADD440R,0.0720X0.0005*%
D10*
X001280Y000944D02*
X001280Y021156D01*
X001282Y021195D01*
X001288Y021233D01*
X001297Y021270D01*
X001310Y021307D01*
X001327Y021342D01*
X001346Y021375D01*
X001369Y021406D01*
X001395Y021435D01*
X001424Y021461D01*
X001455Y021484D01*
X001488Y021503D01*
X001523Y021520D01*
X001560Y021533D01*
X001597Y021542D01*
X001635Y021548D01*
X001674Y021550D01*
X026680Y021550D01*
X027280Y020950D01*
X027280Y016450D01*
X028280Y015450D01*
X028280Y002550D01*
X027280Y001550D01*
X027280Y000944D01*
X027278Y000905D01*
X027272Y000867D01*
X027263Y000830D01*
X027250Y000793D01*
X027233Y000758D01*
X027214Y000725D01*
X027191Y000694D01*
X027165Y000665D01*
X027136Y000639D01*
X027105Y000616D01*
X027072Y000597D01*
X027037Y000580D01*
X027000Y000567D01*
X026963Y000558D01*
X026925Y000552D01*
X026886Y000550D01*
X001674Y000550D01*
X001635Y000552D01*
X001597Y000558D01*
X001560Y000567D01*
X001523Y000580D01*
X001488Y000597D01*
X001455Y000616D01*
X001424Y000639D01*
X001395Y000665D01*
X001369Y000694D01*
X001346Y000725D01*
X001327Y000758D01*
X001310Y000793D01*
X001297Y000830D01*
X001288Y000867D01*
X001282Y000905D01*
X001280Y000944D01*
X021230Y003400D02*
X021230Y003774D01*
X021417Y003960D01*
X021604Y003774D01*
X021604Y003400D01*
X021838Y003400D02*
X021838Y003960D01*
X022211Y003400D01*
X022211Y003960D01*
X022445Y003774D02*
X022632Y003960D01*
X022819Y003774D01*
X022819Y003400D01*
X023053Y003400D02*
X023427Y003400D01*
X023661Y003493D02*
X023754Y003400D01*
X023941Y003400D01*
X024035Y003493D01*
X024035Y003867D01*
X023941Y003960D01*
X023754Y003960D01*
X023661Y003867D01*
X023661Y003493D01*
X024269Y003493D02*
X024269Y003867D01*
X024362Y003960D01*
X024549Y003960D01*
X024642Y003867D01*
X024642Y003680D02*
X024455Y003680D01*
X024642Y003680D02*
X024642Y003493D01*
X024549Y003400D01*
X024362Y003400D01*
X024269Y003493D01*
X023053Y003400D02*
X023053Y003960D01*
X022819Y003680D02*
X022445Y003680D01*
X022445Y003774D02*
X022445Y003400D01*
X021604Y003680D02*
X021230Y003680D01*
X020359Y017586D02*
X019985Y017586D01*
X019985Y018146D01*
X019751Y017960D02*
X019751Y017586D01*
X019751Y017866D02*
X019378Y017866D01*
X019378Y017960D02*
X019565Y018146D01*
X019751Y017960D01*
X019378Y017960D02*
X019378Y017586D01*
X018957Y017586D02*
X018957Y018146D01*
X018770Y018146D02*
X019144Y018146D01*
X018552Y018146D02*
X018365Y018146D01*
X018458Y018146D02*
X018458Y017586D01*
X018365Y017586D02*
X018552Y017586D01*
X018131Y017679D02*
X018131Y017866D01*
X017944Y017866D01*
X017757Y017679D02*
X017851Y017586D01*
X018037Y017586D01*
X018131Y017679D01*
X017757Y017679D02*
X017757Y018053D01*
X017851Y018146D01*
X018037Y018146D01*
X018131Y018053D01*
X017539Y018146D02*
X017352Y018146D01*
X017445Y018146D02*
X017445Y017586D01*
X017352Y017586D02*
X017539Y017586D01*
X017118Y017679D02*
X017118Y018053D01*
X017025Y018146D01*
X016744Y018146D01*
X016744Y017586D01*
X017025Y017586D01*
X017118Y017679D01*
D11*
X016430Y017100D02*
X013130Y017100D01*
X012680Y017550D01*
X020530Y017100D02*
X022730Y017100D01*
X024730Y017100D02*
X026130Y017100D01*
X026160Y017110D02*
X026610Y017560D01*
X026330Y018700D02*
X026680Y019050D01*
X025980Y019050D01*
X026330Y018700D01*
X026330Y018800D02*
X026180Y018950D01*
X026380Y018950D01*
X026330Y018900D02*
X026330Y018850D01*
X026330Y018800D02*
X026530Y019000D01*
X026130Y019000D01*
X025630Y018700D02*
X025280Y019050D01*
X024930Y018700D01*
X025630Y018700D01*
X025480Y018750D02*
X025180Y018750D01*
X025330Y018850D01*
X025280Y018950D02*
X025480Y018750D01*
X025280Y018950D02*
X025080Y018750D01*
D12*
X024505Y018291D02*
X024342Y018455D01*
X024178Y018455D01*
X024015Y018291D01*
X024178Y018103D02*
X024505Y018103D01*
X024260Y018103D02*
X024260Y017776D01*
X024178Y017776D02*
X024015Y017939D01*
X024178Y018103D01*
X024178Y017776D02*
X024505Y017776D01*
X024423Y017587D02*
X024096Y017587D01*
X024015Y017505D01*
X024015Y017260D01*
X024505Y017260D01*
X024505Y017505D01*
X024423Y017587D01*
X024423Y017071D02*
X024505Y016990D01*
X024505Y016826D01*
X024423Y016744D01*
X024260Y016826D02*
X024260Y016990D01*
X024342Y017071D01*
X024423Y017071D01*
X024260Y016826D02*
X024178Y016744D01*
X024096Y016744D01*
X024015Y016826D01*
X024015Y016990D01*
X024096Y017071D01*
X024015Y016564D02*
X024178Y016401D01*
X024342Y016401D01*
X024505Y016564D01*
X023505Y016564D02*
X023342Y016401D01*
X023178Y016401D01*
X023015Y016564D01*
X023096Y016744D02*
X023015Y016826D01*
X023015Y016990D01*
X023096Y017071D01*
X023260Y016990D02*
X023342Y017071D01*
X023423Y017071D01*
X023505Y016990D01*
X023505Y016826D01*
X023423Y016744D01*
X023260Y016826D02*
X023260Y016990D01*
X023260Y016826D02*
X023178Y016744D01*
X023096Y016744D01*
X023096Y017260D02*
X023423Y017260D01*
X023505Y017342D01*
X023505Y017505D01*
X023423Y017587D01*
X023505Y017776D02*
X023505Y018103D01*
X023505Y018291D02*
X023342Y018455D01*
X023178Y018455D01*
X023015Y018291D01*
X023015Y017776D02*
X023505Y017776D01*
X023096Y017587D02*
X023015Y017505D01*
X023015Y017342D01*
X023096Y017260D01*
X023096Y019369D02*
X023015Y019451D01*
X023015Y019615D01*
X023096Y019696D01*
X023178Y019696D01*
X023260Y019615D01*
X023342Y019696D01*
X023423Y019696D01*
X023505Y019615D01*
X023505Y019451D01*
X023423Y019369D01*
X023260Y019533D02*
X023260Y019615D01*
X022505Y019615D02*
X022015Y019615D01*
X022260Y019369D01*
X022260Y019696D01*
X021505Y019615D02*
X021505Y019451D01*
X021423Y019369D01*
X021260Y019369D02*
X021178Y019533D01*
X021178Y019615D01*
X021260Y019696D01*
X021423Y019696D01*
X021505Y019615D01*
X021260Y019369D02*
X021015Y019369D01*
X021015Y019696D01*
X020505Y019615D02*
X020505Y019451D01*
X020423Y019369D01*
X020260Y019369D01*
X020260Y019615D01*
X020342Y019696D01*
X020423Y019696D01*
X020505Y019615D01*
X020260Y019369D02*
X020096Y019533D01*
X020015Y019696D01*
X019505Y019369D02*
X019423Y019369D01*
X019096Y019696D01*
X019015Y019696D01*
X019015Y019369D01*
X017905Y019451D02*
X017823Y019369D01*
X017742Y019369D01*
X017660Y019451D01*
X017660Y019615D01*
X017742Y019696D01*
X017823Y019696D01*
X017905Y019615D01*
X017905Y019451D01*
X017660Y019451D02*
X017578Y019369D01*
X017496Y019369D01*
X017415Y019451D01*
X017415Y019615D01*
X017496Y019696D01*
X017578Y019696D01*
X017660Y019615D01*
X016905Y019615D02*
X016905Y019451D01*
X016823Y019369D01*
X016660Y019451D02*
X016660Y019696D01*
X016823Y019696D02*
X016496Y019696D01*
X016415Y019615D01*
X016415Y019451D01*
X016496Y019369D01*
X016578Y019369D01*
X016660Y019451D01*
X016905Y019615D02*
X016823Y019696D01*
X015905Y019615D02*
X015905Y019451D01*
X015823Y019369D01*
X015496Y019696D01*
X015823Y019696D01*
X015905Y019615D01*
X015823Y019369D02*
X015496Y019369D01*
X015415Y019451D01*
X015415Y019615D01*
X015496Y019696D01*
X014905Y019705D02*
X014905Y019541D01*
X014905Y019623D02*
X014415Y019623D01*
X014415Y019541D02*
X014415Y019705D01*
X014496Y019353D02*
X014415Y019271D01*
X014415Y019107D01*
X014496Y019026D01*
X014578Y019026D01*
X014660Y019107D01*
X014660Y019271D01*
X014742Y019353D01*
X014823Y019353D01*
X014905Y019271D01*
X014905Y019107D01*
X014823Y019026D01*
X014823Y018837D02*
X014496Y018837D01*
X014415Y018755D01*
X014415Y018592D01*
X014496Y018510D01*
X014823Y018510D01*
X014905Y018592D01*
X014905Y018755D01*
X014823Y018837D01*
X014905Y018321D02*
X014415Y018321D01*
X014578Y018158D01*
X014415Y017994D01*
X014905Y017994D01*
X015578Y018854D02*
X015415Y019017D01*
X015905Y019017D01*
X015905Y018854D02*
X015905Y019181D01*
X013905Y019099D02*
X013905Y018935D01*
X013823Y018854D01*
X013660Y018935D02*
X013660Y019099D01*
X013742Y019181D01*
X013823Y019181D01*
X013905Y019099D01*
X013823Y019369D02*
X013496Y019369D01*
X013415Y019451D01*
X013415Y019615D01*
X013496Y019696D01*
X013823Y019696D01*
X013905Y019615D01*
X013905Y019451D01*
X013823Y019369D01*
X013496Y019181D02*
X013415Y019099D01*
X013415Y018935D01*
X013496Y018854D01*
X013578Y018854D01*
X013660Y018935D01*
X013905Y018673D02*
X013905Y018510D01*
X013905Y018592D02*
X013415Y018592D01*
X013415Y018673D02*
X013415Y018510D01*
X013415Y018321D02*
X013905Y018321D01*
X013905Y017994D02*
X013415Y017994D01*
X013578Y018158D01*
X013415Y018321D01*
X012905Y018420D02*
X012823Y018338D01*
X012905Y018420D02*
X012905Y018583D01*
X012823Y018665D01*
X012742Y018665D01*
X012660Y018583D01*
X012660Y018420D01*
X012578Y018338D01*
X012496Y018338D01*
X012415Y018420D01*
X012415Y018583D01*
X012496Y018665D01*
X012496Y018854D02*
X012823Y018854D01*
X012905Y018935D01*
X012905Y019099D01*
X012823Y019181D01*
X012742Y019369D02*
X012415Y019696D01*
X012415Y019369D02*
X012905Y019369D01*
X012660Y019451D02*
X012905Y019696D01*
X012496Y019181D02*
X012415Y019099D01*
X012415Y018935D01*
X012496Y018854D01*
X003245Y014581D02*
X003245Y014265D01*
X003140Y014160D01*
X002930Y014160D01*
X002825Y014265D01*
X002825Y014581D01*
X002614Y014581D02*
X003245Y014581D01*
X003245Y013941D02*
X003245Y013730D01*
X003245Y013836D02*
X002614Y013836D01*
X002614Y013730D01*
X002930Y013506D02*
X002825Y013401D01*
X002825Y013191D01*
X002930Y013086D01*
X003140Y013086D01*
X003245Y013191D01*
X003245Y013401D01*
X003035Y013506D02*
X003035Y013086D01*
X003245Y012866D02*
X003245Y012656D01*
X003245Y012761D02*
X002825Y012761D01*
X002825Y012656D01*
X002614Y012761D02*
X002509Y012761D01*
X002930Y012432D02*
X002825Y012327D01*
X002825Y012117D01*
X002930Y012012D01*
X003035Y011788D02*
X003140Y011788D01*
X003245Y011682D01*
X003245Y011472D01*
X003140Y011367D01*
X002930Y011472D02*
X002930Y011682D01*
X003035Y011788D01*
X003245Y012012D02*
X002614Y012012D01*
X002720Y011788D02*
X002614Y011682D01*
X002614Y011472D01*
X002720Y011367D01*
X002825Y011367D01*
X002930Y011472D01*
X002930Y011143D02*
X002930Y010723D01*
X002825Y010498D02*
X002825Y010183D01*
X002930Y010078D01*
X003140Y010078D01*
X003245Y010183D01*
X003245Y010498D01*
X002614Y010498D01*
X003245Y009859D02*
X003245Y009648D01*
X003245Y009753D02*
X002614Y009753D01*
X002614Y009648D01*
X002930Y009424D02*
X003035Y009424D01*
X003035Y009004D01*
X003140Y009004D02*
X002930Y009004D01*
X002825Y009109D01*
X002825Y009319D01*
X002930Y009424D01*
X003245Y009319D02*
X003245Y009109D01*
X003140Y009004D01*
X003245Y008784D02*
X003245Y008574D01*
X003245Y008679D02*
X002825Y008679D01*
X002825Y008574D01*
X002614Y008679D02*
X002509Y008679D01*
X002930Y008350D02*
X002825Y008245D01*
X002825Y008035D01*
X002930Y007930D01*
X003035Y007705D02*
X003140Y007705D01*
X003245Y007600D01*
X003245Y007390D01*
X003140Y007285D01*
X002930Y007390D02*
X002930Y007600D01*
X003035Y007705D01*
X003245Y007930D02*
X002614Y007930D01*
X002720Y007705D02*
X002614Y007600D01*
X002614Y007390D01*
X002720Y007285D01*
X002825Y007285D01*
X002930Y007390D01*
X002930Y008350D02*
X003245Y008350D01*
X003245Y012432D02*
X002930Y012432D01*
X002930Y013506D02*
X003035Y013506D01*
X016055Y003178D02*
X016382Y003178D01*
X016545Y003014D01*
X016382Y002851D01*
X016055Y002851D01*
X016055Y002662D02*
X016055Y002335D01*
X016300Y002335D01*
X016218Y002498D01*
X016218Y002580D01*
X016300Y002662D01*
X016463Y002662D01*
X016545Y002580D01*
X016545Y002417D01*
X016463Y002335D01*
X017060Y002420D02*
X017142Y002338D01*
X017468Y002338D01*
X017550Y002420D01*
X017550Y002584D01*
X017468Y002665D01*
X017305Y002665D01*
X017305Y002502D01*
X017142Y002665D02*
X017060Y002584D01*
X017060Y002420D01*
X017060Y002854D02*
X017550Y003181D01*
X017060Y003181D01*
X017060Y003370D02*
X017060Y003615D01*
X017142Y003697D01*
X017468Y003697D01*
X017550Y003615D01*
X017550Y003370D01*
X017060Y003370D01*
X017060Y002854D02*
X017550Y002854D01*
X018060Y002854D02*
X018550Y003181D01*
X018060Y003181D01*
X018060Y003370D02*
X018060Y003615D01*
X018142Y003697D01*
X018468Y003697D01*
X018550Y003615D01*
X018550Y003370D01*
X018060Y003370D01*
X018060Y002854D02*
X018550Y002854D01*
X018468Y002665D02*
X018550Y002584D01*
X018550Y002420D01*
X018468Y002338D01*
X018142Y002338D01*
X018060Y002420D01*
X018060Y002584D01*
X018142Y002665D01*
X018305Y002665D02*
X018305Y002502D01*
X018305Y002665D02*
X018468Y002665D01*
X019055Y002662D02*
X019382Y002662D01*
X019545Y002498D01*
X019382Y002335D01*
X019055Y002335D01*
X019055Y002851D02*
X019055Y003014D01*
X019055Y002932D02*
X019545Y002932D01*
X019545Y002851D02*
X019545Y003014D01*
X019545Y003194D02*
X019055Y003194D01*
X019545Y003521D01*
X019055Y003521D01*
X025330Y003560D02*
X025330Y004160D01*
X026330Y004170D02*
X026330Y003560D01*
X026423Y019369D02*
X026096Y019369D01*
X026015Y019451D01*
X026015Y019615D01*
X026096Y019696D01*
X026423Y019369D01*
X026505Y019451D01*
X026505Y019615D01*
X026423Y019696D01*
X026096Y019696D01*
X025505Y019696D02*
X025505Y019369D01*
X025505Y019533D02*
X025015Y019533D01*
X025178Y019369D01*
X024505Y019369D02*
X024178Y019696D01*
X024096Y019696D01*
X024015Y019615D01*
X024015Y019451D01*
X024096Y019369D01*
X024505Y019369D02*
X024505Y019696D01*
D13*
X025405Y011668D02*
X025555Y011668D01*
X025630Y011592D01*
X025630Y011367D01*
X025780Y011367D02*
X025330Y011367D01*
X025330Y011592D01*
X025405Y011668D01*
X025405Y011207D02*
X025330Y011132D01*
X025330Y010982D01*
X025405Y010907D01*
X025480Y010907D01*
X025555Y010982D01*
X025555Y011132D01*
X025630Y011207D01*
X025705Y011207D01*
X025780Y011132D01*
X025780Y010982D01*
X025705Y010907D01*
X025705Y010747D02*
X025780Y010672D01*
X025780Y010522D01*
X025705Y010446D01*
X025405Y010446D01*
X025330Y010522D01*
X025330Y010672D01*
X025405Y010747D01*
X025330Y010290D02*
X025330Y010140D01*
X025330Y010215D02*
X025780Y010215D01*
X025780Y010140D02*
X025780Y010290D01*
X026100Y005007D02*
X026100Y004774D01*
X026275Y004774D01*
X026217Y004891D01*
X026217Y004949D01*
X026275Y005007D01*
X026392Y005007D01*
X026450Y004949D01*
X026450Y004832D01*
X026392Y004774D01*
X026450Y004639D02*
X026217Y004639D01*
X026100Y004522D01*
X026217Y004406D01*
X026450Y004406D01*
X026275Y004406D02*
X026275Y004639D01*
X025450Y004639D02*
X025217Y004639D01*
X025100Y004522D01*
X025217Y004406D01*
X025450Y004406D01*
X025275Y004406D02*
X025275Y004639D01*
X025275Y004774D02*
X025275Y005007D01*
X025100Y004949D02*
X025275Y004774D01*
X025450Y004949D02*
X025100Y004949D01*
X025217Y003326D02*
X025450Y003326D01*
X025275Y003326D02*
X025275Y003092D01*
X025217Y003092D02*
X025100Y003209D01*
X025217Y003326D01*
X025217Y003092D02*
X025450Y003092D01*
X025392Y002957D02*
X025158Y002957D01*
X025100Y002899D01*
X025100Y002724D01*
X025450Y002724D01*
X025450Y002899D01*
X025392Y002957D01*
X025392Y002589D02*
X025450Y002531D01*
X025450Y002414D01*
X025392Y002356D01*
X025275Y002414D02*
X025275Y002531D01*
X025333Y002589D01*
X025392Y002589D01*
X025275Y002414D02*
X025217Y002356D01*
X025158Y002356D01*
X025100Y002414D01*
X025100Y002531D01*
X025158Y002589D01*
X024450Y002589D02*
X024217Y002589D01*
X024100Y002472D01*
X024217Y002356D01*
X024450Y002356D01*
X024275Y002356D02*
X024275Y002589D01*
X024158Y002724D02*
X024100Y002782D01*
X024100Y002899D01*
X024158Y002957D01*
X024217Y002957D01*
X024275Y002899D01*
X024333Y002957D01*
X024392Y002957D01*
X024450Y002899D01*
X024450Y002782D01*
X024392Y002724D01*
X024275Y002841D02*
X024275Y002899D01*
X023450Y002957D02*
X023450Y002724D01*
X023217Y002957D01*
X023158Y002957D01*
X023100Y002899D01*
X023100Y002782D01*
X023158Y002724D01*
X023217Y002589D02*
X023450Y002589D01*
X023275Y002589D02*
X023275Y002356D01*
X023217Y002356D02*
X023100Y002472D01*
X023217Y002589D01*
X023217Y002356D02*
X023450Y002356D01*
X022350Y002356D02*
X022117Y002356D01*
X022000Y002472D01*
X022117Y002589D01*
X022350Y002589D01*
X022350Y002724D02*
X022350Y002957D01*
X022350Y002841D02*
X022000Y002841D01*
X022117Y002724D01*
X022175Y002589D02*
X022175Y002356D01*
X021450Y002356D02*
X021217Y002356D01*
X021100Y002472D01*
X021217Y002589D01*
X021450Y002589D01*
X021392Y002724D02*
X021158Y002724D01*
X021100Y002782D01*
X021100Y002899D01*
X021158Y002957D01*
X021392Y002724D01*
X021450Y002782D01*
X021450Y002899D01*
X021392Y002957D01*
X021158Y002957D01*
X021275Y002589D02*
X021275Y002356D01*
X018867Y004145D02*
X018717Y004295D01*
X018792Y004295D02*
X018567Y004295D01*
X018567Y004145D02*
X018567Y004595D01*
X018792Y004595D01*
X018867Y004520D01*
X018867Y004370D01*
X018792Y004295D01*
X018406Y004145D02*
X018106Y004145D01*
X018106Y004595D01*
X018406Y004595D01*
X018256Y004370D02*
X018106Y004370D01*
X017946Y004145D02*
X017946Y004595D01*
X017646Y004595D02*
X017646Y004145D01*
X017796Y004295D01*
X017946Y004145D01*
X017486Y004220D02*
X017486Y004520D01*
X017411Y004595D01*
X017260Y004595D01*
X017185Y004520D01*
X017185Y004220D01*
X017260Y004145D01*
X017411Y004145D01*
X017486Y004220D01*
X017025Y004370D02*
X016950Y004295D01*
X016725Y004295D01*
X016725Y004145D02*
X016725Y004595D01*
X016950Y004595D01*
X017025Y004520D01*
X017025Y004370D01*
X026100Y003092D02*
X026450Y003092D01*
X026450Y003326D01*
X026392Y002957D02*
X026450Y002899D01*
X026450Y002782D01*
X026392Y002724D01*
X026158Y002724D01*
X026100Y002782D01*
X026100Y002899D01*
X026158Y002957D01*
X026158Y002589D02*
X026100Y002531D01*
X026100Y002414D01*
X026158Y002356D01*
X026217Y002356D01*
X026275Y002414D01*
X026275Y002531D01*
X026333Y002589D01*
X026392Y002589D01*
X026450Y002531D01*
X026450Y002414D01*
X026392Y002356D01*
X004902Y019213D02*
X004174Y019213D01*
X004174Y019291D01*
X003386Y019291D01*
X003386Y019213D01*
X002658Y019213D01*
X002658Y019803D01*
X002560Y019803D01*
X002560Y020197D01*
X002658Y020197D01*
X002658Y020787D01*
X003386Y020787D01*
X003386Y020709D01*
X004174Y020709D01*
X004174Y020787D01*
X004902Y020787D01*
X004902Y019213D01*
X004174Y019213D02*
X004174Y019134D01*
X003386Y019134D01*
X003386Y019213D01*
X003308Y020000D02*
X003310Y020043D01*
X003316Y020085D01*
X003326Y020127D01*
X003339Y020168D01*
X003356Y020208D01*
X003377Y020245D01*
X003401Y020281D01*
X003428Y020314D01*
X003458Y020345D01*
X003491Y020373D01*
X003526Y020398D01*
X003563Y020419D01*
X003602Y020437D01*
X003642Y020451D01*
X003684Y020462D01*
X003726Y020469D01*
X003769Y020472D01*
X003812Y020471D01*
X003855Y020466D01*
X003897Y020457D01*
X003938Y020445D01*
X003978Y020429D01*
X004016Y020409D01*
X004052Y020386D01*
X004086Y020359D01*
X004118Y020330D01*
X004146Y020298D01*
X004172Y020263D01*
X004194Y020227D01*
X004213Y020188D01*
X004228Y020148D01*
X004240Y020107D01*
X004248Y020064D01*
X004252Y020021D01*
X004252Y019979D01*
X004248Y019936D01*
X004240Y019893D01*
X004228Y019852D01*
X004213Y019812D01*
X004194Y019773D01*
X004172Y019737D01*
X004146Y019702D01*
X004118Y019670D01*
X004086Y019641D01*
X004052Y019614D01*
X004016Y019591D01*
X003978Y019571D01*
X003938Y019555D01*
X003897Y019543D01*
X003855Y019534D01*
X003812Y019529D01*
X003769Y019528D01*
X003726Y019531D01*
X003684Y019538D01*
X003642Y019549D01*
X003602Y019563D01*
X003563Y019581D01*
X003526Y019602D01*
X003491Y019627D01*
X003458Y019655D01*
X003428Y019686D01*
X003401Y019719D01*
X003377Y019755D01*
X003356Y019792D01*
X003339Y019832D01*
X003326Y019873D01*
X003316Y019915D01*
X003310Y019957D01*
X003308Y020000D01*
X003189Y020000D02*
X003191Y020048D01*
X003197Y020096D01*
X003207Y020143D01*
X003220Y020189D01*
X003238Y020234D01*
X003258Y020278D01*
X003283Y020320D01*
X003311Y020359D01*
X003341Y020396D01*
X003375Y020430D01*
X003412Y020462D01*
X003450Y020491D01*
X003491Y020516D01*
X003534Y020538D01*
X003579Y020556D01*
X003625Y020570D01*
X003672Y020581D01*
X003720Y020588D01*
X003768Y020591D01*
X003816Y020590D01*
X003864Y020585D01*
X003912Y020576D01*
X003958Y020564D01*
X004003Y020547D01*
X004047Y020527D01*
X004089Y020504D01*
X004129Y020477D01*
X004167Y020447D01*
X004202Y020414D01*
X004234Y020378D01*
X004264Y020340D01*
X004290Y020299D01*
X004312Y020256D01*
X004332Y020212D01*
X004347Y020167D01*
X004359Y020120D01*
X004367Y020072D01*
X004371Y020024D01*
X004371Y019976D01*
X004367Y019928D01*
X004359Y019880D01*
X004347Y019833D01*
X004332Y019788D01*
X004312Y019744D01*
X004290Y019701D01*
X004264Y019660D01*
X004234Y019622D01*
X004202Y019586D01*
X004167Y019553D01*
X004129Y019523D01*
X004089Y019496D01*
X004047Y019473D01*
X004003Y019453D01*
X003958Y019436D01*
X003912Y019424D01*
X003864Y019415D01*
X003816Y019410D01*
X003768Y019409D01*
X003720Y019412D01*
X003672Y019419D01*
X003625Y019430D01*
X003579Y019444D01*
X003534Y019462D01*
X003491Y019484D01*
X003450Y019509D01*
X003412Y019538D01*
X003375Y019570D01*
X003341Y019604D01*
X003311Y019641D01*
X003283Y019680D01*
X003258Y019722D01*
X003238Y019766D01*
X003220Y019811D01*
X003207Y019857D01*
X003197Y019904D01*
X003191Y019952D01*
X003189Y020000D01*
X003386Y020787D02*
X003386Y020866D01*
X004174Y020866D01*
X004174Y020787D01*
D14*
X008180Y020800D02*
X008180Y020300D01*
X008430Y020050D01*
X008930Y020050D01*
X009180Y020300D01*
X009180Y020800D01*
X008930Y021050D01*
X008430Y021050D01*
X008180Y020800D01*
X009180Y020800D02*
X009430Y021050D01*
X009930Y021050D01*
X010180Y020800D01*
X010430Y021050D01*
X010930Y021050D01*
X011180Y020800D01*
X011430Y021050D01*
X011930Y021050D01*
X012180Y020800D01*
X012430Y021050D01*
X012930Y021050D01*
X013180Y020800D01*
X013430Y021050D01*
X013930Y021050D01*
X014180Y020800D01*
X014430Y021050D01*
X014930Y021050D01*
X015180Y020800D01*
X015430Y021050D01*
X015930Y021050D01*
X016180Y020800D01*
X016430Y021050D01*
X016930Y021050D01*
X017180Y020800D01*
X017430Y021050D01*
X017930Y021050D01*
X018180Y020800D01*
X018180Y020300D01*
X017930Y020050D01*
X017430Y020050D01*
X017180Y020300D01*
X016930Y020050D01*
X016430Y020050D01*
X016180Y020300D01*
X016180Y020800D01*
X016180Y020300D02*
X015930Y020050D01*
X015430Y020050D01*
X015180Y020300D01*
X014930Y020050D01*
X014430Y020050D01*
X014180Y020300D01*
X013930Y020050D01*
X013430Y020050D01*
X013180Y020300D01*
X013180Y020800D01*
X013180Y020300D02*
X012930Y020050D01*
X012430Y020050D01*
X012180Y020300D01*
X011930Y020050D01*
X011430Y020050D01*
X011180Y020300D01*
X010930Y020050D01*
X010430Y020050D01*
X010180Y020300D01*
X010180Y020800D01*
X010180Y020300D02*
X009930Y020050D01*
X009430Y020050D01*
X009180Y020300D01*
X008872Y019753D02*
X008872Y019420D01*
X008371Y019420D01*
X008455Y019238D02*
X008371Y019154D01*
X008371Y018987D01*
X008455Y018904D01*
X008788Y018904D01*
X008872Y018987D01*
X008872Y019154D01*
X008788Y019238D01*
X008788Y018722D02*
X008872Y018638D01*
X008872Y018472D01*
X008788Y018388D01*
X008622Y018472D02*
X008538Y018388D01*
X008455Y018388D01*
X008371Y018472D01*
X008371Y018638D01*
X008455Y018722D01*
X008622Y018638D02*
X008705Y018722D01*
X008788Y018722D01*
X008622Y018638D02*
X008622Y018472D01*
X009371Y018472D02*
X009455Y018388D01*
X009538Y018388D01*
X009622Y018472D01*
X009622Y018638D01*
X009705Y018722D01*
X009788Y018722D01*
X009872Y018638D01*
X009872Y018472D01*
X009788Y018388D01*
X009371Y018472D02*
X009371Y018638D01*
X009455Y018722D01*
X009371Y018904D02*
X009371Y019154D01*
X009455Y019238D01*
X009788Y019238D01*
X009872Y019154D01*
X009872Y018904D01*
X009371Y018904D01*
X009538Y019420D02*
X009371Y019586D01*
X009538Y019753D01*
X009872Y019753D01*
X009622Y019753D02*
X009622Y019420D01*
X009538Y019420D02*
X009872Y019420D01*
X010371Y019420D02*
X010371Y019753D01*
X010622Y019586D02*
X010622Y019420D01*
X010872Y019420D02*
X010371Y019420D01*
X010371Y019238D02*
X010371Y018904D01*
X010872Y018904D01*
X010872Y019238D01*
X010622Y019071D02*
X010622Y018904D01*
X010622Y018722D02*
X010455Y018722D01*
X010371Y018638D01*
X010371Y018388D01*
X010872Y018388D01*
X010705Y018388D02*
X010705Y018638D01*
X010622Y018722D01*
X010705Y018555D02*
X010872Y018722D01*
X010872Y018206D02*
X010538Y018206D01*
X010371Y018039D01*
X010538Y017873D01*
X010872Y017873D01*
X010622Y017873D02*
X010622Y018206D01*
X011417Y018462D02*
X011500Y018378D01*
X011834Y018378D01*
X011917Y018462D01*
X011917Y018628D01*
X011834Y018712D01*
X011667Y018712D01*
X011667Y018545D01*
X011500Y018712D02*
X011417Y018628D01*
X011417Y018462D01*
X011417Y018894D02*
X011917Y019228D01*
X011417Y019228D01*
X011417Y019410D02*
X011417Y019660D01*
X011500Y019743D01*
X011834Y019743D01*
X011917Y019660D01*
X011917Y019410D01*
X011417Y019410D01*
X011417Y018894D02*
X011917Y018894D01*
X012180Y020300D02*
X012180Y020800D01*
X011180Y020800D02*
X011180Y020300D01*
X014180Y020300D02*
X014180Y020800D01*
X015180Y020800D02*
X015180Y020300D01*
X016470Y019120D02*
X016850Y019120D01*
X016850Y018993D02*
X016470Y018993D01*
X016596Y018930D02*
X016596Y019120D01*
X016596Y019184D01*
X016723Y019184D02*
X016723Y018930D01*
X015900Y018620D02*
X015520Y018620D01*
X015646Y018620D02*
X015646Y018684D01*
X015646Y018620D02*
X015646Y018430D01*
X015773Y018430D02*
X015773Y018684D01*
X015900Y018493D02*
X015520Y018493D01*
X017410Y017410D02*
X017410Y017030D01*
X017537Y017030D01*
X017680Y017157D02*
X017934Y017157D01*
X017934Y017284D02*
X017870Y017284D01*
X017680Y017284D01*
X017743Y017410D02*
X017743Y017030D01*
X017870Y017030D02*
X017870Y017410D01*
X018085Y017284D02*
X018339Y017284D01*
X018339Y017157D02*
X018085Y017157D01*
X018490Y017157D02*
X018681Y017157D01*
X018744Y017220D01*
X018744Y017347D01*
X018681Y017410D01*
X018490Y017410D01*
X018490Y017030D01*
X018896Y017030D02*
X019022Y017157D01*
X019149Y017030D01*
X019149Y017410D01*
X019301Y017410D02*
X019427Y017284D01*
X019554Y017410D01*
X019554Y017030D01*
X019706Y017030D02*
X019833Y017030D01*
X019833Y017410D01*
X019706Y017410D01*
X019301Y017410D02*
X019301Y017030D01*
X018896Y017030D02*
X018896Y017410D01*
X017537Y017410D02*
X017410Y017410D01*
X020120Y018993D02*
X020500Y018993D01*
X020500Y019120D02*
X020120Y019120D01*
X020246Y019120D02*
X020246Y018930D01*
X020373Y018930D02*
X020373Y019184D01*
X020246Y019184D02*
X020246Y019120D01*
X021070Y019120D02*
X021450Y019120D01*
X021450Y018993D02*
X021070Y018993D01*
X021196Y018930D02*
X021196Y019120D01*
X021196Y019184D01*
X021323Y019184D02*
X021323Y018930D01*
X021530Y020050D02*
X021030Y020050D01*
X020780Y020300D01*
X020530Y020050D01*
X020030Y020050D01*
X019780Y020300D01*
X019530Y020050D01*
X019030Y020050D01*
X018780Y020300D01*
X018780Y020800D01*
X019030Y021050D01*
X019530Y021050D01*
X019780Y020800D01*
X020030Y021050D01*
X020530Y021050D01*
X020780Y020800D01*
X021030Y021050D01*
X021530Y021050D01*
X021780Y020800D01*
X022030Y021050D01*
X022530Y021050D01*
X022780Y020800D01*
X023030Y021050D01*
X023530Y021050D01*
X023780Y020800D01*
X024030Y021050D01*
X024530Y021050D01*
X024780Y020800D01*
X025030Y021050D01*
X025530Y021050D01*
X025780Y020800D01*
X026030Y021050D01*
X026530Y021050D01*
X026780Y020800D01*
X026780Y020300D01*
X026530Y020050D01*
X026030Y020050D01*
X025780Y020300D01*
X025530Y020050D01*
X025030Y020050D01*
X024780Y020300D01*
X024780Y020800D01*
X024780Y020300D02*
X024530Y020050D01*
X024030Y020050D01*
X023780Y020300D01*
X023530Y020050D01*
X023030Y020050D01*
X022780Y020300D01*
X022530Y020050D01*
X022030Y020050D01*
X021780Y020300D01*
X021780Y020800D01*
X021780Y020300D02*
X021530Y020050D01*
X020780Y020300D02*
X020780Y020800D01*
X019780Y020800D02*
X019780Y020300D01*
X017180Y020300D02*
X017180Y020800D01*
X022780Y020800D02*
X022780Y020300D01*
X023780Y020300D02*
X023780Y020800D01*
X023323Y019184D02*
X023323Y018930D01*
X023196Y018930D02*
X023196Y019120D01*
X023196Y019184D01*
X023070Y019120D02*
X023450Y019120D01*
X023450Y018993D02*
X023070Y018993D01*
X025048Y018534D02*
X025548Y018200D01*
X025548Y018534D02*
X025048Y018200D01*
X025048Y018018D02*
X025048Y017685D01*
X025048Y017852D02*
X025548Y017852D01*
X026050Y017930D02*
X026050Y017680D01*
X026550Y017680D01*
X026383Y017680D02*
X026383Y017930D01*
X026300Y018014D01*
X026133Y018014D01*
X026050Y017930D01*
X026050Y018196D02*
X026550Y018529D01*
X026550Y018196D02*
X026050Y018529D01*
X026550Y018014D02*
X026383Y017847D01*
X025780Y020300D02*
X025780Y020800D01*
X026080Y013050D02*
X027580Y013050D01*
X027830Y012800D01*
X027830Y012300D01*
X027580Y012050D01*
X026080Y012050D01*
X025830Y011800D01*
X025830Y011300D01*
X026080Y011050D01*
X025830Y010800D01*
X025830Y010300D01*
X026080Y010050D01*
X027580Y010050D01*
X027830Y010300D01*
X027830Y010800D01*
X027580Y011050D01*
X026080Y011050D01*
X026080Y012050D02*
X025830Y012300D01*
X025830Y012800D01*
X026080Y013050D01*
X027580Y012050D02*
X027830Y011800D01*
X027830Y011300D01*
X027580Y011050D01*
X027616Y008899D02*
X027836Y008899D01*
X027616Y008899D02*
X027542Y008825D01*
X027542Y008679D01*
X027616Y008605D01*
X027542Y008438D02*
X027542Y008218D01*
X027616Y008145D01*
X027763Y008145D01*
X027836Y008218D01*
X027836Y008438D01*
X027836Y008605D02*
X027396Y008605D01*
X027542Y007985D02*
X027542Y007838D01*
X027469Y007911D02*
X027763Y007911D01*
X027836Y007985D01*
X027836Y007678D02*
X027836Y007531D01*
X027836Y007604D02*
X027542Y007604D01*
X027542Y007531D01*
X027396Y007604D02*
X027322Y007604D01*
X027542Y007364D02*
X027763Y007364D01*
X027836Y007291D01*
X027763Y007217D01*
X027836Y007144D01*
X027763Y007071D01*
X027542Y007071D01*
X027469Y006904D02*
X027396Y006830D01*
X027396Y006684D01*
X027469Y006610D01*
X027542Y006610D01*
X027616Y006684D01*
X027616Y006830D01*
X027689Y006904D01*
X027763Y006904D01*
X027836Y006830D01*
X027836Y006684D01*
X027763Y006610D01*
X027763Y005983D02*
X027836Y005910D01*
X027836Y005763D01*
X027763Y005689D01*
X027469Y005689D01*
X027396Y005763D01*
X027396Y005910D01*
X027469Y005983D01*
X027469Y005523D02*
X027396Y005449D01*
X027396Y005302D01*
X027469Y005229D01*
X027396Y005069D02*
X027396Y004922D01*
X027396Y004996D02*
X027836Y004996D01*
X027836Y005069D02*
X027836Y004922D01*
X027836Y005229D02*
X027542Y005523D01*
X027469Y005523D01*
X027836Y005523D02*
X027836Y005229D01*
X026530Y002050D02*
X026030Y002050D01*
X025780Y001800D01*
X025780Y001300D01*
X026030Y001050D01*
X026530Y001050D01*
X026780Y001300D01*
X026780Y001800D01*
X026530Y002050D01*
X025780Y001800D02*
X025530Y002050D01*
X025030Y002050D01*
X024780Y001800D01*
X024780Y001300D01*
X025030Y001050D01*
X025530Y001050D01*
X025780Y001300D01*
X024780Y001300D02*
X024530Y001050D01*
X024030Y001050D01*
X023780Y001300D01*
X023530Y001050D01*
X023030Y001050D01*
X022780Y001300D01*
X022530Y001050D01*
X022030Y001050D01*
X021780Y001300D01*
X021530Y001050D01*
X021030Y001050D01*
X020780Y001300D01*
X020780Y001800D01*
X021030Y002050D01*
X021530Y002050D01*
X021780Y001800D01*
X022030Y002050D01*
X022530Y002050D01*
X022780Y001800D01*
X022780Y001300D01*
X022780Y001800D02*
X023030Y002050D01*
X023530Y002050D01*
X023780Y001800D01*
X024030Y002050D01*
X024530Y002050D01*
X024780Y001800D01*
X023780Y001800D02*
X023780Y001300D01*
X021780Y001300D02*
X021780Y001800D01*
X019780Y001800D02*
X019780Y001300D01*
X019530Y001050D01*
X019030Y001050D01*
X018780Y001300D01*
X018530Y001050D01*
X018030Y001050D01*
X017780Y001300D01*
X017530Y001050D01*
X017030Y001050D01*
X016780Y001300D01*
X016530Y001050D01*
X016030Y001050D01*
X015780Y001300D01*
X015530Y001050D01*
X015030Y001050D01*
X014780Y001300D01*
X014530Y001050D01*
X014030Y001050D01*
X013780Y001300D01*
X013530Y001050D01*
X013030Y001050D01*
X012780Y001300D01*
X012530Y001050D01*
X012030Y001050D01*
X011780Y001300D01*
X011780Y001800D01*
X012030Y002050D01*
X012530Y002050D01*
X012780Y001800D01*
X013030Y002050D01*
X013530Y002050D01*
X013780Y001800D01*
X013780Y001300D01*
X013780Y001800D02*
X014030Y002050D01*
X014530Y002050D01*
X014780Y001800D01*
X015030Y002050D01*
X015530Y002050D01*
X015780Y001800D01*
X016030Y002050D01*
X016530Y002050D01*
X016780Y001800D01*
X016780Y001300D01*
X016780Y001800D02*
X017030Y002050D01*
X017530Y002050D01*
X017780Y001800D01*
X018030Y002050D01*
X018530Y002050D01*
X018780Y001800D01*
X019030Y002050D01*
X019530Y002050D01*
X019780Y001800D01*
X018780Y001800D02*
X018780Y001300D01*
X017780Y001300D02*
X017780Y001800D01*
X015780Y001800D02*
X015780Y001300D01*
X014780Y001300D02*
X014780Y001800D01*
X015033Y002280D02*
X014950Y002363D01*
X014950Y002530D01*
X015033Y002614D01*
X015116Y002614D01*
X015200Y002530D01*
X015283Y002614D01*
X015367Y002614D01*
X015450Y002530D01*
X015450Y002363D01*
X015367Y002280D01*
X015200Y002447D02*
X015200Y002530D01*
X015283Y002796D02*
X014950Y002796D01*
X015283Y002796D02*
X015450Y002962D01*
X015283Y003129D01*
X014950Y003129D01*
X015033Y003311D02*
X014950Y003395D01*
X014950Y003561D01*
X015033Y003645D01*
X015116Y003645D01*
X015200Y003561D01*
X015283Y003645D01*
X015367Y003645D01*
X015450Y003561D01*
X015450Y003395D01*
X015367Y003311D01*
X015200Y003478D02*
X015200Y003561D01*
X014350Y003611D02*
X014350Y003445D01*
X014267Y003361D01*
X014100Y003445D02*
X014100Y003611D01*
X014183Y003695D01*
X014267Y003695D01*
X014350Y003611D01*
X014350Y003877D02*
X014350Y004211D01*
X014100Y004044D02*
X014100Y003877D01*
X013933Y003695D02*
X013850Y003611D01*
X013850Y003445D01*
X013933Y003361D01*
X014016Y003361D01*
X014100Y003445D01*
X014350Y003179D02*
X014350Y002846D01*
X013850Y002846D01*
X013850Y003179D01*
X014100Y003012D02*
X014100Y002846D01*
X014100Y002664D02*
X014183Y002580D01*
X014183Y002330D01*
X014183Y002497D02*
X014350Y002664D01*
X014100Y002664D02*
X013933Y002664D01*
X013850Y002580D01*
X013850Y002330D01*
X014350Y002330D01*
X013500Y002330D02*
X013500Y002497D01*
X013500Y002413D02*
X013000Y002413D01*
X013000Y002330D02*
X013000Y002497D01*
X013083Y002674D02*
X013000Y002757D01*
X013000Y002924D01*
X013083Y003007D01*
X013417Y003007D01*
X013500Y002924D01*
X013500Y002757D01*
X013417Y002674D01*
X013083Y002674D01*
X013000Y003189D02*
X013000Y003440D01*
X013083Y003523D01*
X013250Y003523D01*
X013333Y003440D01*
X013333Y003189D01*
X013500Y003189D02*
X013000Y003189D01*
X013333Y003356D02*
X013500Y003523D01*
X013500Y003705D02*
X013500Y004039D01*
X013500Y004221D02*
X013000Y004221D01*
X013000Y004554D01*
X013250Y004387D02*
X013250Y004221D01*
X013000Y004039D02*
X013000Y003705D01*
X013500Y003705D01*
X013250Y003705D02*
X013250Y003872D01*
X013850Y003877D02*
X014350Y003877D01*
X013850Y003877D02*
X013850Y004211D01*
X013850Y004393D02*
X013850Y004726D01*
X013850Y004559D02*
X014350Y004559D01*
X012780Y001800D02*
X012780Y001300D01*
D15*
X010107Y001650D02*
X009704Y002044D01*
X009704Y001256D01*
X010107Y001650D01*
X005894Y001858D02*
X005618Y001858D01*
X005894Y001858D02*
X005894Y002685D01*
X003768Y001858D02*
X001681Y001858D01*
X001681Y005402D01*
X005894Y005402D01*
X005894Y004575D01*
X007030Y006550D02*
X007530Y006550D01*
X007780Y006800D01*
X008030Y006550D01*
X008530Y006550D01*
X008780Y006800D01*
X009030Y006550D01*
X009530Y006550D01*
X009780Y006800D01*
X010030Y006550D01*
X010530Y006550D01*
X010780Y006800D01*
X011030Y006550D01*
X011530Y006550D01*
X011780Y006800D01*
X012030Y006550D01*
X012530Y006550D01*
X012780Y006800D01*
X013030Y006550D01*
X013530Y006550D01*
X013780Y006800D01*
X014030Y006550D01*
X014530Y006550D01*
X014780Y006800D01*
X015030Y006550D01*
X015530Y006550D01*
X015780Y006800D01*
X016030Y006550D01*
X016530Y006550D01*
X016780Y006800D01*
X017030Y006550D01*
X017530Y006550D01*
X017780Y006800D01*
X018030Y006550D01*
X018530Y006550D01*
X018780Y006800D01*
X019030Y006550D01*
X019530Y006550D01*
X019780Y006800D01*
X020030Y006550D01*
X020530Y006550D01*
X020780Y006800D01*
X020780Y007300D01*
X020530Y007550D01*
X020030Y007550D01*
X019780Y007300D01*
X019530Y007550D01*
X019030Y007550D01*
X018780Y007300D01*
X018530Y007550D01*
X018030Y007550D01*
X017780Y007300D01*
X017530Y007550D01*
X017030Y007550D01*
X016780Y007300D01*
X016530Y007550D01*
X016030Y007550D01*
X015780Y007300D01*
X015530Y007550D01*
X015030Y007550D01*
X014780Y007300D01*
X014530Y007550D01*
X014030Y007550D01*
X013780Y007300D01*
X013530Y007550D01*
X013030Y007550D01*
X012780Y007300D01*
X012530Y007550D01*
X012030Y007550D01*
X011780Y007300D01*
X011530Y007550D01*
X011030Y007550D01*
X010780Y007300D01*
X010530Y007550D01*
X010030Y007550D01*
X009780Y007300D01*
X009530Y007550D01*
X009030Y007550D01*
X008780Y007300D01*
X008530Y007550D01*
X008030Y007550D01*
X007780Y007300D01*
X007530Y007550D01*
X007030Y007550D01*
X006780Y007300D01*
X006780Y006800D01*
X007030Y006550D01*
X007030Y014550D02*
X007530Y014550D01*
X007780Y014800D01*
X008030Y014550D01*
X008530Y014550D01*
X008780Y014800D01*
X009030Y014550D01*
X009530Y014550D01*
X009780Y014800D01*
X010030Y014550D01*
X010530Y014550D01*
X010780Y014800D01*
X011030Y014550D01*
X011530Y014550D01*
X011780Y014800D01*
X012030Y014550D01*
X012530Y014550D01*
X012780Y014800D01*
X013030Y014550D01*
X013530Y014550D01*
X013780Y014800D01*
X014030Y014550D01*
X014530Y014550D01*
X014780Y014800D01*
X015030Y014550D01*
X015530Y014550D01*
X015780Y014800D01*
X016030Y014550D01*
X016530Y014550D01*
X016780Y014800D01*
X017030Y014550D01*
X017530Y014550D01*
X017780Y014800D01*
X018030Y014550D01*
X018530Y014550D01*
X018780Y014800D01*
X019030Y014550D01*
X019530Y014550D01*
X019780Y014800D01*
X020030Y014550D01*
X020530Y014550D01*
X020780Y014800D01*
X020780Y015300D01*
X020530Y015550D01*
X020030Y015550D01*
X019780Y015300D01*
X019530Y015550D01*
X019030Y015550D01*
X018780Y015300D01*
X018530Y015550D01*
X018030Y015550D01*
X017780Y015300D01*
X017530Y015550D01*
X017030Y015550D01*
X016780Y015300D01*
X016530Y015550D01*
X016030Y015550D01*
X015780Y015300D01*
X015530Y015550D01*
X015030Y015550D01*
X014780Y015300D01*
X014530Y015550D01*
X014030Y015550D01*
X013780Y015300D01*
X013530Y015550D01*
X013030Y015550D01*
X012780Y015300D01*
X012530Y015550D01*
X012030Y015550D01*
X011780Y015300D01*
X011530Y015550D01*
X011030Y015550D01*
X010780Y015300D01*
X010530Y015550D01*
X010030Y015550D01*
X009780Y015300D01*
X009530Y015550D01*
X009030Y015550D01*
X008780Y015300D01*
X008530Y015550D01*
X008030Y015550D01*
X007780Y015300D01*
X007530Y015550D01*
X007030Y015550D01*
X006780Y015300D01*
X006780Y014800D01*
X007030Y014550D01*
X025091Y008267D02*
X025091Y005433D01*
X026469Y005433D01*
X026469Y008267D01*
X025091Y008267D01*
X025433Y012379D02*
X025713Y012379D01*
X025573Y012379D02*
X025573Y012799D01*
X025433Y012659D01*
D16*
X026650Y014550D02*
X026652Y014600D01*
X026658Y014650D01*
X026668Y014699D01*
X026682Y014747D01*
X026699Y014794D01*
X026720Y014839D01*
X026745Y014883D01*
X026773Y014924D01*
X026805Y014963D01*
X026839Y015000D01*
X026876Y015034D01*
X026916Y015064D01*
X026958Y015091D01*
X027002Y015115D01*
X027048Y015136D01*
X027095Y015152D01*
X027143Y015165D01*
X027193Y015174D01*
X027242Y015179D01*
X027293Y015180D01*
X027343Y015177D01*
X027392Y015170D01*
X027441Y015159D01*
X027489Y015144D01*
X027535Y015126D01*
X027580Y015104D01*
X027623Y015078D01*
X027664Y015049D01*
X027703Y015017D01*
X027739Y014982D01*
X027771Y014944D01*
X027801Y014904D01*
X027828Y014861D01*
X027851Y014817D01*
X027870Y014771D01*
X027886Y014723D01*
X027898Y014674D01*
X027906Y014625D01*
X027910Y014575D01*
X027910Y014525D01*
X027906Y014475D01*
X027898Y014426D01*
X027886Y014377D01*
X027870Y014329D01*
X027851Y014283D01*
X027828Y014239D01*
X027801Y014196D01*
X027771Y014156D01*
X027739Y014118D01*
X027703Y014083D01*
X027664Y014051D01*
X027623Y014022D01*
X027580Y013996D01*
X027535Y013974D01*
X027489Y013956D01*
X027441Y013941D01*
X027392Y013930D01*
X027343Y013923D01*
X027293Y013920D01*
X027242Y013921D01*
X027193Y013926D01*
X027143Y013935D01*
X027095Y013948D01*
X027048Y013964D01*
X027002Y013985D01*
X026958Y014009D01*
X026916Y014036D01*
X026876Y014066D01*
X026839Y014100D01*
X026805Y014137D01*
X026773Y014176D01*
X026745Y014217D01*
X026720Y014261D01*
X026699Y014306D01*
X026682Y014353D01*
X026668Y014401D01*
X026658Y014450D01*
X026652Y014500D01*
X026650Y014550D01*
X025613Y007441D02*
X025615Y007466D01*
X025621Y007491D01*
X025630Y007515D01*
X025643Y007537D01*
X025660Y007557D01*
X025679Y007574D01*
X025700Y007588D01*
X025724Y007598D01*
X025748Y007605D01*
X025774Y007608D01*
X025799Y007607D01*
X025824Y007602D01*
X025848Y007593D01*
X025871Y007581D01*
X025891Y007566D01*
X025909Y007547D01*
X025924Y007526D01*
X025935Y007503D01*
X025943Y007479D01*
X025947Y007454D01*
X025947Y007428D01*
X025943Y007403D01*
X025935Y007379D01*
X025924Y007356D01*
X025909Y007335D01*
X025891Y007316D01*
X025871Y007301D01*
X025848Y007289D01*
X025824Y007280D01*
X025799Y007275D01*
X025774Y007274D01*
X025748Y007277D01*
X025724Y007284D01*
X025700Y007294D01*
X025679Y007308D01*
X025660Y007325D01*
X025643Y007345D01*
X025630Y007367D01*
X025621Y007391D01*
X025615Y007416D01*
X025613Y007441D01*
X025613Y006259D02*
X025615Y006284D01*
X025621Y006309D01*
X025630Y006333D01*
X025643Y006355D01*
X025660Y006375D01*
X025679Y006392D01*
X025700Y006406D01*
X025724Y006416D01*
X025748Y006423D01*
X025774Y006426D01*
X025799Y006425D01*
X025824Y006420D01*
X025848Y006411D01*
X025871Y006399D01*
X025891Y006384D01*
X025909Y006365D01*
X025924Y006344D01*
X025935Y006321D01*
X025943Y006297D01*
X025947Y006272D01*
X025947Y006246D01*
X025943Y006221D01*
X025935Y006197D01*
X025924Y006174D01*
X025909Y006153D01*
X025891Y006134D01*
X025871Y006119D01*
X025848Y006107D01*
X025824Y006098D01*
X025799Y006093D01*
X025774Y006092D01*
X025748Y006095D01*
X025724Y006102D01*
X025700Y006112D01*
X025679Y006126D01*
X025660Y006143D01*
X025643Y006163D01*
X025630Y006185D01*
X025621Y006209D01*
X025615Y006234D01*
X025613Y006259D01*
X026650Y003550D02*
X026652Y003600D01*
X026658Y003650D01*
X026668Y003699D01*
X026682Y003747D01*
X026699Y003794D01*
X026720Y003839D01*
X026745Y003883D01*
X026773Y003924D01*
X026805Y003963D01*
X026839Y004000D01*
X026876Y004034D01*
X026916Y004064D01*
X026958Y004091D01*
X027002Y004115D01*
X027048Y004136D01*
X027095Y004152D01*
X027143Y004165D01*
X027193Y004174D01*
X027242Y004179D01*
X027293Y004180D01*
X027343Y004177D01*
X027392Y004170D01*
X027441Y004159D01*
X027489Y004144D01*
X027535Y004126D01*
X027580Y004104D01*
X027623Y004078D01*
X027664Y004049D01*
X027703Y004017D01*
X027739Y003982D01*
X027771Y003944D01*
X027801Y003904D01*
X027828Y003861D01*
X027851Y003817D01*
X027870Y003771D01*
X027886Y003723D01*
X027898Y003674D01*
X027906Y003625D01*
X027910Y003575D01*
X027910Y003525D01*
X027906Y003475D01*
X027898Y003426D01*
X027886Y003377D01*
X027870Y003329D01*
X027851Y003283D01*
X027828Y003239D01*
X027801Y003196D01*
X027771Y003156D01*
X027739Y003118D01*
X027703Y003083D01*
X027664Y003051D01*
X027623Y003022D01*
X027580Y002996D01*
X027535Y002974D01*
X027489Y002956D01*
X027441Y002941D01*
X027392Y002930D01*
X027343Y002923D01*
X027293Y002920D01*
X027242Y002921D01*
X027193Y002926D01*
X027143Y002935D01*
X027095Y002948D01*
X027048Y002964D01*
X027002Y002985D01*
X026958Y003009D01*
X026916Y003036D01*
X026876Y003066D01*
X026839Y003100D01*
X026805Y003137D01*
X026773Y003176D01*
X026745Y003217D01*
X026720Y003261D01*
X026699Y003306D01*
X026682Y003353D01*
X026668Y003401D01*
X026658Y003450D01*
X026652Y003500D01*
X026650Y003550D01*
X006150Y001550D02*
X006152Y001600D01*
X006158Y001650D01*
X006168Y001699D01*
X006182Y001747D01*
X006199Y001794D01*
X006220Y001839D01*
X006245Y001883D01*
X006273Y001924D01*
X006305Y001963D01*
X006339Y002000D01*
X006376Y002034D01*
X006416Y002064D01*
X006458Y002091D01*
X006502Y002115D01*
X006548Y002136D01*
X006595Y002152D01*
X006643Y002165D01*
X006693Y002174D01*
X006742Y002179D01*
X006793Y002180D01*
X006843Y002177D01*
X006892Y002170D01*
X006941Y002159D01*
X006989Y002144D01*
X007035Y002126D01*
X007080Y002104D01*
X007123Y002078D01*
X007164Y002049D01*
X007203Y002017D01*
X007239Y001982D01*
X007271Y001944D01*
X007301Y001904D01*
X007328Y001861D01*
X007351Y001817D01*
X007370Y001771D01*
X007386Y001723D01*
X007398Y001674D01*
X007406Y001625D01*
X007410Y001575D01*
X007410Y001525D01*
X007406Y001475D01*
X007398Y001426D01*
X007386Y001377D01*
X007370Y001329D01*
X007351Y001283D01*
X007328Y001239D01*
X007301Y001196D01*
X007271Y001156D01*
X007239Y001118D01*
X007203Y001083D01*
X007164Y001051D01*
X007123Y001022D01*
X007080Y000996D01*
X007035Y000974D01*
X006989Y000956D01*
X006941Y000941D01*
X006892Y000930D01*
X006843Y000923D01*
X006793Y000920D01*
X006742Y000921D01*
X006693Y000926D01*
X006643Y000935D01*
X006595Y000948D01*
X006548Y000964D01*
X006502Y000985D01*
X006458Y001009D01*
X006416Y001036D01*
X006376Y001066D01*
X006339Y001100D01*
X006305Y001137D01*
X006273Y001176D01*
X006245Y001217D01*
X006220Y001261D01*
X006199Y001306D01*
X006182Y001353D01*
X006168Y001401D01*
X006158Y001450D01*
X006152Y001500D01*
X006150Y001550D01*
X006650Y020550D02*
X006652Y020600D01*
X006658Y020650D01*
X006668Y020699D01*
X006682Y020747D01*
X006699Y020794D01*
X006720Y020839D01*
X006745Y020883D01*
X006773Y020924D01*
X006805Y020963D01*
X006839Y021000D01*
X006876Y021034D01*
X006916Y021064D01*
X006958Y021091D01*
X007002Y021115D01*
X007048Y021136D01*
X007095Y021152D01*
X007143Y021165D01*
X007193Y021174D01*
X007242Y021179D01*
X007293Y021180D01*
X007343Y021177D01*
X007392Y021170D01*
X007441Y021159D01*
X007489Y021144D01*
X007535Y021126D01*
X007580Y021104D01*
X007623Y021078D01*
X007664Y021049D01*
X007703Y021017D01*
X007739Y020982D01*
X007771Y020944D01*
X007801Y020904D01*
X007828Y020861D01*
X007851Y020817D01*
X007870Y020771D01*
X007886Y020723D01*
X007898Y020674D01*
X007906Y020625D01*
X007910Y020575D01*
X007910Y020525D01*
X007906Y020475D01*
X007898Y020426D01*
X007886Y020377D01*
X007870Y020329D01*
X007851Y020283D01*
X007828Y020239D01*
X007801Y020196D01*
X007771Y020156D01*
X007739Y020118D01*
X007703Y020083D01*
X007664Y020051D01*
X007623Y020022D01*
X007580Y019996D01*
X007535Y019974D01*
X007489Y019956D01*
X007441Y019941D01*
X007392Y019930D01*
X007343Y019923D01*
X007293Y019920D01*
X007242Y019921D01*
X007193Y019926D01*
X007143Y019935D01*
X007095Y019948D01*
X007048Y019964D01*
X007002Y019985D01*
X006958Y020009D01*
X006916Y020036D01*
X006876Y020066D01*
X006839Y020100D01*
X006805Y020137D01*
X006773Y020176D01*
X006745Y020217D01*
X006720Y020261D01*
X006699Y020306D01*
X006682Y020353D01*
X006668Y020401D01*
X006658Y020450D01*
X006652Y020500D01*
X006650Y020550D01*
D17*
X006030Y015800D02*
X020530Y015800D01*
X022030Y014300D01*
X022030Y010800D01*
X021030Y009800D01*
X021030Y006800D01*
X020530Y006300D01*
X006030Y006300D01*
X006030Y015800D01*
D18*
X004614Y018548D02*
X004614Y019009D01*
X004767Y019009D02*
X004460Y019009D01*
X004307Y019009D02*
X004000Y019009D01*
X004000Y018548D01*
X004307Y018548D01*
X004154Y018779D02*
X004000Y018779D01*
X003847Y018702D02*
X003847Y018625D01*
X003770Y018548D01*
X003616Y018548D01*
X003540Y018625D01*
X003616Y018779D02*
X003770Y018779D01*
X003847Y018702D01*
X003847Y018932D02*
X003770Y019009D01*
X003616Y019009D01*
X003540Y018932D01*
X003540Y018855D01*
X003616Y018779D01*
X003386Y019009D02*
X003079Y019009D01*
X003079Y018548D01*
X003386Y018548D01*
X003233Y018779D02*
X003079Y018779D01*
X002926Y018779D02*
X002849Y018702D01*
X002619Y018702D01*
X002772Y018702D02*
X002926Y018548D01*
X002926Y018779D02*
X002926Y018932D01*
X002849Y019009D01*
X002619Y019009D01*
X002619Y018548D01*
X008890Y002400D02*
X010670Y002400D01*
X010670Y000900D02*
X008890Y000900D01*
X025195Y003674D02*
X025325Y003501D01*
X025455Y003674D01*
X025325Y003777D02*
X025325Y003950D01*
X025195Y004053D02*
X025325Y004227D01*
X025455Y004053D01*
X026195Y004053D02*
X026325Y004227D01*
X026455Y004053D01*
X026325Y003950D02*
X026325Y003777D01*
X026195Y003674D02*
X026325Y003501D01*
X026455Y003674D01*
D19*
X017628Y009560D03*
X015083Y011305D03*
X013378Y009755D03*
X013373Y009760D03*
X013383Y009745D03*
X012613Y009750D03*
X012608Y009745D03*
X012608Y009740D03*
X012608Y009260D03*
X012613Y009250D03*
X011183Y009825D03*
X011173Y009800D03*
X011163Y009775D03*
X011153Y009750D03*
X011148Y009740D03*
X011143Y009725D03*
X011138Y009715D03*
X011133Y009705D03*
X011133Y009700D03*
X011128Y009690D03*
X011123Y009680D03*
X011123Y009675D03*
X011118Y009665D03*
X011113Y009655D03*
X011113Y009650D03*
X011108Y009640D03*
X011103Y009630D03*
X011103Y009625D03*
X011098Y009620D03*
X011098Y009615D03*
X011093Y009605D03*
X011093Y009600D03*
X011088Y009595D03*
X011088Y009590D03*
X011083Y009580D03*
X011083Y009575D03*
X011078Y009570D03*
X011078Y009565D03*
X011073Y009560D03*
X011073Y009555D03*
X011068Y009545D03*
X011068Y009540D03*
X011063Y009535D03*
X011063Y009530D03*
X011058Y009525D03*
X011058Y009520D03*
X011058Y009515D03*
X011053Y009510D03*
X011053Y009505D03*
X011048Y009500D03*
X011048Y009495D03*
X011048Y009490D03*
X011043Y009485D03*
X011043Y009480D03*
X011038Y009475D03*
X011038Y009470D03*
X011038Y009465D03*
X011033Y009460D03*
X011033Y009455D03*
X011028Y009450D03*
X011028Y009445D03*
X011023Y009435D03*
X011023Y009430D03*
X011018Y009425D03*
X011018Y009420D03*
X011013Y009410D03*
X011008Y009400D03*
X011008Y009395D03*
X011003Y009385D03*
X010998Y009375D03*
X010998Y009370D03*
X010993Y009360D03*
X010588Y009595D03*
X010583Y009605D03*
X010578Y009620D03*
X010573Y009630D03*
X010568Y009645D03*
X010563Y009655D03*
X010558Y009665D03*
X010558Y009670D03*
X010553Y009680D03*
X010548Y009690D03*
X010548Y009695D03*
X010543Y009700D03*
X010543Y009705D03*
X010538Y009715D03*
X010538Y009720D03*
X010533Y009725D03*
X010533Y009730D03*
X010528Y009735D03*
X010528Y009740D03*
X010528Y009745D03*
X010523Y009750D03*
X010523Y009755D03*
X010518Y009760D03*
X010518Y009765D03*
X010518Y009770D03*
X010513Y009775D03*
X010513Y009780D03*
X010508Y009785D03*
X010508Y009790D03*
X010503Y009800D03*
X010503Y009805D03*
X010498Y009810D03*
X010498Y009815D03*
X010493Y009825D03*
X010488Y009835D03*
X010488Y009840D03*
X010483Y009850D03*
X010478Y009860D03*
X010473Y009875D03*
X010468Y009885D03*
X010458Y009910D03*
X010448Y009935D03*
X010578Y008370D03*
X013958Y013255D03*
D20*
X013955Y013250D03*
X015075Y011310D03*
X013370Y009765D03*
X013365Y009770D03*
X013350Y009190D03*
X012620Y009240D03*
X012615Y009245D03*
X012610Y009255D03*
X012615Y009755D03*
X012620Y009760D03*
X011280Y010060D03*
X011275Y010050D03*
X011270Y010040D03*
X011270Y010035D03*
X011265Y010025D03*
X011260Y010015D03*
X011260Y010010D03*
X011255Y010005D03*
X011255Y010000D03*
X011250Y009990D03*
X011250Y009985D03*
X011245Y009980D03*
X011245Y009975D03*
X011240Y009965D03*
X011240Y009960D03*
X011235Y009955D03*
X011235Y009950D03*
X011230Y009940D03*
X011230Y009935D03*
X011225Y009930D03*
X011225Y009925D03*
X011220Y009920D03*
X011220Y009915D03*
X011220Y009910D03*
X011215Y009905D03*
X011215Y009900D03*
X011210Y009895D03*
X011210Y009890D03*
X011210Y009885D03*
X011205Y009880D03*
X011205Y009875D03*
X011200Y009870D03*
X011200Y009865D03*
X011195Y009860D03*
X011195Y009855D03*
X011195Y009850D03*
X011190Y009845D03*
X011190Y009840D03*
X011185Y009835D03*
X011185Y009830D03*
X011180Y009820D03*
X011180Y009815D03*
X011175Y009810D03*
X011175Y009805D03*
X011170Y009795D03*
X011170Y009790D03*
X011165Y009785D03*
X011165Y009780D03*
X011160Y009770D03*
X011160Y009765D03*
X011155Y009760D03*
X011155Y009755D03*
X011150Y009745D03*
X011145Y009735D03*
X011145Y009730D03*
X011140Y009720D03*
X011135Y009710D03*
X011130Y009695D03*
X011125Y009685D03*
X011120Y009670D03*
X011115Y009660D03*
X011110Y009645D03*
X011105Y009635D03*
X011095Y009610D03*
X011085Y009585D03*
X011070Y009550D03*
X010505Y009795D03*
X010495Y009820D03*
X010490Y009830D03*
X010485Y009845D03*
X010480Y009855D03*
X010475Y009865D03*
X010475Y009870D03*
X010470Y009880D03*
X010465Y009890D03*
X010465Y009895D03*
X010460Y009900D03*
X010460Y009905D03*
X010455Y009915D03*
X010455Y009920D03*
X010450Y009925D03*
X010450Y009930D03*
X010445Y009940D03*
X010445Y009945D03*
X010440Y009950D03*
X010440Y009955D03*
X010435Y009960D03*
X010435Y009965D03*
X010435Y009970D03*
X010430Y009975D03*
X010430Y009980D03*
X010425Y009985D03*
X010425Y009990D03*
X010420Y010000D03*
X010420Y010005D03*
X010415Y010010D03*
X010415Y010015D03*
X010410Y010025D03*
X010405Y010035D03*
X010405Y010040D03*
X010400Y010050D03*
X010395Y010060D03*
X010395Y010065D03*
X010790Y008890D03*
X010780Y008865D03*
X010755Y008805D03*
X010745Y008780D03*
X010740Y008770D03*
X010730Y008745D03*
X010720Y008720D03*
X010715Y008710D03*
X010710Y008695D03*
X010705Y008685D03*
X010700Y008670D03*
X010695Y008660D03*
X010690Y008650D03*
X010690Y008645D03*
X010685Y008635D03*
X010680Y008625D03*
X010675Y008615D03*
X010675Y008610D03*
X010670Y008600D03*
X010665Y008590D03*
X010665Y008585D03*
X010660Y008575D03*
X010660Y008570D03*
X010655Y008565D03*
X010655Y008560D03*
X010650Y008550D03*
X010645Y008540D03*
X010645Y008535D03*
X010640Y008530D03*
X010640Y008525D03*
X010635Y008515D03*
X010635Y008510D03*
X010630Y008505D03*
X010630Y008500D03*
X010625Y008490D03*
X010625Y008485D03*
X010620Y008480D03*
X010620Y008475D03*
X010615Y008470D03*
X010615Y008465D03*
X010615Y008460D03*
X010610Y008455D03*
X010610Y008450D03*
X010605Y008445D03*
X010605Y008440D03*
X010600Y008435D03*
X010600Y008430D03*
X010600Y008425D03*
X010595Y008420D03*
X010595Y008415D03*
X010590Y008410D03*
X010590Y008405D03*
X010590Y008400D03*
X010585Y008395D03*
X010585Y008390D03*
X010580Y008385D03*
X010580Y008380D03*
X010580Y008375D03*
X014900Y008920D03*
X016510Y008920D03*
X017745Y010065D03*
D21*
X017868Y009465D03*
X017743Y008925D03*
X015073Y011315D03*
X013363Y009775D03*
X012628Y009770D03*
X012623Y009765D03*
X012623Y009235D03*
X012628Y009230D03*
X011233Y009945D03*
X011243Y009970D03*
X011253Y009995D03*
X011263Y010020D03*
X011268Y010030D03*
X011273Y010045D03*
X011278Y010055D03*
X011283Y010065D03*
X010423Y009995D03*
X010413Y010020D03*
X010408Y010030D03*
X010403Y010045D03*
X010398Y010055D03*
X010838Y009005D03*
X010833Y008995D03*
X010833Y008990D03*
X010828Y008985D03*
X010828Y008980D03*
X010823Y008970D03*
X010823Y008965D03*
X010818Y008960D03*
X010818Y008955D03*
X010813Y008950D03*
X010813Y008945D03*
X010813Y008940D03*
X010808Y008935D03*
X010808Y008930D03*
X010803Y008925D03*
X010803Y008920D03*
X010798Y008910D03*
X010798Y008905D03*
X010793Y008900D03*
X010793Y008895D03*
X010788Y008885D03*
X010788Y008880D03*
X010783Y008875D03*
X010783Y008870D03*
X010778Y008860D03*
X010778Y008855D03*
X010773Y008850D03*
X010773Y008845D03*
X010768Y008840D03*
X010768Y008835D03*
X010768Y008830D03*
X010763Y008825D03*
X010763Y008820D03*
X010758Y008815D03*
X010758Y008810D03*
X010753Y008800D03*
X010753Y008795D03*
X010748Y008790D03*
X010748Y008785D03*
X010743Y008775D03*
X010738Y008765D03*
X010738Y008760D03*
X010733Y008755D03*
X010733Y008750D03*
X010728Y008740D03*
X010728Y008735D03*
X010723Y008730D03*
X010723Y008725D03*
X010718Y008715D03*
X010713Y008705D03*
X010713Y008700D03*
X010708Y008690D03*
X010703Y008680D03*
X010703Y008675D03*
X010698Y008665D03*
X010693Y008655D03*
X010688Y008640D03*
X010683Y008630D03*
X010678Y008620D03*
X010673Y008605D03*
X010668Y008595D03*
X010663Y008580D03*
X010653Y008555D03*
X010648Y008545D03*
X010638Y008520D03*
X010628Y008495D03*
D22*
X013005Y008900D03*
X013325Y009265D03*
X014900Y008900D03*
X014900Y010090D03*
X015335Y011060D03*
X016510Y008900D03*
X014015Y013350D03*
D23*
X013538Y011480D03*
X015343Y011055D03*
X017743Y010090D03*
X017733Y008900D03*
X011653Y011990D03*
D24*
X013990Y013310D03*
X015225Y011175D03*
X015230Y009920D03*
X015235Y009915D03*
X015410Y009740D03*
X015410Y009245D03*
X015410Y009240D03*
X015225Y009070D03*
X015220Y009065D03*
X014900Y008905D03*
X014555Y009905D03*
X014560Y009910D03*
X016000Y009740D03*
X016175Y009915D03*
X016180Y009920D03*
X016850Y009910D03*
X016855Y009905D03*
X017525Y009960D03*
X017510Y009615D03*
X017995Y009410D03*
X017500Y009035D03*
X016855Y009085D03*
X016510Y008905D03*
X016185Y009070D03*
X016000Y009240D03*
X016000Y009245D03*
X013005Y008905D03*
D25*
X014518Y009120D03*
X014523Y009115D03*
X014528Y009110D03*
X015248Y009085D03*
X015418Y009270D03*
X015418Y009275D03*
X015418Y009710D03*
X015418Y009715D03*
X015253Y009900D03*
X015248Y009905D03*
X014523Y009880D03*
X015993Y009715D03*
X015993Y009710D03*
X016158Y009900D03*
X016163Y009905D03*
X015993Y009275D03*
X015993Y009270D03*
X016158Y009090D03*
X016163Y009085D03*
X016883Y009110D03*
X016888Y009115D03*
X016893Y009120D03*
X017483Y009050D03*
X017488Y009045D03*
X017738Y008905D03*
X017998Y009045D03*
X018013Y009395D03*
X018008Y009400D03*
X017968Y009950D03*
X017513Y009950D03*
X017498Y009625D03*
X016888Y009880D03*
D26*
X016263Y009965D03*
X016268Y009025D03*
X015143Y009025D03*
X015148Y009965D03*
X013348Y009210D03*
X013008Y008910D03*
X017928Y009010D03*
D27*
X017555Y009010D03*
X016765Y009030D03*
X016510Y008910D03*
X016030Y009825D03*
X015380Y009825D03*
X014900Y008910D03*
X014645Y009030D03*
X016770Y009960D03*
X015155Y011240D03*
X013580Y011520D03*
X011775Y012015D03*
X013975Y013285D03*
D28*
X013980Y013295D03*
X017745Y010080D03*
X017550Y009590D03*
X017960Y009430D03*
X017945Y009015D03*
X017740Y008910D03*
X017540Y009015D03*
X016795Y009045D03*
X016020Y009185D03*
X016020Y009190D03*
X015390Y009185D03*
X015390Y009800D03*
X016020Y009800D03*
X016790Y009950D03*
X014620Y009950D03*
X013345Y009220D03*
D29*
X014900Y010070D03*
X015065Y011320D03*
X013610Y011540D03*
X011835Y012025D03*
X010840Y009020D03*
X010840Y009015D03*
X010840Y009010D03*
X010835Y009000D03*
X010825Y008975D03*
X010800Y008915D03*
X016510Y010070D03*
X017640Y009555D03*
D30*
X017898Y009455D03*
X017743Y008920D03*
X016508Y010075D03*
X014903Y010075D03*
X013413Y009685D03*
X013413Y009680D03*
X013408Y009690D03*
X013408Y009695D03*
X013403Y009705D03*
X013418Y009665D03*
X012583Y009690D03*
X012578Y009680D03*
X012578Y009675D03*
X012573Y009670D03*
X012573Y009665D03*
X012573Y009660D03*
X012568Y009645D03*
X012563Y009380D03*
X012568Y009360D03*
X012568Y009355D03*
X012573Y009345D03*
X012573Y009340D03*
X012573Y009335D03*
X012578Y009325D03*
X012578Y009320D03*
X012583Y009310D03*
X013008Y008915D03*
D31*
X013350Y009200D03*
X014900Y008915D03*
X016510Y008915D03*
X017910Y009450D03*
X015115Y011275D03*
X013595Y011530D03*
D32*
X013000Y010080D03*
X015135Y009970D03*
X015130Y009020D03*
X016280Y009020D03*
X016275Y009970D03*
X017745Y010075D03*
X017740Y008915D03*
X015140Y011255D03*
D33*
X015053Y011330D03*
X013948Y013240D03*
X017658Y009550D03*
X013008Y008920D03*
X012648Y009210D03*
X010843Y009035D03*
D34*
X011735Y008925D03*
X013310Y009295D03*
X013975Y008925D03*
X013050Y010090D03*
X012945Y010090D03*
X014950Y010090D03*
X015915Y008925D03*
X017790Y010090D03*
X009840Y008925D03*
X009400Y008925D03*
X009400Y010690D03*
D35*
X009808Y009165D03*
X009813Y009160D03*
X009818Y009155D03*
X009843Y009125D03*
X009848Y009120D03*
X009853Y009115D03*
X009858Y009110D03*
X009863Y009105D03*
X009868Y009100D03*
X009878Y009085D03*
X009883Y009080D03*
X009888Y009075D03*
X009893Y009070D03*
X009898Y009065D03*
X009903Y009060D03*
X009908Y009055D03*
X009913Y009050D03*
X009923Y009035D03*
X009928Y009030D03*
X009933Y009025D03*
X009938Y009020D03*
X009943Y009015D03*
X009948Y009010D03*
X009953Y009005D03*
X009973Y008980D03*
X009978Y008975D03*
X009983Y008970D03*
X009988Y008965D03*
X009993Y008960D03*
X012673Y009185D03*
X013008Y008925D03*
X013313Y009820D03*
X012678Y009815D03*
X015023Y011355D03*
X017683Y009540D03*
X017813Y009485D03*
D36*
X017840Y009475D03*
X016510Y008925D03*
X014900Y008925D03*
X013340Y009800D03*
X012650Y009795D03*
X012650Y009205D03*
X010840Y009045D03*
X010840Y009040D03*
X015045Y011335D03*
D37*
X015088Y011300D03*
X013603Y011535D03*
X012998Y010075D03*
X013388Y009735D03*
X013393Y009730D03*
X013393Y009725D03*
X012598Y009725D03*
X012598Y009720D03*
X012593Y009715D03*
X012588Y009705D03*
X012588Y009295D03*
X012593Y009285D03*
X012598Y009275D03*
X010683Y009360D03*
X010683Y009365D03*
X010678Y009370D03*
X010678Y009375D03*
X010673Y009385D03*
X010673Y009390D03*
X010668Y009395D03*
X010668Y009400D03*
X010663Y009410D03*
X010658Y009420D03*
X010658Y009425D03*
X010653Y009435D03*
X010648Y009450D03*
X010643Y009460D03*
X010633Y009485D03*
X010628Y009495D03*
X010618Y009520D03*
X009258Y008930D03*
X009258Y010685D03*
D38*
X009745Y009885D03*
X009740Y009880D03*
X009735Y009875D03*
X009730Y009870D03*
X009680Y009815D03*
X009675Y009810D03*
X009670Y009805D03*
X009665Y009800D03*
X009660Y009795D03*
X009655Y009790D03*
X009650Y009785D03*
X009645Y009780D03*
X009640Y009775D03*
X009635Y009770D03*
X009630Y009765D03*
X009625Y009760D03*
X009625Y009755D03*
X009620Y009750D03*
X009615Y009745D03*
X009610Y009740D03*
X009605Y009735D03*
X009600Y009730D03*
X009915Y009045D03*
X009920Y009040D03*
X009955Y009000D03*
X009960Y008995D03*
X009965Y008990D03*
X009970Y008985D03*
X009995Y008955D03*
X010000Y008950D03*
X010005Y008945D03*
X010010Y008940D03*
X010015Y008935D03*
X010020Y008930D03*
X010840Y009075D03*
X010840Y009080D03*
X012680Y009180D03*
X013000Y010065D03*
X015015Y011360D03*
X013940Y013225D03*
X017745Y010050D03*
X017695Y009535D03*
D39*
X017615Y009565D03*
X015100Y011290D03*
X015095Y011295D03*
X013400Y009715D03*
X013400Y009710D03*
X013395Y009720D03*
X013405Y009700D03*
X013350Y009195D03*
X012590Y009290D03*
X012585Y009300D03*
X012585Y009305D03*
X012580Y009315D03*
X012575Y009330D03*
X012580Y009685D03*
X012585Y009695D03*
X012585Y009700D03*
X012590Y009710D03*
X011875Y009710D03*
X011875Y009715D03*
X011875Y009720D03*
X011875Y009725D03*
X011875Y009730D03*
X011875Y009735D03*
X011875Y009740D03*
X011875Y009745D03*
X011875Y009750D03*
X011875Y009755D03*
X011875Y009760D03*
X011875Y009765D03*
X011875Y009770D03*
X011875Y009775D03*
X011875Y009780D03*
X011875Y009785D03*
X011875Y009790D03*
X011875Y009795D03*
X011875Y009800D03*
X011875Y009805D03*
X011875Y009810D03*
X011875Y009815D03*
X011875Y009820D03*
X011875Y009825D03*
X011875Y009705D03*
X011875Y009700D03*
X011875Y009695D03*
X011875Y009690D03*
X011875Y009685D03*
X011875Y009680D03*
X011875Y009675D03*
X011875Y009670D03*
X011875Y009665D03*
X011875Y009660D03*
X011875Y009655D03*
X011875Y009650D03*
X011875Y009645D03*
X011875Y009640D03*
X011875Y009635D03*
X011875Y009630D03*
X011875Y009625D03*
X011875Y009620D03*
X011875Y009615D03*
X011875Y009610D03*
X011875Y009605D03*
X011875Y009600D03*
X011875Y009595D03*
X011875Y009590D03*
X011875Y009585D03*
X011875Y009580D03*
X011875Y009575D03*
X011875Y009570D03*
X011875Y009565D03*
X011875Y009560D03*
X011875Y009555D03*
X011875Y009550D03*
X011875Y009545D03*
X011875Y009540D03*
X011875Y009535D03*
X011875Y009530D03*
X011875Y009525D03*
X011875Y009520D03*
X011875Y009515D03*
X011875Y009510D03*
X011875Y009505D03*
X011875Y009500D03*
X011875Y009495D03*
X011875Y009490D03*
X011875Y009485D03*
X011875Y009480D03*
X011875Y009475D03*
X011875Y009470D03*
X011875Y009465D03*
X011875Y009460D03*
X011875Y009455D03*
X011875Y009450D03*
X011875Y009445D03*
X011875Y009440D03*
X011875Y009435D03*
X011875Y009430D03*
X011875Y009425D03*
X011875Y009420D03*
X011875Y009415D03*
X011875Y009410D03*
X011875Y009405D03*
X011875Y009400D03*
X011875Y009395D03*
X011875Y009390D03*
X011875Y009385D03*
X011875Y009380D03*
X011875Y009375D03*
X011875Y009370D03*
X011875Y009365D03*
X011875Y009360D03*
X011875Y009355D03*
X011875Y009350D03*
X011875Y009345D03*
X011875Y009340D03*
X011875Y009335D03*
X011875Y009330D03*
X011875Y009325D03*
X011875Y009320D03*
X011875Y009315D03*
X011875Y009310D03*
X011875Y009305D03*
X011875Y009300D03*
X011875Y009295D03*
X011875Y009290D03*
X011875Y009285D03*
X011875Y009280D03*
X011875Y009275D03*
X011875Y009270D03*
X011875Y009265D03*
X011875Y009260D03*
X011875Y009255D03*
X011875Y009250D03*
X011875Y009245D03*
X011875Y009240D03*
X011875Y009235D03*
X011875Y009230D03*
X011875Y009225D03*
X011875Y009220D03*
X011875Y009215D03*
X011875Y009210D03*
X011875Y009205D03*
X011875Y009200D03*
X011875Y009195D03*
X011875Y009190D03*
X011875Y009185D03*
X011875Y009180D03*
X011875Y009175D03*
X011875Y009170D03*
X011875Y009165D03*
X011875Y009160D03*
X011875Y009155D03*
X011875Y009150D03*
X011875Y009145D03*
X011875Y009140D03*
X011875Y009135D03*
X011875Y009130D03*
X011875Y009125D03*
X011875Y009120D03*
X011875Y009115D03*
X011875Y009110D03*
X011875Y009105D03*
X011875Y009100D03*
X011875Y009095D03*
X011875Y009090D03*
X011875Y009085D03*
X011875Y009080D03*
X011875Y009075D03*
X011875Y009070D03*
X011875Y009065D03*
X011875Y009060D03*
X011875Y009055D03*
X011875Y009050D03*
X011875Y009045D03*
X011875Y009040D03*
X011875Y009035D03*
X011875Y009030D03*
X011875Y009025D03*
X011875Y009020D03*
X011875Y009015D03*
X011875Y009010D03*
X011875Y009005D03*
X011875Y009000D03*
X011875Y008995D03*
X011875Y008990D03*
X011875Y008985D03*
X011875Y008980D03*
X011875Y008975D03*
X011875Y008970D03*
X011875Y008965D03*
X011875Y008960D03*
X011875Y008955D03*
X011875Y008950D03*
X011875Y008945D03*
X011875Y008940D03*
X011875Y008935D03*
X011875Y008930D03*
X011875Y010070D03*
X011875Y010075D03*
X011875Y010080D03*
X011875Y010085D03*
X011875Y010090D03*
X011875Y010095D03*
X011875Y010100D03*
X011875Y010105D03*
X011875Y010110D03*
X011875Y010115D03*
X011875Y010120D03*
X011875Y010125D03*
X011875Y010130D03*
X011875Y010135D03*
X011875Y010140D03*
X011875Y010145D03*
X011875Y010150D03*
X011875Y010155D03*
X011875Y010160D03*
X011875Y010165D03*
X011875Y010170D03*
X011875Y010175D03*
X011875Y010180D03*
X011875Y010185D03*
X011875Y010190D03*
X011875Y010195D03*
X011875Y010200D03*
X011875Y010205D03*
X011875Y010210D03*
X011875Y010215D03*
X011875Y010220D03*
X011875Y010225D03*
X011875Y010230D03*
X011875Y010235D03*
X011875Y010240D03*
X011875Y010245D03*
X011875Y010250D03*
X011875Y010255D03*
X011875Y010260D03*
X011875Y010265D03*
X011875Y010270D03*
X011875Y010275D03*
X011875Y010280D03*
X011875Y010285D03*
X011875Y010290D03*
X011875Y010295D03*
X011875Y010300D03*
X011875Y010305D03*
X011875Y010310D03*
X011875Y010315D03*
X011875Y010320D03*
X011875Y010325D03*
X011875Y010330D03*
X011875Y010335D03*
X011875Y010340D03*
X011875Y010345D03*
X011875Y010350D03*
X011875Y010355D03*
X011875Y010360D03*
X011875Y010365D03*
X011875Y010370D03*
X011875Y010375D03*
X011875Y010380D03*
X011875Y010385D03*
X011875Y010390D03*
X011875Y010395D03*
X011875Y010400D03*
X011875Y010405D03*
X011875Y010410D03*
X011875Y010415D03*
X011875Y010420D03*
X011875Y010425D03*
X011875Y010430D03*
X011875Y010435D03*
X011875Y010440D03*
X011875Y010445D03*
X011875Y010450D03*
X011875Y010455D03*
X011875Y010460D03*
X011875Y010465D03*
X011875Y010470D03*
X011875Y010475D03*
X011875Y010480D03*
X011875Y010485D03*
X011875Y010490D03*
X011875Y010495D03*
X011875Y010500D03*
X009255Y010500D03*
X009255Y010505D03*
X009255Y010510D03*
X009255Y010515D03*
X009255Y010520D03*
X009255Y010525D03*
X009255Y010530D03*
X009255Y010535D03*
X009255Y010540D03*
X009255Y010545D03*
X009255Y010550D03*
X009255Y010555D03*
X009255Y010560D03*
X009255Y010565D03*
X009255Y010570D03*
X009255Y010575D03*
X009255Y010580D03*
X009255Y010585D03*
X009255Y010590D03*
X009255Y010595D03*
X009255Y010600D03*
X009255Y010605D03*
X009255Y010610D03*
X009255Y010615D03*
X009255Y010620D03*
X009255Y010625D03*
X009255Y010630D03*
X009255Y010635D03*
X009255Y010640D03*
X009255Y010645D03*
X009255Y010650D03*
X009255Y010655D03*
X009255Y010660D03*
X009255Y010665D03*
X009255Y010670D03*
X009255Y010675D03*
X009255Y010680D03*
X009255Y010495D03*
X009255Y010490D03*
X009255Y010485D03*
X009255Y010480D03*
X009255Y010475D03*
X009255Y010470D03*
X009255Y010465D03*
X009255Y010460D03*
X009255Y010455D03*
X009255Y010450D03*
X009255Y010445D03*
X009255Y010440D03*
X009255Y010435D03*
X009255Y010430D03*
X009255Y010425D03*
X009255Y010420D03*
X009255Y010415D03*
X009255Y010410D03*
X009255Y010405D03*
X009255Y010400D03*
X009255Y010395D03*
X009255Y010390D03*
X009255Y010385D03*
X009255Y010380D03*
X009255Y010375D03*
X009255Y010370D03*
X009255Y010365D03*
X009255Y010360D03*
X009255Y010355D03*
X009255Y010350D03*
X009255Y010345D03*
X009255Y010340D03*
X009255Y010335D03*
X009255Y010330D03*
X009255Y010325D03*
X009255Y010320D03*
X009255Y010315D03*
X009255Y010310D03*
X009255Y010305D03*
X009255Y010300D03*
X009255Y010295D03*
X009255Y010290D03*
X009255Y010285D03*
X009255Y010280D03*
X009255Y010275D03*
X009255Y010270D03*
X009255Y010265D03*
X009255Y010260D03*
X009255Y010255D03*
X009255Y010250D03*
X009255Y010245D03*
X009255Y010240D03*
X009255Y010235D03*
X009255Y010230D03*
X009255Y010225D03*
X009255Y010220D03*
X009255Y010215D03*
X009255Y010210D03*
X009255Y010205D03*
X009255Y010200D03*
X009255Y010195D03*
X009255Y010190D03*
X009255Y010185D03*
X009255Y010180D03*
X009255Y010175D03*
X009255Y010170D03*
X009255Y010165D03*
X009255Y010160D03*
X009255Y010155D03*
X009255Y010150D03*
X009255Y010145D03*
X009255Y010140D03*
X009255Y010135D03*
X009255Y010130D03*
X009255Y010125D03*
X009255Y010120D03*
X009255Y010115D03*
X009255Y010110D03*
X009255Y010105D03*
X009255Y010100D03*
X009255Y010095D03*
X009255Y010090D03*
X009255Y010085D03*
X009255Y010080D03*
X009255Y010075D03*
X009255Y010070D03*
X009255Y010065D03*
X009255Y010060D03*
X009255Y010055D03*
X009255Y010050D03*
X009255Y010045D03*
X009255Y010040D03*
X009255Y010035D03*
X009255Y010030D03*
X009255Y010025D03*
X009255Y010020D03*
X009255Y010015D03*
X009255Y010010D03*
X009255Y010005D03*
X009255Y010000D03*
X009255Y009995D03*
X009255Y009990D03*
X009255Y009985D03*
X009255Y009980D03*
X009255Y009975D03*
X009255Y009970D03*
X009255Y009965D03*
X009255Y009960D03*
X009255Y009955D03*
X009255Y009950D03*
X009255Y009945D03*
X009255Y009940D03*
X009255Y009935D03*
X009255Y009930D03*
X009255Y009925D03*
X009255Y009920D03*
X009255Y009915D03*
X009255Y009910D03*
X009255Y009905D03*
X009255Y009900D03*
X009255Y009895D03*
X009255Y009890D03*
X009255Y009885D03*
X009255Y009880D03*
X009255Y009875D03*
X009255Y009870D03*
X009255Y009865D03*
X009255Y009860D03*
X009255Y009855D03*
X009255Y009850D03*
X009255Y009845D03*
X009255Y009840D03*
X009255Y009835D03*
X009255Y009830D03*
X009255Y009825D03*
X009255Y009820D03*
X009255Y009815D03*
X009255Y009810D03*
X009255Y009805D03*
X009255Y009800D03*
X009255Y009795D03*
X009255Y009790D03*
X009255Y009785D03*
X009255Y009780D03*
X009255Y009775D03*
X009255Y009770D03*
X009255Y009765D03*
X009255Y009760D03*
X009255Y009755D03*
X009255Y009750D03*
X009255Y009745D03*
X009255Y009740D03*
X009255Y009735D03*
X009255Y009730D03*
X009255Y009410D03*
X009255Y009405D03*
X009255Y009400D03*
X009255Y009395D03*
X009255Y009390D03*
X009255Y009385D03*
X009255Y009380D03*
X009255Y009375D03*
X009255Y009370D03*
X009255Y009365D03*
X009255Y009360D03*
X009255Y009355D03*
X009255Y009350D03*
X009255Y009345D03*
X009255Y009340D03*
X009255Y009335D03*
X009255Y009330D03*
X009255Y009325D03*
X009255Y009320D03*
X009255Y009315D03*
X009255Y009310D03*
X009255Y009305D03*
X009255Y009300D03*
X009255Y009295D03*
X009255Y009290D03*
X009255Y009285D03*
X009255Y009280D03*
X009255Y009275D03*
X009255Y009270D03*
X009255Y009265D03*
X009255Y009260D03*
X009255Y009255D03*
X009255Y009250D03*
X009255Y009245D03*
X009255Y009240D03*
X009255Y009235D03*
X009255Y009230D03*
X009255Y009225D03*
X009255Y009220D03*
X009255Y009215D03*
X009255Y009210D03*
X009255Y009205D03*
X009255Y009200D03*
X009255Y009195D03*
X009255Y009190D03*
X009255Y009185D03*
X009255Y009180D03*
X009255Y009175D03*
X009255Y009170D03*
X009255Y009165D03*
X009255Y009160D03*
X009255Y009155D03*
X009255Y009150D03*
X009255Y009145D03*
X009255Y009140D03*
X009255Y009135D03*
X009255Y009130D03*
X009255Y009125D03*
X009255Y009120D03*
X009255Y009115D03*
X009255Y009110D03*
X009255Y009105D03*
X009255Y009100D03*
X009255Y009095D03*
X009255Y009090D03*
X009255Y009085D03*
X009255Y009080D03*
X009255Y009075D03*
X009255Y009070D03*
X009255Y009065D03*
X009255Y009060D03*
X009255Y009055D03*
X009255Y009050D03*
X009255Y009045D03*
X009255Y009040D03*
X009255Y009035D03*
X009255Y009030D03*
X009255Y009025D03*
X009255Y009020D03*
X009255Y009015D03*
X009255Y009010D03*
X009255Y009005D03*
X009255Y009000D03*
X009255Y008995D03*
X009255Y008990D03*
X009255Y008985D03*
X009255Y008980D03*
X009255Y008975D03*
X009255Y008970D03*
X009255Y008965D03*
X009255Y008960D03*
X009255Y008955D03*
X009255Y008950D03*
X009255Y008945D03*
X009255Y008940D03*
X009255Y008935D03*
X013960Y013260D03*
D40*
X014985Y011385D03*
X017745Y010040D03*
X013010Y008930D03*
X010840Y009120D03*
X010840Y009125D03*
D41*
X013333Y009255D03*
X013923Y008930D03*
X014378Y009390D03*
X014378Y009395D03*
X014373Y009420D03*
X014373Y009425D03*
X014373Y009430D03*
X014373Y009435D03*
X014373Y009440D03*
X014368Y009460D03*
X014368Y009465D03*
X014368Y009470D03*
X014368Y009475D03*
X014368Y009480D03*
X014368Y009485D03*
X014368Y009490D03*
X014368Y009495D03*
X014368Y009500D03*
X014368Y009505D03*
X014368Y009510D03*
X014368Y009515D03*
X014368Y009520D03*
X014368Y009530D03*
X014373Y009560D03*
X014373Y009565D03*
X014373Y009570D03*
X014373Y009575D03*
X014378Y009600D03*
X014378Y009605D03*
X014383Y009625D03*
X015443Y009540D03*
X015443Y009535D03*
X015443Y009530D03*
X015443Y009525D03*
X015443Y009520D03*
X015443Y009515D03*
X015443Y009510D03*
X015443Y009505D03*
X015443Y009500D03*
X015443Y009495D03*
X015443Y009490D03*
X015443Y009485D03*
X015443Y009480D03*
X015443Y009475D03*
X015443Y009470D03*
X015443Y009465D03*
X015443Y009460D03*
X015443Y009455D03*
X015443Y009450D03*
X015443Y009445D03*
X015443Y009440D03*
X015443Y009165D03*
X015443Y009160D03*
X015443Y009155D03*
X015443Y009150D03*
X015443Y009145D03*
X015443Y009140D03*
X015443Y009135D03*
X015443Y009130D03*
X015443Y009125D03*
X015443Y009120D03*
X015443Y009115D03*
X015443Y009110D03*
X015443Y009105D03*
X015443Y009100D03*
X015443Y009095D03*
X015443Y009090D03*
X015443Y009085D03*
X015443Y009080D03*
X015443Y009075D03*
X015443Y009070D03*
X015443Y009065D03*
X015443Y009060D03*
X015443Y009055D03*
X015443Y009050D03*
X015443Y009045D03*
X015443Y009040D03*
X015443Y009035D03*
X015443Y009030D03*
X015443Y009025D03*
X015443Y009020D03*
X015443Y009015D03*
X015443Y009010D03*
X015443Y009005D03*
X015443Y009000D03*
X015443Y008995D03*
X015443Y008990D03*
X015443Y008985D03*
X015443Y008980D03*
X015443Y008975D03*
X015443Y008970D03*
X015443Y008965D03*
X015443Y008960D03*
X015443Y008955D03*
X015443Y008950D03*
X015443Y008945D03*
X015443Y008940D03*
X015443Y008935D03*
X015443Y008930D03*
X015968Y008930D03*
X015968Y008935D03*
X015968Y008940D03*
X015968Y008945D03*
X015968Y008950D03*
X015968Y008955D03*
X015968Y008960D03*
X015968Y008965D03*
X015968Y008970D03*
X015968Y008975D03*
X015968Y008980D03*
X015968Y008985D03*
X015968Y008990D03*
X015968Y008995D03*
X015968Y009000D03*
X015968Y009005D03*
X015968Y009010D03*
X015968Y009015D03*
X015968Y009020D03*
X015968Y009025D03*
X015968Y009030D03*
X015968Y009035D03*
X015968Y009040D03*
X015968Y009045D03*
X015968Y009050D03*
X015968Y009055D03*
X015968Y009060D03*
X015968Y009065D03*
X015968Y009070D03*
X015968Y009075D03*
X015968Y009080D03*
X015968Y009085D03*
X015968Y009090D03*
X015968Y009095D03*
X015968Y009100D03*
X015968Y009105D03*
X015968Y009110D03*
X015968Y009115D03*
X015968Y009120D03*
X015968Y009125D03*
X015968Y009130D03*
X015968Y009135D03*
X015968Y009140D03*
X015968Y009145D03*
X015968Y009150D03*
X015968Y009155D03*
X015968Y009160D03*
X015968Y009165D03*
X015968Y009445D03*
X015968Y009450D03*
X015968Y009455D03*
X015968Y009460D03*
X015968Y009465D03*
X015968Y009470D03*
X015968Y009475D03*
X015968Y009480D03*
X015968Y009485D03*
X015968Y009490D03*
X015968Y009495D03*
X015968Y009500D03*
X015968Y009505D03*
X015968Y009510D03*
X015968Y009515D03*
X015968Y009520D03*
X015968Y009525D03*
X015968Y009530D03*
X015968Y009535D03*
X015968Y009540D03*
X015968Y009830D03*
X015968Y009835D03*
X015968Y009840D03*
X015968Y009845D03*
X015968Y009850D03*
X015968Y009855D03*
X015968Y009860D03*
X015968Y009865D03*
X015968Y009870D03*
X015968Y009875D03*
X015968Y009880D03*
X015968Y009885D03*
X015968Y009890D03*
X015968Y009895D03*
X015968Y009900D03*
X015968Y009905D03*
X015968Y009910D03*
X015968Y009915D03*
X015968Y009920D03*
X015968Y009925D03*
X015968Y009930D03*
X015968Y009935D03*
X015968Y009940D03*
X015968Y009945D03*
X015968Y009950D03*
X015968Y009955D03*
X015968Y009960D03*
X015968Y009965D03*
X015968Y009970D03*
X015968Y009975D03*
X015968Y009980D03*
X015968Y009985D03*
X015968Y009990D03*
X015968Y009995D03*
X015968Y010000D03*
X015968Y010005D03*
X015968Y010010D03*
X015968Y010015D03*
X015968Y010020D03*
X015968Y010025D03*
X015968Y010030D03*
X015968Y010035D03*
X015968Y010040D03*
X015968Y010045D03*
X015968Y010050D03*
X015968Y010055D03*
X015968Y010060D03*
X015968Y010065D03*
X015968Y010070D03*
X015968Y010075D03*
X015968Y010080D03*
X015968Y010085D03*
X015968Y010090D03*
X015968Y010095D03*
X015968Y010100D03*
X015968Y010105D03*
X015968Y010110D03*
X015968Y010115D03*
X015968Y010120D03*
X015968Y010125D03*
X015968Y010130D03*
X015968Y010135D03*
X015968Y010140D03*
X015968Y010145D03*
X015968Y010150D03*
X015968Y010155D03*
X015968Y010160D03*
X015968Y010165D03*
X015968Y010170D03*
X015968Y010175D03*
X015968Y010180D03*
X015968Y010185D03*
X015968Y010190D03*
X015968Y010195D03*
X015968Y010200D03*
X015968Y010205D03*
X015968Y010210D03*
X015968Y010215D03*
X015968Y010220D03*
X015968Y010225D03*
X015968Y010230D03*
X015968Y010235D03*
X015968Y010240D03*
X015968Y010245D03*
X015968Y010250D03*
X015968Y010255D03*
X015968Y010260D03*
X015968Y010265D03*
X015968Y010270D03*
X015968Y010275D03*
X015968Y010280D03*
X015968Y010285D03*
X015968Y010290D03*
X015968Y010295D03*
X015968Y010300D03*
X015968Y010305D03*
X015968Y010310D03*
X015968Y010315D03*
X015968Y010320D03*
X015968Y010325D03*
X015968Y010330D03*
X015968Y010335D03*
X015968Y010340D03*
X015968Y010345D03*
X015968Y010350D03*
X015968Y010355D03*
X015968Y010360D03*
X015968Y010365D03*
X015968Y010370D03*
X015968Y010375D03*
X015968Y010380D03*
X015968Y010385D03*
X015968Y010390D03*
X015968Y010395D03*
X015968Y010400D03*
X015968Y010405D03*
X015968Y010410D03*
X015968Y010415D03*
X015968Y010420D03*
X015968Y010425D03*
X015968Y010430D03*
X015968Y010435D03*
X015968Y010440D03*
X015968Y010445D03*
X015968Y010450D03*
X015968Y010455D03*
X015968Y010460D03*
X015968Y010465D03*
X015968Y010470D03*
X015968Y010475D03*
X015968Y010480D03*
X015968Y010485D03*
X015968Y010490D03*
X015968Y010495D03*
X015968Y010500D03*
X015968Y010505D03*
X015968Y010510D03*
X015968Y010515D03*
X015968Y010520D03*
X015968Y010525D03*
X015968Y010530D03*
X015968Y010535D03*
X015968Y010540D03*
X015968Y010545D03*
X015968Y010550D03*
X015968Y010555D03*
X015968Y010560D03*
X015968Y010565D03*
X015968Y010570D03*
X015968Y010575D03*
X015968Y010580D03*
X015968Y010585D03*
X015968Y010590D03*
X015968Y010595D03*
X015968Y010600D03*
X015968Y010605D03*
X015968Y010610D03*
X015968Y010615D03*
X015968Y010620D03*
X015968Y010625D03*
X015968Y010630D03*
X015968Y010635D03*
X015968Y010640D03*
X015968Y010645D03*
X015968Y010650D03*
X015968Y010655D03*
X015968Y010660D03*
X015968Y010665D03*
X015968Y010670D03*
X015968Y010675D03*
X015968Y010680D03*
X015968Y010685D03*
X015968Y010690D03*
X015968Y010695D03*
X015968Y010700D03*
X015968Y010705D03*
X015968Y010710D03*
X015968Y010715D03*
X015303Y011095D03*
X015298Y011100D03*
X015443Y010065D03*
X015443Y010060D03*
X015443Y010055D03*
X015443Y010050D03*
X015443Y010045D03*
X015443Y010040D03*
X015443Y010035D03*
X015443Y010030D03*
X015443Y010025D03*
X015443Y010020D03*
X015443Y010015D03*
X015443Y010010D03*
X015443Y010005D03*
X015443Y010000D03*
X015443Y009995D03*
X015443Y009990D03*
X015443Y009985D03*
X015443Y009980D03*
X015443Y009975D03*
X015443Y009970D03*
X015443Y009965D03*
X015443Y009960D03*
X015443Y009955D03*
X015443Y009950D03*
X015443Y009945D03*
X015443Y009940D03*
X015443Y009935D03*
X015443Y009930D03*
X015443Y009925D03*
X015443Y009920D03*
X015443Y009915D03*
X015443Y009910D03*
X015443Y009905D03*
X015443Y009900D03*
X015443Y009895D03*
X015443Y009890D03*
X015443Y009885D03*
X015443Y009880D03*
X015443Y009875D03*
X015443Y009870D03*
X015443Y009865D03*
X015443Y009860D03*
X015443Y009855D03*
X015443Y009850D03*
X015443Y009845D03*
X015443Y009840D03*
X015443Y009835D03*
X015443Y009830D03*
X017023Y009645D03*
X017028Y009625D03*
X017033Y009605D03*
X017033Y009600D03*
X017033Y009595D03*
X017038Y009575D03*
X017038Y009570D03*
X017038Y009565D03*
X017038Y009560D03*
X017038Y009555D03*
X017043Y009535D03*
X017043Y009530D03*
X017043Y009525D03*
X017043Y009520D03*
X017043Y009515D03*
X017043Y009510D03*
X017043Y009505D03*
X017043Y009500D03*
X017043Y009495D03*
X017043Y009490D03*
X017043Y009485D03*
X017043Y009480D03*
X017043Y009475D03*
X017043Y009470D03*
X017043Y009465D03*
X017043Y009460D03*
X017038Y009440D03*
X017038Y009435D03*
X017038Y009430D03*
X017038Y009425D03*
X017038Y009420D03*
X017033Y009400D03*
X017033Y009395D03*
X017033Y009390D03*
X017028Y009370D03*
X017023Y009350D03*
X017393Y009185D03*
X017398Y009175D03*
X017398Y009170D03*
X017403Y009160D03*
X017438Y009735D03*
X017438Y009740D03*
X017438Y009745D03*
X017438Y009750D03*
X017438Y009755D03*
X017438Y009760D03*
X017438Y009765D03*
X017433Y009770D03*
X017433Y009775D03*
X017433Y009780D03*
X017433Y009785D03*
X017433Y009790D03*
X017433Y009795D03*
X017438Y009805D03*
X017438Y009810D03*
X017438Y009815D03*
X017438Y009820D03*
X017438Y009825D03*
X017438Y009830D03*
X018033Y009845D03*
X018033Y009850D03*
X018038Y009835D03*
X018038Y009830D03*
X018038Y009825D03*
X018043Y009820D03*
X018043Y009815D03*
X018043Y009810D03*
X018078Y009280D03*
X018078Y009275D03*
X018078Y009270D03*
X018078Y009265D03*
X018083Y009260D03*
X018083Y009255D03*
X018083Y009250D03*
X018083Y009245D03*
X018083Y009240D03*
X018083Y009235D03*
X018083Y009230D03*
X018083Y009225D03*
X018083Y009220D03*
X018083Y009215D03*
X018083Y009205D03*
X018078Y009195D03*
X018078Y009190D03*
X018078Y009185D03*
X018078Y009180D03*
X018078Y009175D03*
X018073Y009165D03*
X018073Y009160D03*
X018073Y009155D03*
X014008Y013340D03*
D42*
X009853Y010000D03*
X009848Y009995D03*
X009843Y009990D03*
X009838Y009985D03*
X009833Y009980D03*
X009828Y009975D03*
X009803Y009945D03*
X009798Y009940D03*
X009793Y009935D03*
X009788Y009930D03*
X009783Y009925D03*
X009778Y009920D03*
X009773Y009915D03*
X009768Y009910D03*
X009763Y009905D03*
X009758Y009900D03*
X009753Y009895D03*
X009748Y009890D03*
X009728Y009865D03*
X009723Y009860D03*
X009718Y009855D03*
X009713Y009850D03*
X009708Y009845D03*
X009703Y009840D03*
X009698Y009835D03*
X009693Y009830D03*
X009688Y009825D03*
X009683Y009820D03*
X012683Y009820D03*
X013308Y009825D03*
X013343Y009175D03*
X014903Y008930D03*
X017743Y008935D03*
X017708Y009530D03*
D43*
X017720Y009525D03*
X017800Y009490D03*
X016510Y008930D03*
X015010Y011365D03*
X013630Y011550D03*
X012690Y009175D03*
X010840Y009090D03*
X010840Y009085D03*
X009825Y009970D03*
X009820Y009965D03*
X009815Y009960D03*
X009810Y009955D03*
X009805Y009950D03*
X009855Y010005D03*
X009860Y010010D03*
X009865Y010015D03*
X009870Y010020D03*
X009875Y010025D03*
X009880Y010030D03*
X009885Y010035D03*
X009890Y010040D03*
X009895Y010045D03*
X009900Y010050D03*
X009905Y010055D03*
X009910Y010060D03*
X009915Y010065D03*
D44*
X012658Y009800D03*
X013328Y009810D03*
X013333Y009805D03*
X012658Y009200D03*
X015043Y011340D03*
X017743Y008930D03*
D45*
X016510Y010050D03*
X014900Y010050D03*
X013010Y008935D03*
X012730Y009155D03*
X012730Y009840D03*
X010840Y009165D03*
X010840Y009160D03*
X013925Y013195D03*
D46*
X011675Y011995D03*
X013925Y010715D03*
X013925Y010710D03*
X013925Y010705D03*
X013925Y010700D03*
X013925Y010695D03*
X013925Y010690D03*
X013925Y010685D03*
X013925Y010680D03*
X013925Y010675D03*
X013925Y010670D03*
X013925Y010665D03*
X013925Y010660D03*
X013925Y010655D03*
X013925Y010650D03*
X013925Y010645D03*
X013925Y010640D03*
X013925Y010635D03*
X013925Y010630D03*
X013925Y010625D03*
X013925Y010620D03*
X013925Y010615D03*
X013925Y010610D03*
X013925Y010605D03*
X013925Y010600D03*
X013925Y010595D03*
X013925Y010590D03*
X013925Y010585D03*
X013925Y010580D03*
X013925Y010575D03*
X013925Y010570D03*
X013925Y010565D03*
X013925Y010560D03*
X013925Y010555D03*
X013925Y010550D03*
X013925Y010545D03*
X013925Y010540D03*
X013925Y010535D03*
X013925Y010530D03*
X013925Y010525D03*
X013925Y010520D03*
X013925Y010515D03*
X013925Y010510D03*
X013925Y010505D03*
X013925Y010500D03*
X013925Y010495D03*
X013925Y010490D03*
X013925Y010485D03*
X013925Y010480D03*
X013925Y010475D03*
X013925Y010470D03*
X013925Y010465D03*
X013925Y010460D03*
X013925Y010455D03*
X013925Y010450D03*
X013925Y010445D03*
X013925Y010440D03*
X013925Y010435D03*
X013925Y010430D03*
X013925Y010425D03*
X013925Y010420D03*
X013925Y010415D03*
X013925Y010410D03*
X013925Y010405D03*
X013925Y010400D03*
X013925Y010395D03*
X013925Y010390D03*
X013925Y010385D03*
X013925Y010380D03*
X013925Y010375D03*
X013925Y010370D03*
X013925Y010365D03*
X013925Y010360D03*
X013925Y010355D03*
X013925Y010350D03*
X013925Y010345D03*
X013925Y010340D03*
X013925Y010335D03*
X013925Y010330D03*
X013925Y010325D03*
X013925Y010320D03*
X013925Y010315D03*
X013925Y010310D03*
X013925Y010305D03*
X013925Y010300D03*
X013925Y010295D03*
X013925Y010290D03*
X013925Y010285D03*
X013925Y010280D03*
X013925Y010275D03*
X013925Y010270D03*
X013925Y010265D03*
X013925Y010260D03*
X013925Y010255D03*
X013925Y010250D03*
X013925Y010245D03*
X013925Y010240D03*
X013925Y010235D03*
X013925Y010230D03*
X013925Y010225D03*
X013925Y010220D03*
X013925Y010215D03*
X013925Y010210D03*
X013925Y010205D03*
X013925Y010200D03*
X013925Y010195D03*
X013925Y010190D03*
X013925Y010185D03*
X013925Y010180D03*
X013925Y010175D03*
X013925Y010170D03*
X013925Y010165D03*
X013925Y010160D03*
X013925Y010155D03*
X013925Y010150D03*
X013925Y010145D03*
X013925Y010140D03*
X013925Y010135D03*
X013925Y010130D03*
X013925Y010125D03*
X013925Y010120D03*
X013925Y010115D03*
X013925Y010110D03*
X013925Y010105D03*
X013925Y010100D03*
X013925Y010095D03*
X013925Y010090D03*
X013925Y010085D03*
X013925Y010080D03*
X013925Y010075D03*
X013925Y010070D03*
X013925Y010065D03*
X013925Y010060D03*
X013925Y010055D03*
X013925Y010050D03*
X013925Y010045D03*
X013925Y010040D03*
X013925Y010035D03*
X013925Y010030D03*
X013925Y010025D03*
X013925Y010020D03*
X013925Y010015D03*
X013925Y010010D03*
X013925Y010005D03*
X013925Y010000D03*
X013925Y009995D03*
X013925Y009990D03*
X013925Y009985D03*
X013925Y009980D03*
X013925Y009975D03*
X013925Y009970D03*
X013925Y009965D03*
X013925Y009960D03*
X013925Y009955D03*
X013925Y009950D03*
X013925Y009945D03*
X013925Y009940D03*
X013925Y009935D03*
X013925Y009930D03*
X013925Y009925D03*
X013925Y009920D03*
X013925Y009915D03*
X013925Y009910D03*
X013925Y009905D03*
X013925Y009900D03*
X013925Y009895D03*
X013925Y009890D03*
X013925Y009885D03*
X013925Y009880D03*
X013925Y009875D03*
X013925Y009870D03*
X013925Y009865D03*
X013925Y009860D03*
X013925Y009855D03*
X013925Y009850D03*
X013925Y009845D03*
X013925Y009840D03*
X013925Y009835D03*
X013925Y009830D03*
X013925Y009825D03*
X013925Y009820D03*
X013925Y009815D03*
X013925Y009810D03*
X013925Y009805D03*
X013925Y009800D03*
X013925Y009795D03*
X013925Y009790D03*
X013925Y009785D03*
X013925Y009780D03*
X013925Y009775D03*
X013925Y009770D03*
X013925Y009765D03*
X013925Y009760D03*
X013925Y009755D03*
X013925Y009750D03*
X013925Y009745D03*
X013925Y009740D03*
X013925Y009735D03*
X013925Y009730D03*
X013925Y009725D03*
X013925Y009720D03*
X013925Y009715D03*
X013925Y009710D03*
X013925Y009705D03*
X013925Y009700D03*
X013925Y009695D03*
X013925Y009690D03*
X013925Y009685D03*
X013925Y009680D03*
X013925Y009675D03*
X013925Y009670D03*
X013925Y009665D03*
X013925Y009660D03*
X013925Y009655D03*
X013925Y009650D03*
X013925Y009645D03*
X013925Y009640D03*
X013925Y009635D03*
X013925Y009630D03*
X013925Y009625D03*
X013925Y009620D03*
X013925Y009615D03*
X013925Y009610D03*
X013925Y009605D03*
X013925Y009600D03*
X013925Y009595D03*
X013925Y009590D03*
X013925Y009585D03*
X013925Y009580D03*
X013925Y009575D03*
X013925Y009570D03*
X013925Y009565D03*
X013925Y009560D03*
X013925Y009555D03*
X013925Y009550D03*
X013925Y009545D03*
X013925Y009540D03*
X013925Y009535D03*
X013925Y009530D03*
X013925Y009525D03*
X013925Y009520D03*
X013925Y009515D03*
X013925Y009510D03*
X013925Y009505D03*
X013925Y009500D03*
X013925Y009495D03*
X013925Y009490D03*
X013925Y009485D03*
X013925Y009480D03*
X013925Y009475D03*
X013925Y009470D03*
X013925Y009465D03*
X013925Y009460D03*
X013925Y009455D03*
X013925Y009450D03*
X013925Y009445D03*
X013925Y009440D03*
X013925Y009435D03*
X013925Y009430D03*
X013925Y009425D03*
X013925Y009420D03*
X013925Y009415D03*
X013925Y009410D03*
X013925Y009405D03*
X013925Y009400D03*
X013925Y009395D03*
X013925Y009390D03*
X013925Y009385D03*
X013925Y009380D03*
X013925Y009375D03*
X013925Y009370D03*
X013925Y009365D03*
X013925Y009360D03*
X013925Y009355D03*
X013925Y009350D03*
X013925Y009345D03*
X013925Y009340D03*
X013925Y009335D03*
X013925Y009330D03*
X013925Y009325D03*
X013925Y009320D03*
X013925Y009315D03*
X013925Y009310D03*
X013925Y009305D03*
X013925Y009300D03*
X013925Y009295D03*
X013925Y009290D03*
X013925Y009285D03*
X013925Y009280D03*
X013925Y009275D03*
X013925Y009270D03*
X013925Y009265D03*
X013925Y009260D03*
X013925Y009255D03*
X013925Y009250D03*
X013925Y009245D03*
X013925Y009240D03*
X013925Y009235D03*
X013925Y009230D03*
X013925Y009225D03*
X013925Y009220D03*
X013925Y009215D03*
X013925Y009210D03*
X013925Y009205D03*
X013925Y009200D03*
X013925Y009195D03*
X013925Y009190D03*
X013925Y009185D03*
X013925Y009180D03*
X013925Y009175D03*
X013925Y009170D03*
X013925Y009165D03*
X013925Y009160D03*
X013925Y009155D03*
X013925Y009150D03*
X013925Y009145D03*
X013925Y009140D03*
X013925Y009135D03*
X013925Y009130D03*
X013925Y009125D03*
X013925Y009120D03*
X013925Y009115D03*
X013925Y009110D03*
X013925Y009105D03*
X013925Y009100D03*
X013925Y009095D03*
X013925Y009090D03*
X013925Y009085D03*
X013925Y009080D03*
X013925Y009075D03*
X013925Y009070D03*
X013925Y009065D03*
X013925Y009060D03*
X013925Y009055D03*
X013925Y009050D03*
X013925Y009045D03*
X013925Y009040D03*
X013925Y009035D03*
X013925Y009030D03*
X013925Y009025D03*
X013925Y009020D03*
X013925Y009015D03*
X013925Y009010D03*
X013925Y009005D03*
X013925Y009000D03*
X013925Y008995D03*
X013925Y008990D03*
X013925Y008985D03*
X013925Y008980D03*
X013925Y008975D03*
X013925Y008970D03*
X013925Y008965D03*
X013925Y008960D03*
X013925Y008955D03*
X013925Y008950D03*
X013925Y008945D03*
X013925Y008940D03*
X013925Y008935D03*
X015310Y011090D03*
X017385Y009210D03*
X017390Y009195D03*
X017390Y009190D03*
X017395Y009180D03*
X018080Y009200D03*
X018080Y009210D03*
D47*
X016510Y008935D03*
X014900Y008935D03*
X013000Y010060D03*
X012700Y009830D03*
X010840Y009115D03*
X010840Y009110D03*
X011885Y012030D03*
X014990Y011380D03*
D48*
X014930Y011425D03*
X016510Y010045D03*
X013010Y008940D03*
X010840Y009195D03*
X010840Y009200D03*
D49*
X010840Y009150D03*
X010840Y009145D03*
X014900Y008940D03*
X016510Y008940D03*
X014965Y011400D03*
X013925Y013200D03*
D50*
X014998Y011375D03*
X013328Y009165D03*
X012698Y009170D03*
X017743Y008940D03*
D51*
X014908Y011440D03*
X013908Y013170D03*
X013013Y008945D03*
D52*
X012998Y010050D03*
X013658Y011560D03*
X014943Y011415D03*
X014903Y008945D03*
X017743Y008955D03*
D53*
X016510Y008945D03*
X017745Y010025D03*
X014935Y011420D03*
X010840Y009190D03*
X010840Y009185D03*
X010840Y009180D03*
D54*
X010843Y009130D03*
X012713Y009835D03*
X013318Y009160D03*
X014903Y010055D03*
X014978Y011390D03*
X013643Y011555D03*
X013928Y013205D03*
X017743Y008945D03*
D55*
X017740Y008975D03*
X016510Y008960D03*
X017740Y010000D03*
X014900Y008960D03*
X013015Y008950D03*
X013000Y010035D03*
X013690Y011565D03*
X013905Y013160D03*
X009370Y009570D03*
X009370Y009560D03*
X010840Y009260D03*
X010840Y009255D03*
X010840Y009250D03*
D56*
X010840Y009210D03*
X010840Y009205D03*
X014900Y008950D03*
X016510Y008950D03*
D57*
X017743Y008950D03*
X014958Y011405D03*
X013303Y009155D03*
X010843Y009155D03*
D58*
X010838Y009285D03*
X009383Y009530D03*
X009383Y009595D03*
X013013Y008955D03*
X014868Y011465D03*
X013898Y013150D03*
X017743Y008985D03*
D59*
X016510Y008955D03*
X017740Y010010D03*
X014900Y008955D03*
X013000Y010040D03*
X010840Y009235D03*
X010840Y009230D03*
D60*
X009393Y009510D03*
X009393Y009615D03*
X012998Y010025D03*
X013013Y008960D03*
X014853Y011475D03*
X013893Y013140D03*
D61*
X013913Y013180D03*
X014923Y011430D03*
X012998Y010045D03*
X017743Y010020D03*
X017743Y008960D03*
D62*
X017743Y009000D03*
X013013Y008965D03*
X009403Y009485D03*
X009403Y009640D03*
D63*
X009380Y009590D03*
X009380Y009535D03*
X010840Y009280D03*
X010840Y009275D03*
X013000Y010030D03*
X014900Y008965D03*
X016510Y008965D03*
X017740Y009990D03*
D64*
X016510Y010040D03*
X017740Y008965D03*
X014900Y010040D03*
X014915Y011435D03*
X010840Y009225D03*
X010840Y009220D03*
X010840Y009215D03*
D65*
X010840Y009350D03*
X010840Y009355D03*
X009410Y009470D03*
X009410Y009655D03*
X013015Y008970D03*
X014900Y010010D03*
X014825Y011490D03*
X016510Y010010D03*
D66*
X016510Y008970D03*
X014900Y008970D03*
X014860Y011470D03*
X010840Y009305D03*
X010840Y009300D03*
X009390Y009515D03*
X009390Y009610D03*
D67*
X017743Y008970D03*
D68*
X016510Y010005D03*
X014900Y010005D03*
X013015Y008975D03*
X009420Y009450D03*
X009420Y009675D03*
D69*
X009398Y009625D03*
X009398Y009500D03*
X013888Y013135D03*
X014903Y008975D03*
X016508Y008975D03*
X017743Y008995D03*
D70*
X016510Y008995D03*
X014900Y008995D03*
X013015Y008980D03*
X009430Y009425D03*
X009430Y009430D03*
X009430Y009695D03*
D71*
X009408Y009650D03*
X009408Y009475D03*
X010838Y009345D03*
X012998Y010015D03*
X014903Y008980D03*
X016508Y008980D03*
X017743Y009005D03*
D72*
X017743Y008980D03*
X014878Y011460D03*
X009378Y009585D03*
X009378Y009545D03*
X009378Y009540D03*
D73*
X009440Y009715D03*
X013015Y008985D03*
X014900Y009000D03*
X016510Y009000D03*
X013870Y013100D03*
D74*
X013880Y013120D03*
X009415Y009665D03*
X009415Y009460D03*
X014900Y008985D03*
X016510Y008985D03*
D75*
X014778Y011515D03*
X012998Y009990D03*
X013013Y008990D03*
D76*
X014900Y008990D03*
X016510Y008990D03*
X009425Y009440D03*
X009425Y009685D03*
D77*
X009388Y009605D03*
X009388Y009520D03*
X013893Y013145D03*
X017743Y008990D03*
D78*
X016510Y009980D03*
X014900Y009980D03*
X013015Y008995D03*
X013860Y013085D03*
D79*
X013015Y009000D03*
D80*
X013015Y009005D03*
D81*
X014900Y009005D03*
X016510Y009005D03*
X016510Y009990D03*
X013865Y013095D03*
X009445Y009725D03*
D82*
X012998Y009970D03*
X013018Y009010D03*
D83*
X014898Y009010D03*
X016513Y009010D03*
X014768Y011520D03*
X013863Y013090D03*
D84*
X013845Y013060D03*
X013015Y009015D03*
D85*
X012570Y009350D03*
X012565Y009365D03*
X012565Y009370D03*
X012565Y009375D03*
X012560Y009385D03*
X012560Y009390D03*
X012560Y009395D03*
X012560Y009600D03*
X012560Y009605D03*
X012560Y009610D03*
X012560Y009615D03*
X012560Y009620D03*
X012565Y009625D03*
X012565Y009630D03*
X012565Y009635D03*
X012565Y009640D03*
X012570Y009650D03*
X012570Y009655D03*
X013415Y009670D03*
X013415Y009675D03*
X013420Y009660D03*
X013420Y009655D03*
X013420Y009650D03*
X013420Y009645D03*
X013425Y009640D03*
X013425Y009635D03*
X013425Y009630D03*
X013425Y009625D03*
X013430Y009615D03*
X013430Y009610D03*
X013430Y009605D03*
X013430Y009600D03*
X014685Y009975D03*
X014690Y009015D03*
X016295Y009975D03*
X016725Y009975D03*
X016720Y009015D03*
X017745Y010070D03*
X015105Y011285D03*
D86*
X015113Y011280D03*
X015118Y009975D03*
X015113Y009015D03*
X016298Y009015D03*
X017603Y009570D03*
X013428Y009620D03*
X011803Y012020D03*
X013963Y013265D03*
D87*
X012995Y009960D03*
X013015Y009020D03*
D88*
X013348Y009205D03*
X014673Y009020D03*
X014668Y009970D03*
X015133Y011260D03*
X015128Y011265D03*
X016743Y009970D03*
X017588Y009575D03*
X017923Y009445D03*
X016738Y009020D03*
X013968Y013275D03*
D89*
X013983Y013300D03*
X015193Y011205D03*
X015198Y011200D03*
X015398Y009780D03*
X016013Y009780D03*
X016013Y009210D03*
X016013Y009205D03*
X016223Y009045D03*
X016813Y009055D03*
X017528Y009020D03*
X017968Y009425D03*
X017928Y009975D03*
X016808Y009940D03*
X015398Y009205D03*
X015188Y009045D03*
X014598Y009055D03*
X012998Y010085D03*
D90*
X014605Y009940D03*
X015190Y009945D03*
X015395Y009790D03*
X015395Y009785D03*
X016015Y009785D03*
X016220Y009945D03*
X016015Y009200D03*
X015395Y009200D03*
X017540Y009595D03*
X017555Y009975D03*
X017955Y009020D03*
D91*
X015058Y011325D03*
X013358Y009780D03*
X013353Y009785D03*
X012638Y009780D03*
X012633Y009775D03*
X012633Y009225D03*
X012638Y009220D03*
X010843Y009025D03*
X013953Y013245D03*
D92*
X013838Y013050D03*
X012998Y009955D03*
X013018Y009025D03*
D93*
X014658Y009025D03*
X016753Y009025D03*
X013588Y011525D03*
X013973Y013280D03*
D94*
X013988Y013305D03*
X013568Y011510D03*
X015208Y011190D03*
X015208Y009935D03*
X015403Y009765D03*
X016008Y009765D03*
X016203Y009935D03*
X016823Y009930D03*
X016008Y009220D03*
X016208Y009055D03*
X016828Y009065D03*
X016833Y009070D03*
X017518Y009025D03*
X017968Y009025D03*
X017978Y009420D03*
X017938Y009970D03*
X015403Y009220D03*
X015203Y009055D03*
X014583Y009065D03*
X014578Y009070D03*
X014588Y009930D03*
X011743Y012010D03*
D95*
X013000Y010070D03*
X013345Y009795D03*
X013350Y009790D03*
X012645Y009790D03*
X012640Y009785D03*
X012640Y009215D03*
X013345Y009185D03*
X010840Y009030D03*
X017745Y010060D03*
X017855Y009470D03*
D96*
X013015Y009030D03*
D97*
X014643Y009960D03*
X015383Y009820D03*
X015383Y009815D03*
X016028Y009815D03*
X016028Y009820D03*
X016028Y009170D03*
X016253Y009030D03*
X015383Y009170D03*
X015158Y009030D03*
X017563Y009585D03*
X015163Y011235D03*
D98*
X015218Y011180D03*
X015223Y009925D03*
X015408Y009750D03*
X015408Y009745D03*
X015408Y009235D03*
X015213Y009060D03*
X014563Y009080D03*
X014558Y009085D03*
X014568Y009915D03*
X014573Y009920D03*
X013343Y009230D03*
X016003Y009235D03*
X016193Y009065D03*
X016198Y009060D03*
X016848Y009080D03*
X017508Y009030D03*
X017978Y009030D03*
X017518Y009610D03*
X017948Y009965D03*
X016843Y009915D03*
X016838Y009920D03*
X016188Y009925D03*
X016003Y009750D03*
X016003Y009745D03*
D99*
X013015Y009035D03*
D100*
X013345Y009215D03*
X014635Y009035D03*
X015385Y009175D03*
X016025Y009175D03*
X016025Y009810D03*
X016250Y009960D03*
X016780Y009955D03*
X017570Y009980D03*
X017950Y009435D03*
X016775Y009035D03*
X015385Y009810D03*
X015160Y009960D03*
X014630Y009955D03*
X015165Y011230D03*
X013980Y013290D03*
D101*
X015173Y011225D03*
X015178Y011220D03*
X015173Y009955D03*
X015388Y009805D03*
X016023Y009805D03*
X016238Y009955D03*
X016023Y009180D03*
X016243Y009035D03*
X016783Y009040D03*
X017913Y009980D03*
X015388Y009180D03*
X015168Y009035D03*
X014628Y009040D03*
D102*
X014553Y009090D03*
X015233Y009075D03*
X015413Y009250D03*
X015413Y009255D03*
X015413Y009730D03*
X015413Y009735D03*
X015243Y009910D03*
X014548Y009900D03*
X014543Y009895D03*
X015998Y009735D03*
X015998Y009730D03*
X016168Y009910D03*
X015998Y009255D03*
X015998Y009250D03*
X016178Y009075D03*
X016858Y009090D03*
X017493Y009040D03*
X017983Y009035D03*
X017953Y009960D03*
X017518Y009955D03*
X016868Y009895D03*
X016863Y009900D03*
X015228Y011170D03*
X013993Y013315D03*
D103*
X013830Y013035D03*
X014685Y011550D03*
X013015Y009040D03*
D104*
X014608Y009050D03*
X014618Y009045D03*
X015178Y009040D03*
X015393Y009190D03*
X015393Y009195D03*
X016018Y009195D03*
X016233Y009040D03*
X016803Y009050D03*
X016798Y009945D03*
X016228Y009950D03*
X016018Y009795D03*
X016018Y009790D03*
X015393Y009795D03*
X015183Y009950D03*
X014613Y009945D03*
X015188Y011210D03*
X015183Y011215D03*
X013573Y011515D03*
D105*
X013560Y011505D03*
X015235Y011165D03*
X015240Y011160D03*
X014535Y009890D03*
X014530Y009885D03*
X014535Y009105D03*
X014540Y009100D03*
X014545Y009095D03*
X015240Y009080D03*
X015415Y009260D03*
X015415Y009265D03*
X015415Y009720D03*
X015415Y009725D03*
X015995Y009725D03*
X015995Y009720D03*
X015995Y009265D03*
X015995Y009260D03*
X016170Y009080D03*
X016865Y009095D03*
X016870Y009100D03*
X016875Y009105D03*
X017505Y009620D03*
X017745Y010085D03*
X017960Y009955D03*
X018000Y009405D03*
X017990Y009040D03*
X016880Y009885D03*
X016875Y009890D03*
X013340Y009235D03*
X011720Y012005D03*
D106*
X013828Y013030D03*
X012998Y009930D03*
X013018Y009045D03*
D107*
X013345Y009180D03*
X012660Y009195D03*
X010840Y009055D03*
X010840Y009050D03*
X013620Y011545D03*
X015035Y011345D03*
X013945Y013235D03*
X017745Y010055D03*
X017670Y009545D03*
D108*
X013018Y009050D03*
X012998Y009925D03*
D109*
X013345Y009225D03*
X014590Y009060D03*
X015195Y009050D03*
X015400Y009210D03*
X015400Y009215D03*
X016010Y009215D03*
X016215Y009050D03*
X016820Y009060D03*
X017535Y009600D03*
X017545Y009970D03*
X016815Y009935D03*
X016210Y009940D03*
X016010Y009775D03*
X016010Y009770D03*
X015400Y009770D03*
X015400Y009775D03*
X015200Y009940D03*
X014595Y009935D03*
X015205Y011195D03*
D110*
X015245Y011155D03*
X015250Y011150D03*
X015260Y009895D03*
X015265Y009890D03*
X015270Y009885D03*
X015420Y009705D03*
X015420Y009700D03*
X015420Y009285D03*
X015420Y009280D03*
X015255Y009090D03*
X014515Y009125D03*
X014510Y009130D03*
X014505Y009860D03*
X014510Y009865D03*
X014515Y009870D03*
X014520Y009875D03*
X015990Y009705D03*
X015990Y009700D03*
X016140Y009885D03*
X016145Y009890D03*
X016150Y009895D03*
X015990Y009285D03*
X015990Y009280D03*
X016895Y009125D03*
X017470Y009060D03*
X017475Y009055D03*
X018005Y009050D03*
X017495Y009630D03*
X017500Y009940D03*
X017505Y009945D03*
X016905Y009860D03*
X016900Y009865D03*
X016895Y009870D03*
X016890Y009875D03*
X013995Y013320D03*
D111*
X013823Y013020D03*
X012998Y009920D03*
X013018Y009055D03*
D112*
X013338Y009240D03*
X014498Y009140D03*
X014503Y009135D03*
X015258Y009095D03*
X015263Y009100D03*
X015423Y009290D03*
X015423Y009295D03*
X015423Y009685D03*
X015423Y009690D03*
X015423Y009695D03*
X015988Y009695D03*
X015988Y009690D03*
X015988Y009685D03*
X015988Y009295D03*
X015988Y009290D03*
X016148Y009100D03*
X016153Y009095D03*
X016903Y009130D03*
X016908Y009135D03*
X016913Y009140D03*
X017483Y009640D03*
X017488Y009635D03*
X017973Y009945D03*
X017978Y009940D03*
X017983Y009935D03*
X018018Y009390D03*
X018023Y009385D03*
X018008Y009055D03*
X016913Y009855D03*
X015253Y011145D03*
X014503Y009855D03*
X014498Y009850D03*
X014493Y009845D03*
X014488Y009840D03*
X013558Y011500D03*
D113*
X015030Y011350D03*
X014900Y010065D03*
X013320Y009815D03*
X010840Y009070D03*
X010840Y009065D03*
X010840Y009060D03*
X009875Y009090D03*
X009870Y009095D03*
X009840Y009130D03*
X009835Y009135D03*
X009830Y009140D03*
X009825Y009145D03*
X009820Y009150D03*
X009805Y009170D03*
X009800Y009175D03*
X009795Y009180D03*
X009790Y009185D03*
X009785Y009190D03*
X009780Y009195D03*
X009775Y009200D03*
X009770Y009205D03*
X009770Y009210D03*
X009765Y009215D03*
X009760Y009220D03*
X009755Y009225D03*
X009750Y009230D03*
X009745Y009235D03*
X009740Y009240D03*
X009735Y009245D03*
X009720Y009265D03*
X009715Y009270D03*
X009710Y009275D03*
X009705Y009280D03*
X009700Y009285D03*
X009695Y009290D03*
X009670Y009320D03*
X009665Y009325D03*
X009660Y009330D03*
X009620Y009375D03*
X013945Y013230D03*
X016510Y010065D03*
X017825Y009480D03*
D114*
X013818Y013015D03*
X012998Y009915D03*
X013018Y009060D03*
D115*
X014485Y009155D03*
X014490Y009150D03*
X014495Y009145D03*
X014475Y009825D03*
X014480Y009830D03*
X014485Y009835D03*
X015275Y009880D03*
X015280Y009875D03*
X015285Y009870D03*
X015425Y009680D03*
X015425Y009675D03*
X015425Y009310D03*
X015425Y009305D03*
X015425Y009300D03*
X015280Y009115D03*
X015275Y009110D03*
X015270Y009105D03*
X015985Y009300D03*
X015985Y009305D03*
X015985Y009310D03*
X016130Y009115D03*
X016135Y009110D03*
X016140Y009105D03*
X015985Y009675D03*
X015985Y009680D03*
X016120Y009865D03*
X016125Y009870D03*
X016130Y009875D03*
X016135Y009880D03*
X016915Y009850D03*
X016920Y009845D03*
X016925Y009840D03*
X016935Y009825D03*
X017485Y009925D03*
X017490Y009930D03*
X017495Y009935D03*
X017475Y009650D03*
X017480Y009645D03*
X016925Y009155D03*
X016920Y009150D03*
X016915Y009145D03*
X017455Y009075D03*
X017460Y009070D03*
X017465Y009065D03*
X018015Y009060D03*
X018020Y009065D03*
X015260Y011140D03*
X014000Y013325D03*
D116*
X012998Y009910D03*
X013018Y009065D03*
D117*
X013018Y009070D03*
X012998Y009905D03*
X014648Y011560D03*
X013813Y013005D03*
D118*
X015263Y011135D03*
X015293Y009865D03*
X015428Y009670D03*
X015428Y009665D03*
X015428Y009660D03*
X015428Y009320D03*
X015428Y009315D03*
X015983Y009315D03*
X015983Y009320D03*
X015983Y009660D03*
X015983Y009665D03*
X015983Y009670D03*
X016928Y009835D03*
X016933Y009830D03*
X016938Y009820D03*
X016943Y009815D03*
X017473Y009655D03*
X017988Y009930D03*
X017993Y009925D03*
X018028Y009380D03*
X018033Y009375D03*
X018038Y009370D03*
X018023Y009070D03*
X016943Y009180D03*
X016938Y009175D03*
X016938Y009170D03*
X016933Y009165D03*
X016928Y009160D03*
X014483Y009160D03*
X014478Y009165D03*
X014473Y009170D03*
X014473Y009175D03*
X014468Y009180D03*
X014468Y009815D03*
X014473Y009820D03*
D119*
X012998Y009900D03*
X013018Y009075D03*
D120*
X014570Y009075D03*
X015405Y009225D03*
X015405Y009230D03*
X015405Y009755D03*
X015405Y009760D03*
X015215Y009930D03*
X014900Y010085D03*
X014580Y009925D03*
X016005Y009760D03*
X016005Y009755D03*
X016195Y009930D03*
X016510Y010085D03*
X016830Y009925D03*
X017535Y009965D03*
X017525Y009605D03*
X017985Y009415D03*
X016840Y009075D03*
X016005Y009225D03*
X016005Y009230D03*
X015215Y011185D03*
D121*
X015270Y011130D03*
X015275Y011125D03*
X015295Y009860D03*
X015300Y009855D03*
X015305Y009850D03*
X015430Y009655D03*
X015430Y009650D03*
X015430Y009645D03*
X015430Y009335D03*
X015430Y009330D03*
X015430Y009325D03*
X015295Y009130D03*
X015290Y009125D03*
X015285Y009120D03*
X015980Y009325D03*
X015980Y009330D03*
X015980Y009335D03*
X016115Y009130D03*
X016120Y009125D03*
X016125Y009120D03*
X015980Y009645D03*
X015980Y009650D03*
X015980Y009655D03*
X016105Y009850D03*
X016110Y009855D03*
X016115Y009860D03*
X016945Y009810D03*
X016950Y009805D03*
X016955Y009800D03*
X016955Y009795D03*
X016960Y009790D03*
X016965Y009780D03*
X017465Y009665D03*
X017470Y009660D03*
X017475Y009915D03*
X017480Y009920D03*
X017995Y009920D03*
X018000Y009915D03*
X018040Y009365D03*
X018030Y009075D03*
X017450Y009080D03*
X017445Y009085D03*
X017440Y009090D03*
X016960Y009205D03*
X016955Y009200D03*
X016955Y009195D03*
X016950Y009190D03*
X016945Y009185D03*
X014465Y009185D03*
X014460Y009190D03*
X014455Y009195D03*
X014455Y009200D03*
X014450Y009205D03*
X014445Y009780D03*
X014450Y009790D03*
X014455Y009795D03*
X014455Y009800D03*
X014460Y009805D03*
X014465Y009810D03*
X013335Y009245D03*
D122*
X013018Y009080D03*
X012998Y009895D03*
D123*
X014428Y009750D03*
X014433Y009760D03*
X014438Y009765D03*
X014438Y009770D03*
X014443Y009775D03*
X014448Y009785D03*
X014423Y009255D03*
X014428Y009245D03*
X014433Y009235D03*
X014438Y009225D03*
X014443Y009220D03*
X014443Y009215D03*
X014448Y009210D03*
X015298Y009135D03*
X015303Y009140D03*
X015308Y009145D03*
X015433Y009340D03*
X015433Y009345D03*
X015433Y009350D03*
X015433Y009355D03*
X015433Y009625D03*
X015433Y009630D03*
X015433Y009635D03*
X015433Y009640D03*
X015313Y009840D03*
X015308Y009845D03*
X015978Y009640D03*
X015978Y009635D03*
X015978Y009630D03*
X015978Y009625D03*
X016098Y009840D03*
X016103Y009845D03*
X015978Y009355D03*
X015978Y009350D03*
X015978Y009345D03*
X015978Y009340D03*
X016103Y009145D03*
X016108Y009140D03*
X016113Y009135D03*
X016963Y009210D03*
X016968Y009215D03*
X016968Y009220D03*
X016973Y009225D03*
X016978Y009235D03*
X016983Y009245D03*
X017428Y009110D03*
X017433Y009100D03*
X017438Y009095D03*
X018033Y009080D03*
X018038Y009085D03*
X018043Y009090D03*
X018053Y009345D03*
X018048Y009350D03*
X018048Y009355D03*
X018043Y009360D03*
X018008Y009905D03*
X018003Y009910D03*
X017473Y009910D03*
X017468Y009905D03*
X017468Y009900D03*
X017463Y009895D03*
X017463Y009670D03*
X016983Y009750D03*
X016978Y009760D03*
X016973Y009765D03*
X016973Y009770D03*
X016968Y009775D03*
X016963Y009785D03*
X015278Y011120D03*
X013548Y011495D03*
X014003Y013330D03*
D124*
X013808Y012995D03*
X012998Y009890D03*
X013018Y009085D03*
D125*
X013018Y009090D03*
X012998Y009880D03*
D126*
X013298Y009830D03*
X012693Y009825D03*
X013338Y009170D03*
X010843Y009095D03*
X015003Y011370D03*
X013938Y013220D03*
X017733Y009520D03*
X017743Y009515D03*
X017778Y009500D03*
X017788Y009495D03*
D127*
X013015Y009095D03*
D128*
X014405Y009295D03*
X014415Y009270D03*
X014420Y009260D03*
X014425Y009250D03*
X014430Y009240D03*
X014435Y009230D03*
X014405Y009700D03*
X014410Y009710D03*
X014415Y009725D03*
X014420Y009730D03*
X014420Y009735D03*
X014425Y009740D03*
X014425Y009745D03*
X014430Y009755D03*
X015315Y009835D03*
X015320Y009830D03*
X015435Y009620D03*
X015435Y009615D03*
X015435Y009610D03*
X015435Y009375D03*
X015435Y009370D03*
X015435Y009365D03*
X015435Y009360D03*
X015320Y009160D03*
X015315Y009155D03*
X015310Y009150D03*
X015975Y009360D03*
X015975Y009365D03*
X015975Y009370D03*
X015975Y009375D03*
X015975Y009605D03*
X015975Y009610D03*
X015975Y009615D03*
X015975Y009620D03*
X016090Y009830D03*
X016095Y009835D03*
X016090Y009160D03*
X016095Y009155D03*
X016100Y009150D03*
X016975Y009230D03*
X016980Y009240D03*
X016985Y009250D03*
X016985Y009255D03*
X016990Y009260D03*
X016995Y009270D03*
X017420Y009125D03*
X017420Y009120D03*
X017425Y009115D03*
X017430Y009105D03*
X017460Y009675D03*
X017455Y009680D03*
X017455Y009685D03*
X017455Y009880D03*
X017460Y009890D03*
X016995Y009725D03*
X016990Y009735D03*
X016985Y009745D03*
X016980Y009755D03*
X018010Y009895D03*
X018010Y009900D03*
X018015Y009890D03*
X018055Y009340D03*
X018060Y009330D03*
X018050Y009105D03*
X018045Y009100D03*
X018045Y009095D03*
X015285Y011115D03*
X011695Y012000D03*
D129*
X013935Y013215D03*
X014900Y010060D03*
X016510Y010060D03*
X017745Y010045D03*
X017755Y009510D03*
X017765Y009505D03*
X010840Y009105D03*
X010840Y009100D03*
D130*
X013015Y009100D03*
D131*
X013015Y009105D03*
X012995Y009865D03*
D132*
X013018Y009110D03*
D133*
X013333Y009250D03*
X014393Y009330D03*
X014398Y009315D03*
X014403Y009305D03*
X014403Y009300D03*
X014408Y009290D03*
X014408Y009285D03*
X014413Y009280D03*
X014413Y009275D03*
X014418Y009265D03*
X014393Y009665D03*
X014398Y009680D03*
X014398Y009685D03*
X014403Y009690D03*
X014403Y009695D03*
X014408Y009705D03*
X014413Y009715D03*
X014413Y009720D03*
X015323Y009165D03*
X015438Y009380D03*
X015438Y009385D03*
X015438Y009390D03*
X015438Y009395D03*
X015438Y009400D03*
X015438Y009585D03*
X015438Y009590D03*
X015438Y009595D03*
X015438Y009600D03*
X015438Y009605D03*
X015973Y009600D03*
X015973Y009595D03*
X015973Y009590D03*
X015973Y009585D03*
X015973Y009580D03*
X015973Y009400D03*
X015973Y009395D03*
X015973Y009390D03*
X015973Y009385D03*
X015973Y009380D03*
X016088Y009165D03*
X016993Y009265D03*
X016998Y009275D03*
X016998Y009280D03*
X017003Y009285D03*
X017003Y009290D03*
X017008Y009300D03*
X017008Y009305D03*
X017013Y009315D03*
X017013Y009680D03*
X017008Y009690D03*
X017008Y009695D03*
X017003Y009705D03*
X017003Y009710D03*
X016998Y009715D03*
X016998Y009720D03*
X016993Y009730D03*
X016988Y009740D03*
X017448Y009700D03*
X017448Y009695D03*
X017453Y009690D03*
X017448Y009865D03*
X017453Y009875D03*
X017458Y009885D03*
X018018Y009885D03*
X018018Y009880D03*
X018023Y009875D03*
X018058Y009335D03*
X018063Y009325D03*
X018063Y009320D03*
X018068Y009315D03*
X018068Y009310D03*
X018063Y009130D03*
X018058Y009120D03*
X018058Y009115D03*
X018053Y009110D03*
X017418Y009130D03*
X017413Y009135D03*
X017413Y009140D03*
X017408Y009145D03*
X015288Y011110D03*
X014003Y013335D03*
D134*
X012998Y009855D03*
X013018Y009115D03*
D135*
X013015Y009120D03*
X013795Y012970D03*
D136*
X013790Y012965D03*
X012995Y009845D03*
X013015Y009125D03*
D137*
X014380Y009370D03*
X014380Y009375D03*
X014380Y009380D03*
X014380Y009385D03*
X014375Y009400D03*
X014375Y009405D03*
X014375Y009410D03*
X014375Y009415D03*
X014370Y009445D03*
X014370Y009450D03*
X014370Y009455D03*
X014370Y009525D03*
X014370Y009535D03*
X014370Y009540D03*
X014370Y009545D03*
X014370Y009550D03*
X014370Y009555D03*
X014375Y009580D03*
X014375Y009585D03*
X014375Y009590D03*
X014375Y009595D03*
X014380Y009610D03*
X014380Y009615D03*
X014380Y009620D03*
X014385Y009630D03*
X014385Y009635D03*
X014385Y009640D03*
X014385Y009645D03*
X014390Y009650D03*
X014390Y009655D03*
X014390Y009660D03*
X014395Y009670D03*
X014395Y009675D03*
X014385Y009365D03*
X014385Y009360D03*
X014385Y009355D03*
X014385Y009350D03*
X014390Y009345D03*
X014390Y009340D03*
X014390Y009335D03*
X014395Y009325D03*
X014395Y009320D03*
X014400Y009310D03*
X015440Y009405D03*
X015440Y009410D03*
X015440Y009415D03*
X015440Y009420D03*
X015440Y009425D03*
X015440Y009430D03*
X015440Y009435D03*
X015440Y009545D03*
X015440Y009550D03*
X015440Y009555D03*
X015440Y009560D03*
X015440Y009565D03*
X015440Y009570D03*
X015440Y009575D03*
X015440Y009580D03*
X015970Y009575D03*
X015970Y009570D03*
X015970Y009565D03*
X015970Y009560D03*
X015970Y009555D03*
X015970Y009550D03*
X015970Y009545D03*
X015970Y009440D03*
X015970Y009435D03*
X015970Y009430D03*
X015970Y009425D03*
X015970Y009420D03*
X015970Y009415D03*
X015970Y009410D03*
X015970Y009405D03*
X017005Y009295D03*
X017010Y009310D03*
X017015Y009320D03*
X017015Y009325D03*
X017015Y009330D03*
X017020Y009335D03*
X017020Y009340D03*
X017020Y009345D03*
X017025Y009355D03*
X017025Y009360D03*
X017025Y009365D03*
X017030Y009375D03*
X017030Y009380D03*
X017030Y009385D03*
X017035Y009405D03*
X017035Y009410D03*
X017035Y009415D03*
X017040Y009445D03*
X017040Y009450D03*
X017040Y009455D03*
X017040Y009540D03*
X017040Y009545D03*
X017040Y009550D03*
X017035Y009580D03*
X017035Y009585D03*
X017035Y009590D03*
X017030Y009610D03*
X017030Y009615D03*
X017030Y009620D03*
X017025Y009630D03*
X017025Y009635D03*
X017025Y009640D03*
X017020Y009650D03*
X017020Y009655D03*
X017020Y009660D03*
X017015Y009665D03*
X017015Y009670D03*
X017015Y009675D03*
X017010Y009685D03*
X017005Y009700D03*
X017440Y009720D03*
X017440Y009725D03*
X017440Y009730D03*
X017445Y009715D03*
X017445Y009710D03*
X017445Y009705D03*
X017435Y009800D03*
X017440Y009835D03*
X017440Y009840D03*
X017440Y009845D03*
X017445Y009850D03*
X017445Y009855D03*
X017445Y009860D03*
X017450Y009870D03*
X018025Y009870D03*
X018025Y009865D03*
X018030Y009860D03*
X018030Y009855D03*
X018035Y009840D03*
X018070Y009305D03*
X018070Y009300D03*
X018075Y009295D03*
X018075Y009290D03*
X018075Y009285D03*
X018075Y009170D03*
X018070Y009150D03*
X018070Y009145D03*
X018065Y009140D03*
X018065Y009135D03*
X018060Y009125D03*
X017405Y009150D03*
X017405Y009155D03*
X017400Y009165D03*
X015295Y011105D03*
X013545Y011490D03*
D138*
X013015Y009135D03*
X013015Y009130D03*
D139*
X012715Y009160D03*
X010840Y009140D03*
X010840Y009135D03*
X014970Y011395D03*
X016510Y010055D03*
D140*
X013015Y009140D03*
X013785Y012955D03*
D141*
X013015Y009150D03*
X013015Y009145D03*
D142*
X012708Y009165D03*
X013288Y009835D03*
X013933Y013210D03*
D143*
X013920Y013190D03*
X010840Y009175D03*
X010840Y009170D03*
D144*
X009733Y009250D03*
X009728Y009255D03*
X009723Y009260D03*
X009693Y009295D03*
X009688Y009300D03*
X009683Y009305D03*
X009678Y009310D03*
X009673Y009315D03*
X009658Y009335D03*
X009653Y009340D03*
X009648Y009345D03*
X009643Y009350D03*
X009638Y009355D03*
X009633Y009360D03*
X009628Y009365D03*
X009623Y009370D03*
X009618Y009380D03*
X009613Y009385D03*
X009608Y009390D03*
X009603Y009395D03*
X009598Y009400D03*
X009593Y009405D03*
X009588Y009410D03*
X012668Y009190D03*
X012663Y009805D03*
X012668Y009810D03*
D145*
X015313Y011085D03*
X015318Y011080D03*
X017388Y009205D03*
X017388Y009200D03*
D146*
X017740Y010005D03*
X016510Y010035D03*
X014900Y010035D03*
X014900Y011445D03*
X013905Y013165D03*
X010840Y009245D03*
X010840Y009240D03*
D147*
X013330Y009260D03*
X013540Y011485D03*
X014010Y013345D03*
D148*
X013900Y013155D03*
X014900Y010030D03*
X016510Y010030D03*
X017740Y009995D03*
X010840Y009270D03*
X010840Y009265D03*
X009375Y009550D03*
X009375Y009580D03*
D149*
X010540Y009710D03*
X010550Y009685D03*
X010555Y009675D03*
X010560Y009660D03*
X010565Y009650D03*
X010570Y009640D03*
X010570Y009635D03*
X010575Y009625D03*
X010580Y009615D03*
X010580Y009610D03*
X010585Y009600D03*
X010590Y009590D03*
X010590Y009585D03*
X010595Y009580D03*
X010595Y009575D03*
X010595Y009570D03*
X010600Y009565D03*
X010600Y009560D03*
X010605Y009555D03*
X010605Y009550D03*
X010605Y009545D03*
X010610Y009540D03*
X010610Y009535D03*
X010615Y009530D03*
X010615Y009525D03*
X010620Y009515D03*
X010620Y009510D03*
X010625Y009505D03*
X010625Y009500D03*
X010630Y009490D03*
X010635Y009480D03*
X010635Y009475D03*
X010640Y009470D03*
X010640Y009465D03*
X010645Y009455D03*
X010650Y009445D03*
X010650Y009440D03*
X010655Y009430D03*
X010660Y009415D03*
X010665Y009405D03*
X010675Y009380D03*
X010995Y009365D03*
X011000Y009380D03*
X011005Y009390D03*
X011010Y009405D03*
X011015Y009415D03*
X011025Y009440D03*
X012595Y009280D03*
X012600Y009270D03*
X012605Y009265D03*
X012600Y009730D03*
X012605Y009735D03*
X013380Y009750D03*
X013385Y009740D03*
X017880Y009460D03*
D150*
X013323Y009270D03*
D151*
X013320Y009275D03*
X015375Y011020D03*
D152*
X015388Y011005D03*
X015393Y011000D03*
X015398Y010995D03*
X013318Y009280D03*
X014023Y013370D03*
D153*
X011610Y011980D03*
X013315Y009285D03*
X015400Y010990D03*
X015405Y010985D03*
D154*
X014900Y010025D03*
X016510Y010025D03*
X017740Y009985D03*
X010840Y009295D03*
X010840Y009290D03*
X009385Y009525D03*
X009385Y009600D03*
D155*
X013313Y009290D03*
X015418Y010970D03*
X015423Y010965D03*
D156*
X014900Y010020D03*
X016510Y010020D03*
X010840Y009320D03*
X010840Y009315D03*
X010840Y009310D03*
X009395Y009505D03*
X009395Y009620D03*
D157*
X009400Y009630D03*
X009400Y009635D03*
X009400Y009495D03*
X009400Y009490D03*
X010840Y009330D03*
X010840Y009325D03*
X013000Y010020D03*
X014845Y011480D03*
D158*
X014835Y011485D03*
X014900Y010015D03*
X016510Y010015D03*
X013885Y013130D03*
X009405Y009645D03*
X009405Y009480D03*
X010840Y009340D03*
X010840Y009335D03*
D159*
X012998Y009400D03*
X012998Y009405D03*
X012993Y009590D03*
X013743Y012885D03*
D160*
X012995Y009585D03*
X012995Y009580D03*
X012995Y009575D03*
X012995Y009570D03*
X012995Y009565D03*
X012995Y009560D03*
X012995Y009555D03*
X012995Y009550D03*
X012995Y009545D03*
X012995Y009455D03*
X012995Y009450D03*
X012995Y009445D03*
X012995Y009440D03*
X012995Y009435D03*
X012995Y009430D03*
X012995Y009425D03*
X012995Y009420D03*
X012995Y009415D03*
X012995Y009410D03*
D161*
X014900Y009995D03*
X016510Y009995D03*
X009435Y009705D03*
X009435Y009415D03*
D162*
X009433Y009420D03*
X009433Y009700D03*
X012998Y010000D03*
X014798Y011505D03*
X013873Y013105D03*
D163*
X013873Y013110D03*
X012998Y010005D03*
X014903Y010000D03*
X016508Y010000D03*
X009428Y009690D03*
X009428Y009435D03*
D164*
X014655Y009965D03*
X014900Y010080D03*
X015150Y011245D03*
X015145Y011250D03*
X016510Y010080D03*
X016755Y009965D03*
X017575Y009580D03*
X017935Y009440D03*
D165*
X014808Y011500D03*
X013878Y013115D03*
X009423Y009680D03*
X009423Y009445D03*
D166*
X009418Y009455D03*
X009418Y009670D03*
X012998Y010010D03*
X014818Y011495D03*
D167*
X012993Y009540D03*
X012993Y009535D03*
X012993Y009530D03*
X012993Y009525D03*
X012993Y009460D03*
D168*
X009413Y009465D03*
X009413Y009660D03*
X013883Y013125D03*
D169*
X013740Y012880D03*
X012995Y009520D03*
X012995Y009515D03*
X012995Y009510D03*
X012995Y009505D03*
X012995Y009500D03*
X012995Y009495D03*
X012995Y009490D03*
X012995Y009485D03*
X012995Y009480D03*
X012995Y009475D03*
X012995Y009470D03*
X012995Y009465D03*
D170*
X014883Y011455D03*
X009373Y009575D03*
X009373Y009555D03*
D171*
X009368Y009565D03*
X014893Y011450D03*
D172*
X012995Y009595D03*
D173*
X014788Y011510D03*
X009438Y009710D03*
D174*
X009443Y009720D03*
X012998Y009995D03*
X014903Y009990D03*
D175*
X014730Y011535D03*
X013850Y013065D03*
X011895Y010065D03*
X011895Y010060D03*
X011895Y010055D03*
X011895Y010050D03*
X011895Y010045D03*
X011895Y010040D03*
X011895Y010035D03*
X011895Y010030D03*
X011895Y010025D03*
X011895Y010020D03*
X011895Y010015D03*
X011895Y010010D03*
X011895Y010005D03*
X011895Y010000D03*
X011895Y009995D03*
X011895Y009990D03*
X011895Y009985D03*
X011895Y009980D03*
X011895Y009975D03*
X011895Y009970D03*
X011895Y009965D03*
X011895Y009960D03*
X011895Y009955D03*
X011895Y009950D03*
X011895Y009945D03*
X011895Y009940D03*
X011895Y009935D03*
X011895Y009930D03*
X011895Y009925D03*
X011895Y009920D03*
X011895Y009915D03*
X011895Y009910D03*
X011895Y009905D03*
X011895Y009900D03*
X011895Y009895D03*
X011895Y009890D03*
X011895Y009885D03*
X011895Y009880D03*
X011895Y009875D03*
X011895Y009870D03*
X011895Y009865D03*
X011895Y009860D03*
X011895Y009855D03*
X011895Y009850D03*
X011895Y009845D03*
X011895Y009840D03*
X011895Y009830D03*
D176*
X011893Y009835D03*
X012998Y009965D03*
D177*
X012998Y010055D03*
X013273Y009840D03*
X017743Y010035D03*
D178*
X012998Y009850D03*
D179*
X012995Y009860D03*
X013795Y012975D03*
D180*
X013798Y012980D03*
X012998Y009870D03*
D181*
X012998Y009875D03*
X014623Y011565D03*
X013803Y012985D03*
D182*
X013805Y012990D03*
X012995Y009885D03*
D183*
X012998Y009935D03*
D184*
X012998Y009940D03*
D185*
X012998Y009945D03*
X013833Y013040D03*
D186*
X013838Y013045D03*
X014703Y011545D03*
X012998Y009950D03*
D187*
X012998Y009975D03*
X014743Y011530D03*
D188*
X014753Y011525D03*
X013858Y013080D03*
X012998Y009980D03*
D189*
X012998Y009985D03*
D190*
X014900Y009985D03*
X016510Y009985D03*
D191*
X017743Y010015D03*
X013913Y013175D03*
D192*
X014953Y011410D03*
X017743Y010030D03*
D193*
X014903Y010045D03*
X013918Y013185D03*
D194*
X015323Y011075D03*
X015328Y011070D03*
X015333Y011065D03*
X016513Y010090D03*
X012998Y010090D03*
D195*
X015433Y010955D03*
X015438Y010950D03*
X015443Y010945D03*
X014033Y013385D03*
D196*
X014030Y013380D03*
X013520Y011460D03*
X015430Y010960D03*
X011595Y011975D03*
D197*
X015410Y010980D03*
X015415Y010975D03*
D198*
X015383Y011010D03*
X015378Y011015D03*
X013528Y011470D03*
X014023Y013365D03*
D199*
X014018Y013360D03*
X013533Y011475D03*
X015368Y011025D03*
X011633Y011985D03*
D200*
X015355Y011040D03*
X015360Y011035D03*
X015365Y011030D03*
D201*
X015350Y011045D03*
X015345Y011050D03*
X014015Y013355D03*
D202*
X013968Y013270D03*
X015123Y011270D03*
D203*
X013523Y011465D03*
X014028Y013375D03*
D204*
X013843Y013055D03*
X014718Y011540D03*
D205*
X014670Y011555D03*
D206*
X014253Y011570D03*
D207*
X014250Y011575D03*
X014245Y011580D03*
X014240Y011585D03*
D208*
X014238Y011590D03*
X014233Y011595D03*
X013618Y012665D03*
D209*
X014225Y011605D03*
X014230Y011600D03*
D210*
X014223Y011610D03*
X014218Y011615D03*
X014213Y011620D03*
X013613Y012660D03*
D211*
X014205Y011630D03*
X014210Y011625D03*
D212*
X014203Y011635D03*
X014198Y011640D03*
D213*
X014195Y011645D03*
X014190Y011650D03*
X014185Y011655D03*
X013610Y012655D03*
D214*
X013608Y012650D03*
X014178Y011665D03*
X014183Y011660D03*
D215*
X014175Y011670D03*
D216*
X014168Y011675D03*
D217*
X014165Y011680D03*
X014160Y011685D03*
X014155Y011690D03*
X013605Y012645D03*
D218*
X014153Y011695D03*
D219*
X014145Y011700D03*
D220*
X014143Y011705D03*
X014138Y011710D03*
X014133Y011715D03*
X013603Y012640D03*
D221*
X014123Y011725D03*
X014128Y011720D03*
D222*
X014120Y011730D03*
D223*
X014113Y011735D03*
X013598Y012630D03*
D224*
X014105Y011745D03*
X014110Y011740D03*
D225*
X014098Y011750D03*
X013593Y012625D03*
D226*
X014090Y011760D03*
X014095Y011755D03*
D227*
X014085Y011765D03*
X014080Y011770D03*
X013590Y012620D03*
D228*
X014073Y011775D03*
D229*
X014070Y011780D03*
X013590Y012615D03*
D230*
X014063Y011785D03*
D231*
X014060Y011790D03*
X013585Y012610D03*
D232*
X014053Y011795D03*
D233*
X014050Y011800D03*
D234*
X014043Y011805D03*
X013583Y012605D03*
D235*
X014035Y011810D03*
D236*
X014030Y011815D03*
X014025Y011820D03*
D237*
X014020Y011825D03*
D238*
X014013Y011830D03*
X013573Y012590D03*
D239*
X014010Y011835D03*
D240*
X014003Y011840D03*
D241*
X013995Y011845D03*
X013570Y012585D03*
D242*
X013570Y012580D03*
X013990Y011850D03*
D243*
X013983Y011855D03*
D244*
X013978Y011860D03*
D245*
X013970Y011865D03*
D246*
X013965Y011870D03*
D247*
X013958Y011875D03*
X013558Y012565D03*
D248*
X013950Y011880D03*
D249*
X013945Y011885D03*
D250*
X013935Y011890D03*
D251*
X013930Y011895D03*
X013550Y012550D03*
D252*
X013923Y011900D03*
D253*
X013913Y011905D03*
X013548Y012545D03*
D254*
X013908Y011910D03*
D255*
X013898Y011915D03*
X013543Y012535D03*
D256*
X013538Y012530D03*
X013893Y011920D03*
D257*
X013883Y011925D03*
D258*
X013875Y011930D03*
X013535Y012520D03*
D259*
X013530Y012515D03*
X013865Y011935D03*
D260*
X013855Y011940D03*
D261*
X013848Y011945D03*
D262*
X013838Y011950D03*
X013523Y012500D03*
D263*
X013830Y011955D03*
D264*
X013818Y011960D03*
D265*
X013810Y011965D03*
X013510Y012480D03*
D266*
X013795Y011970D03*
D267*
X013785Y011975D03*
D268*
X013775Y011980D03*
D269*
X013760Y011985D03*
D270*
X013750Y011990D03*
D271*
X013733Y011995D03*
X013483Y012430D03*
D272*
X013723Y012000D03*
D273*
X013703Y012005D03*
D274*
X013685Y012010D03*
D275*
X013668Y012015D03*
D276*
X013645Y012020D03*
D277*
X013618Y012025D03*
X013433Y012345D03*
D278*
X013578Y012030D03*
D279*
X013255Y012035D03*
D280*
X013255Y012040D03*
D281*
X013258Y012045D03*
D282*
X013263Y012050D03*
D283*
X013265Y012055D03*
D284*
X013268Y012060D03*
D285*
X013270Y012065D03*
D286*
X013273Y012070D03*
D287*
X013275Y012075D03*
D288*
X013278Y012080D03*
D289*
X013283Y012085D03*
D290*
X013285Y012090D03*
D291*
X013288Y012095D03*
D292*
X013290Y012100D03*
D293*
X013293Y012105D03*
D294*
X013298Y012110D03*
D295*
X013298Y012115D03*
D296*
X013303Y012120D03*
D297*
X013305Y012125D03*
D298*
X013310Y012130D03*
D299*
X013310Y012135D03*
D300*
X013313Y012140D03*
D301*
X013318Y012145D03*
D302*
X013318Y012150D03*
D303*
X013323Y012155D03*
D304*
X013325Y012160D03*
D305*
X013330Y012165D03*
D306*
X013330Y012170D03*
D307*
X013333Y012175D03*
D308*
X013338Y012180D03*
D309*
X013340Y012185D03*
D310*
X013343Y012190D03*
D311*
X013345Y012195D03*
D312*
X013348Y012200D03*
D313*
X013353Y012205D03*
D314*
X013353Y012210D03*
D315*
X013358Y012215D03*
D316*
X013360Y012220D03*
D317*
X013363Y012225D03*
D318*
X013365Y012230D03*
D319*
X013368Y012235D03*
D320*
X013373Y012240D03*
D321*
X013373Y012245D03*
D322*
X013378Y012250D03*
D323*
X013380Y012255D03*
D324*
X013383Y012260D03*
D325*
X013385Y012265D03*
D326*
X013388Y012270D03*
D327*
X013393Y012275D03*
D328*
X013393Y012280D03*
D329*
X013398Y012285D03*
D330*
X013400Y012290D03*
D331*
X013405Y012295D03*
D332*
X013405Y012300D03*
D333*
X013408Y012305D03*
D334*
X013413Y012310D03*
D335*
X013415Y012315D03*
D336*
X013418Y012320D03*
D337*
X013420Y012325D03*
D338*
X013423Y012330D03*
D339*
X013428Y012335D03*
D340*
X013428Y012340D03*
D341*
X013435Y012350D03*
D342*
X013438Y012355D03*
D343*
X013440Y012360D03*
D344*
X013443Y012365D03*
D345*
X013448Y012370D03*
D346*
X013448Y012375D03*
D347*
X013453Y012380D03*
D348*
X013455Y012385D03*
D349*
X013460Y012390D03*
D350*
X013460Y012395D03*
D351*
X013463Y012400D03*
D352*
X013468Y012405D03*
D353*
X013470Y012410D03*
D354*
X013473Y012415D03*
D355*
X013475Y012420D03*
D356*
X013478Y012425D03*
D357*
X013483Y012435D03*
D358*
X013488Y012440D03*
D359*
X013490Y012445D03*
D360*
X013493Y012450D03*
D361*
X013495Y012455D03*
D362*
X013498Y012460D03*
D363*
X013503Y012465D03*
D364*
X013503Y012470D03*
D365*
X013508Y012475D03*
D366*
X013515Y012485D03*
D367*
X013515Y012490D03*
D368*
X013518Y012495D03*
D369*
X013525Y012505D03*
D370*
X013528Y012510D03*
D371*
X013535Y012525D03*
D372*
X013545Y012540D03*
D373*
X013553Y012555D03*
D374*
X013558Y012560D03*
D375*
X013563Y012570D03*
D376*
X013565Y012575D03*
D377*
X013578Y012595D03*
D378*
X013578Y012600D03*
D379*
X013600Y012635D03*
D380*
X013620Y012670D03*
D381*
X013623Y012675D03*
D382*
X013625Y012680D03*
D383*
X013628Y012685D03*
D384*
X013633Y012690D03*
D385*
X013633Y012695D03*
D386*
X013638Y012700D03*
D387*
X013640Y012705D03*
D388*
X013645Y012710D03*
D389*
X013645Y012715D03*
D390*
X013648Y012720D03*
D391*
X013653Y012725D03*
D392*
X013653Y012730D03*
D393*
X013658Y012735D03*
D394*
X013660Y012740D03*
D395*
X013665Y012745D03*
D396*
X013665Y012750D03*
D397*
X013668Y012755D03*
D398*
X013673Y012760D03*
D399*
X013675Y012765D03*
D400*
X013678Y012770D03*
D401*
X013680Y012775D03*
D402*
X013683Y012780D03*
D403*
X013685Y012785D03*
D404*
X013688Y012790D03*
D405*
X013693Y012795D03*
D406*
X013695Y012800D03*
D407*
X013698Y012805D03*
D408*
X013700Y012810D03*
D409*
X013703Y012815D03*
D410*
X013708Y012820D03*
D411*
X013708Y012825D03*
D412*
X013713Y012830D03*
D413*
X013715Y012835D03*
D414*
X013720Y012840D03*
D415*
X013720Y012845D03*
D416*
X013723Y012850D03*
D417*
X013728Y012855D03*
D418*
X013728Y012860D03*
D419*
X013733Y012865D03*
D420*
X013735Y012870D03*
D421*
X013740Y012875D03*
D422*
X013748Y012890D03*
D423*
X013750Y012895D03*
D424*
X013753Y012900D03*
D425*
X013755Y012905D03*
D426*
X013758Y012910D03*
D427*
X013763Y012915D03*
D428*
X013763Y012920D03*
D429*
X013768Y012925D03*
D430*
X013770Y012930D03*
D431*
X013773Y012935D03*
D432*
X013775Y012940D03*
D433*
X013778Y012945D03*
D434*
X013783Y012950D03*
D435*
X013788Y012960D03*
D436*
X013810Y013000D03*
D437*
X013815Y013010D03*
D438*
X013825Y013025D03*
D439*
X013850Y013070D03*
D440*
X013853Y013075D03*
M02*
